<?xml version="1.0" encoding="utf-8"?>
<!-- Generator: Adobe Illustrator 24.0.1, SVG Export Plug-In . SVG Version: 6.00 Build 0)  -->
<svg version="1.1" xmlns="http://www.w3.org/2000/svg" xmlns:xlink="http://www.w3.org/1999/xlink" x="0px" y="0px"
	 viewBox="0 0 432 288" style="enable-background:new 0 0 432 288;" xml:space="preserve">
<style type="text/css">
	.st0{display:none;}
	.st1{display:inline;}
	.st2{fill:none;stroke:#000000;stroke-width:0.25;stroke-miterlimit:10;stroke-dasharray:4,2;}
	.st3{fill:none;stroke:#000000;stroke-miterlimit:10;}
	.st4{fill:none;stroke:#000000;stroke-width:0.5;stroke-miterlimit:10;}
	.st5{fill:none;stroke:#000000;stroke-width:2;stroke-miterlimit:10;}
	.st6{fill:#FFFFFF;stroke:#000000;stroke-miterlimit:10;}
	.st7{fill:none;stroke:#000000;stroke-width:0.75;stroke-miterlimit:10;}
	.st8{fill:#FFFFFF;}
	.st9{fill:none;}
</style>
<g id="Layer_1" class="st0">
	<g class="st1">
		<g>
			<path class="st2" d="M264.9,66.9c0,0-14.3,65.5,0.2,68"/>
		</g>
		<g>
			<path class="st2" d="M158.6,224.7c0,0,30.1,4.8,98.4-0.2"/>
			<g>
				<path class="st3" d="M161.4,60.8l-11.5,6.5c0,0,11,61.9,0,65.7c0,0,5.7,16.2,6.5,22.2c2.3,17.4,2.2,71.5,2.2,71.5
					s31.5,5.2,98.4,0c0,0,0.4-52.3,2.5-69.5c0.7-6.2,5.7-24.2,5.7-24.2c-11-3.8,1.8-65.4,1.8-65.4l-13.2-6.8"/>
				<path class="st2" d="M151.5,66.3c0,0,13.1,65.2-1.5,68.6"/>
			</g>
		</g>
		<path class="st3" d="M161.4,60.8c0,0,8.8,48.9,45.9,49.4c37.1,0.6,46.4-49.4,46.4-49.4"/>
		<path class="st2" d="M159.6,63.4c0,0,8,49.7,47.9,49.7c41,0,48.2-50.8,48.2-50.8"/>
	</g>
</g>
<g id="Layer_5">
</g>
<g id="Layer_6">
	<g>
		<path class="st3" d="M214.6,57.6c0,0,13.6-18.1,21.1-37.8l1.3,0.8c0,0-10,24.8-21.8,37.7L214.6,57.6z"/>
		<rect x="216.2" y="70.5" class="st2" width="18.8" height="1.9"/>
		<rect x="216.9" y="70.9" class="st4" width="0.4" height="1.1"/>
		<g>
			<path class="st5" d="M212.4,71.5c-0.9-0.2-1.3,1.7-1.4,3.1c-1.2,18.9-0.8,38.1,1.2,56.8c1.2,11.5,2.9,23.7,0.1,34.3"/>
			<path class="st3" d="M213.9,176c0,0-0.4,1-1.7,1c-1.4,0-1.7-1-1.7-1l1.6-10.2h0.5L213.9,176z"/>
			<path class="st3" d="M207.5,173c0,0-0.1,1.4,1.1,2.3c1.2,0.9,1.8,0.5,1.8,0.5l1.8-10.2l-0.2-0.2L207.5,173z"/>
		</g>
		<path class="st2" d="M232.8,29.5c0,0-0.6,31.6,9.7,36.5"/>
		<path class="st2" d="M196.8,29.5c0,0,0.6,31.6-9.7,36.5"/>
		<path class="st6" d="M216.2,58.5c0,0-12.5-15.2-22.6-38.5l-0.9,0.6c0,0,10.6,25.1,22.3,37.9H216.2z"/>
		
			<rect x="194.6" y="70.5" transform="matrix(-1 -4.499568e-11 4.499568e-11 -1 407.9792 142.9427)" class="st2" width="18.8" height="1.9"/>
		
			<rect x="212.3" y="70.9" transform="matrix(-1 -4.532742e-11 4.532742e-11 -1 425.01 142.9427)" class="st4" width="0.4" height="1.1"/>
		<g>
			<path class="st5" d="M217.1,71.5c0.9-0.2,1.3,1.7,1.4,3.1c1.2,18.9,0.8,38.1-1.2,56.8c-1.2,11.5-2.9,23.7-0.1,34.3"/>
			<path class="st3" d="M215.6,176c0,0,0.4,1,1.7,1c1.4,0,1.7-1,1.7-1l-1.6-10.2H217L215.6,176z"/>
			<path class="st3" d="M222.1,173c0,0,0.1,1.4-1.1,2.3c-1.2,0.9-1.8,0.5-1.8,0.5l-1.8-10.2l0.2-0.2L222.1,173z"/>
		</g>
		<path class="st2" d="M178.4,261.6c0,0,12-0.7,10,0.2c-2,1,7,0.9,10.3,0.3c0.9-0.2-2.6-0.5,3.5-1.6c5-0.9,9.6,1,10.2,1.8
			c1,1.2,3.9,1.7,5,0c0.5-0.9,5.1-2.1,10.2-1.8c4.8,0.2,2.8,1.4,3.7,1.7c1.7,0.5,12,0.6,10-0.3c-2-1,10.2-0.4,10.2-0.4"/>
		<line class="st4" x1="199.1" y1="262.5" x2="199.9" y2="187.1"/>
		<g>
			<path d="M211,263.2l-0.3-54.7l0-27.4l0-13.7c0-4.6,0-9.1,0.2-13.7c-0.2,4.6-0.1,9.1-0.1,13.7l0.1,13.7l0.3,27.4l0.8,54.7
				L211,263.2z"/>
		</g>
		<g>
			<path d="M217.1,263.8l0.3-43.4l0.1-21.7c0-7.2,0-14.5-0.1-21.7c0.2,7.2,0.3,14.5,0.4,21.7l0.2,21.7l0.2,43.4L217.1,263.8z"/>
		</g>
		<line class="st3" x1="200.9" y1="263.2" x2="200.9" y2="262"/>
		<line class="st3" x1="228.9" y1="263.2" x2="228.9" y2="262.1"/>
		<path class="st3" d="M195.6,27c0,0,0.6,29.8-8.4,37.4l-9,198.5c0,0,11-1.1,9.3,0s15.9,0.7,12.9,0.1c-6-1.3,10.8-2.4,11.3,0.6
			c0.3,1.5,5.8,1.5,6.2,0c0.9-2.9,17.3-1.8,11.3-0.6c-2.9,0.6,14.6,1,12.9-0.1s9.3,0,9.3,0l-9-198.5c-9-7.6-8.4-37.4-8.4-37.4"/>
		<g>
			<path d="M187,262.9l4-67l1.9-33.5c0.6-11.2,1.2-22.3,1.5-33.5c-0.3,11.2-0.8,22.4-1.3,33.5l-1.6,33.5l-3.5,67L187,262.9z"/>
		</g>
		<g>
			<polygon points="230.1,262.7 227.9,149.4 231.1,262.7 			"/>
		</g>
		<g>
			<polygon points="241.6,262.9 235.7,128.8 242.6,262.9 			"/>
		</g>
		<polyline class="st2" points="244.4,119.3 243.7,119.7 244.5,145.9 245.6,145.4 		"/>
		<polyline class="st2" points="185,119.3 185.7,119.7 184.8,145.9 183.8,145.4 		"/>
	</g>
</g>
<g id="Layer_3">
	<g>
		<line class="st7" x1="187.8" y1="39.4" x2="186.2" y2="41.1"/>
		<path class="st7" d="M187.6,46.5l-1.8-2.3c0,0-0.9,12-4.1,17.8c-3.2,5.8-2.9-15.4-2.5-19.8s3-19.4,5.6-21.4s1.3,20,1.3,20l-2-2.2"
			/>
		<line class="st7" x1="183.7" y1="45.5" x2="185.8" y2="44.2"/>
	</g>
</g>
<g id="Layer_4">
	<line class="st7" x1="270.1" y1="23.6" x2="267.6" y2="19.9"/>
	<polyline class="st7" points="265.7,260.8 267.6,264 267.6,20.2 265.7,23.7 	"/>
	<line class="st7" x1="267.6" y1="264.7" x2="269.4" y2="260.7"/>
	<rect x="261.7" y="129" class="st8" width="11.7" height="11.7"/>
	<g>
		<g>
			<rect x="259" y="130.9" class="st9" width="17.1" height="17.1"/>
			<path d="M269,136.6h-2.8l-0.9,2.1h-0.9l3.2-7.3l3.2,7.3h-0.9L269,136.6z M266.5,135.8h2.1l-1.1-2.5L266.5,135.8z"/>
		</g>
	</g>
	<g>
		<g>
			<g>
				<path class="st7" d="M208.3,269.6l2.5,1.6c0,0-46.7,0.9-30.5,3.4c16.2,2.5,35.1,2.1,35.1,2.1s18.1,0.4,34.3-2.1
					c16.2-2.5-29.3-3.4-29.3-3.4l2.4-1.6"/>
			</g>
			<line class="st7" x1="223.3" y1="273" x2="219.4" y2="271.2"/>
			<line class="st7" x1="208.1" y1="273" x2="211" y2="271.2"/>
		</g>
		<rect x="209.4" y="275.2" class="st8" width="11.9" height="8.6"/>
		<g>
			<g>
				<rect x="206.7" y="271.6" class="st9" width="17.3" height="9"/>
				<path d="M217.4,272.4v0.8h-3.2v2h3v0.8h-3v2.6h3.2v0.8h-4v-7H217.4z"/>
			</g>
		</g>
	</g>
	<g>
		<polyline class="st7" points="212.8,51.6 214.9,54.8 214.9,20.6 		"/>
		<line class="st7" x1="217" y1="51.6" x2="214.9" y2="54.8"/>
		<polyline class="st3" points="217.7,22.7 214.9,20.6 212.4,22.8 		"/>
	</g>
	<g>
		<g>
			<rect x="209" y="30.1" class="st8" width="11.7" height="11.7"/>
		</g>
		<g>
			<g>
				<rect x="206.3" y="31.4" class="st9" width="17.1" height="17.1"/>
				<path d="M214.8,39.2h-1.9v-7h1.8c1.2,0,2.1,0.6,2.1,1.7c0,0.7-0.4,1.2-1.2,1.4c0.9,0.2,1.6,0.8,1.6,1.8
					C217.2,38.5,216.1,39.2,214.8,39.2z M213.7,32.9V35h0.9c0.7,0,1.2-0.4,1.2-1s-0.5-1-1.2-1H213.7z M214.8,38.4
					c0.9,0,1.5-0.5,1.5-1.3c0-0.9-0.6-1.3-1.5-1.3h-1v2.7H214.8z"/>
			</g>
		</g>
	</g>
	<g>
		<rect x="174.2" y="35.9" class="st8" width="8.8" height="11.7"/>
		<g>
			<g>
				<rect x="170.5" y="37.7" class="st9" width="17.1" height="17.1"/>
				<path d="M179.5,44.7c1,0,1.8-0.4,2.2-1v1.1c-0.6,0.5-1.2,0.8-2.2,0.8c-1.9,0-3.5-1.5-3.5-3.6s1.6-3.6,3.5-3.6
					c1,0,1.7,0.2,2.2,0.8v1.1c-0.5-0.6-1.3-1-2.2-1c-1.4,0-2.6,1.1-2.6,2.7S178.1,44.7,179.5,44.7z"/>
			</g>
		</g>
	</g>
	<g>
		<g>
			<path class="st7" d="M210.1,63.1l1.7,1.6c0,0-32.4,0.9-21.1,3.4c11.2,2.5,24.4,2.1,24.4,2.1s12.5,0.4,23.8-2.1
				c11.2-2.5-20.3-3.4-20.3-3.4l1.7-1.6"/>
		</g>
		<line class="st7" x1="220.5" y1="66.5" x2="217.7" y2="64.7"/>
		<line class="st7" x1="209.9" y1="66.5" x2="211.9" y2="64.7"/>
	</g>
	<rect x="208.1" y="68.1" class="st8" width="12.6" height="8.6"/>
	<g>
		<g>
			<rect x="245.4" y="63.4" class="st9" width="12" height="9"/>
		</g>
	</g>
	<g>
	</g>
	<g>
		<rect x="130.6" y="37.9" class="st8" width="8.4" height="11.7"/>
	</g>
	<g>
		<g>
			<rect x="206.2" y="67.1" class="st9" width="17.1" height="17.1"/>
			<path d="M212.1,74.9v-7h2.1c2,0,3.5,1.4,3.5,3.5s-1.5,3.5-3.5,3.5H212.1z M213,68.8v5.3h1.2c1.6,0,2.6-1,2.6-2.6
				s-1.1-2.6-2.6-2.6H213z"/>
		</g>
	</g>
	<g>
	</g>
	<g>
	</g>
	<g>
	</g>
	<g>
	</g>
	<g>
	</g>
	<g>
	</g>
</g>
</svg>
