<?xml version="1.0" encoding="utf-8"?>
<!-- Generator: Adobe Illustrator 24.0.1, SVG Export Plug-In . SVG Version: 6.00 Build 0)  -->
<svg version="1.1" id="Layer_1" xmlns="http://www.w3.org/2000/svg" xmlns:xlink="http://www.w3.org/1999/xlink" x="0px" y="0px"
	 viewBox="0 0 288 432" style="enable-background:new 0 0 288 432;" xml:space="preserve">
<style type="text/css">
	.st0{fill:none;stroke:#000000;stroke-miterlimit:10;}
	.st1{fill:none;stroke:#000000;stroke-width:0.25;stroke-miterlimit:10;stroke-dasharray:4,2;}
	.st2{fill:none;stroke:#000000;stroke-width:0.5;stroke-miterlimit:10;}
	.st3{fill:none;stroke:#000000;stroke-width:2;stroke-miterlimit:10;}
	.st4{fill:#FFFFFF;stroke:#000000;stroke-miterlimit:10;}
	.st5{fill:none;stroke:#000000;stroke-width:0.75;stroke-miterlimit:10;}
	.st6{fill:#FFFFFF;}
	.st7{fill:none;}
</style>
<g>
	<g>
		<path class="st0" d="M130.7,69.1c0,0,23.5-29,36.3-60.7l2.2,1.3c0,0-17.3,39.8-37.5,60.4L130.7,69.1z"/>
		<rect x="133.6" y="89.8" class="st1" width="32.4" height="3"/>
		<rect x="134.8" y="90.4" class="st2" width="0.8" height="1.7"/>
		<g>
			<path class="st3" d="M127,91.3c-1.5-0.4-2.2,2.7-2.4,5c-2,30.3-1.4,61.1,2,91.2c2.1,18.4,5.1,38,0.1,55.1"/>
			<path class="st0" d="M129.6,259c0,0-0.6,1.7-2.9,1.7c-2.4,0-2.9-1.7-2.9-1.7l2.8-16.4h0.8L129.6,259z"/>
			<path class="st0" d="M118.5,254.2c0,0-0.1,2.2,1.9,3.7c2.1,1.5,3.1,0.8,3.1,0.8l3.1-16.3l-0.4-0.4L118.5,254.2z"/>
		</g>
		<path class="st1" d="M162.1,23.9c0,0-1.1,50.7,16.6,58.5"/>
		<path class="st1" d="M100.2,23.9c0,0,1.1,50.7-16.6,58.5"/>
		<path class="st4" d="M133.6,70.5c0,0-21.6-24.3-38.9-61.8l-1.6,0.9c0,0,18.2,40.2,38.4,60.8H133.6z"/>
		
			<rect x="96.3" y="89.8" transform="matrix(-1 -4.190438e-11 4.190438e-11 -1 224.9854 182.5149)" class="st1" width="32.4" height="3"/>
		
			<rect x="126.8" y="90.4" transform="matrix(-1 -4.185020e-11 4.185020e-11 -1 254.3312 182.5149)" class="st2" width="0.8" height="1.7"/>
		<g>
			<path class="st3" d="M135.2,91.3c1.5-0.4,2.2,2.7,2.4,5c2,30.3,1.4,61.1-2,91.2c-2.1,18.4-5.1,38-0.1,55.1"/>
			<path class="st0" d="M132.6,259c0,0,0.6,1.7,2.9,1.7c2.4,0,2.9-1.7,2.9-1.7l-2.8-16.4h-0.8L132.6,259z"/>
			<path class="st0" d="M143.7,254.2c0,0,0.1,2.2-1.9,3.7c-2.1,1.5-3.1,0.8-3.1,0.8l-3.1-16.3l0.4-0.4L143.7,254.2z"/>
		</g>
		<path class="st1" d="M68.5,396.4c0,0,20.6-1.1,17.1,0.4c-3.5,1.5,12.1,1.4,17.7,0.4c1.5-0.3-4.4-0.8,6-2.6
			c8.7-1.5,16.5,1.6,17.6,3c1.7,2,6.8,2.7,8.5-0.1c0.9-1.5,8.7-3.3,17.5-2.9c8.2,0.4,4.9,2.3,6.3,2.7c3,0.8,20.8,1,17.3-0.5
			c-3.5-1.5,17.6-0.6,17.6-0.6"/>
		<line class="st2" x1="104.2" y1="397.8" x2="105.5" y2="276.8"/>
		<g>
			<path d="M124.9,398.9l-0.6-87.8l-0.2-43.9l0-22c0.1-7.3,0-14.6,0.3-22c-0.3,7.3-0.2,14.6-0.2,22l0.1,22l0.4,43.9l1.1,87.8
				L124.9,398.9z"/>
		</g>
		<g>
			<path d="M135.4,399.8l0.4-69.6l0-34.8c0-11.6,0-23.2-0.3-34.8c0.4,11.6,0.5,23.2,0.6,34.8l0.2,34.8l0.1,69.6L135.4,399.8z"/>
		</g>
		<line class="st0" x1="107.1" y1="398.8" x2="107.1" y2="397"/>
		<line class="st0" x1="155.4" y1="398.9" x2="155.4" y2="397.1"/>
		<path class="st0" d="M98.1,19.9c0,0,1.1,47.8-14.5,60L68.1,398.5c0,0,18.9-1.7,16,0c-2.9,1.7,27.4,1.2,22.3,0.2
			c-10.3-2,18.6-3.8,19.4,0.9c0.4,2.5,10,2.4,10.7,0c1.5-4.6,29.7-2.9,19.4-0.9c-5.1,1,25.2,1.6,22.3-0.2c-2.9-1.7,16,0,16,0
			L178.7,79.9c-15.6-12.3-14.5-60-14.5-60"/>
		<g>
			<path d="M83.6,398.4c2.3-35.8,4.6-71.7,6.8-107.5l3.1-53.8c1-17.9,2-35.9,2.6-53.8c-0.5,17.9-1.4,35.9-2.3,53.8l-2.9,53.8
				c-2,35.9-4.1,71.7-6.3,107.6L83.6,398.4z"/>
		</g>
		<g>
			<polygon points="157.9,398.2 153.7,216.3 158.9,398.1 			"/>
		</g>
		<g>
			<polygon points="177.7,398.5 167.1,183.3 178.7,398.4 			"/>
		</g>
		<polyline class="st1" points="182.1,168 180.9,168.6 182.3,210.6 184.2,209.9 		"/>
		<polyline class="st1" points="79.7,168 80.9,168.6 79.5,210.6 77.7,209.9 		"/>
	</g>
	<g>
		<line class="st5" x1="84.6" y1="39.7" x2="81.9" y2="42.6"/>
		<path class="st5" d="M84.2,51.2l-3.2-3.7c0,0-1.6,19.2-7.1,28.6s-5-24.7-4.3-31.8c0.7-7,5.3-31.1,9.7-34.3s2.2,32.1,2.2,32.1
			l-3.5-3.5"/>
		<line class="st5" x1="77.5" y1="49.6" x2="81.1" y2="47.5"/>
	</g>
	<line class="st5" x1="226.4" y1="14.5" x2="222.1" y2="8.5"/>
	<polyline class="st5" points="218.7,395.1 222.1,400.1 222.1,9 218.7,14.6 	"/>
	<line class="st5" x1="222.1" y1="401.4" x2="225.1" y2="394.9"/>
	<rect x="212" y="183.5" class="st6" width="20.2" height="18.8"/>
	<g>
		<g>
			<rect x="207.4" y="186.5" class="st7" width="29.5" height="27.5"/>
			<path d="M224.5,195.7h-4.9l-1.5,3.4h-1.6l5.6-11.8l5.6,11.8h-1.6L224.5,195.7z M220.3,194.4h3.7l-1.8-4L220.3,194.4z"/>
		</g>
	</g>
	<g>
		<g>
			<g>
				<path class="st5" d="M119.4,409.3l4.2,2.5c0,0-79.5,1.5-51.9,5.5s59.9,3.3,59.9,3.3s30.8,0.7,58.4-3.3s-49.9-5.5-49.9-5.5
					l4.2-2.6"/>
			</g>
			<line class="st5" x1="144.9" y1="414.7" x2="138.2" y2="411.8"/>
			<line class="st5" x1="119" y1="414.7" x2="123.8" y2="411.8"/>
		</g>
		<rect x="121.2" y="418.2" class="st6" width="20.2" height="13.8"/>
		<g>
			<g>
				<rect x="116.6" y="412.4" class="st7" width="29.5" height="14.4"/>
				<path d="M134.9,413.7v1.3h-5.4v3.2h5.1v1.3h-5.1v4.2h5.4v1.3H128v-11.2H134.9z"/>
			</g>
		</g>
	</g>
	<g>
		<polyline class="st5" points="127.7,59.4 131.3,64.6 131.3,9.6 		"/>
		<line class="st5" x1="134.9" y1="59.4" x2="131.3" y2="64.6"/>
		<polyline class="st0" points="136.1,13 131.3,9.6 127,13.2 		"/>
	</g>
	<g>
		<g>
			<rect x="121.1" y="24.8" class="st6" width="20.2" height="18.8"/>
		</g>
		<g>
			<g>
				<rect x="116.5" y="26.9" class="st7" width="29.5" height="27.5"/>
				<path d="M131.1,39.4h-3.3V28.2h3.1c2.2,0,3.6,0.9,3.6,2.8c0,1.2-0.8,1.9-2,2.3c1.6,0.3,2.7,1.2,2.7,2.8
					C135.2,38.3,133.4,39.4,131.1,39.4z M129.3,29.4v3.3h1.6c1.2,0,2.1-0.6,2.1-1.7s-0.9-1.7-2.1-1.7H129.3z M131.1,38.2
					c1.6,0,2.6-0.8,2.6-2.2s-1.1-2.1-2.6-2.1h-1.8v4.3H131.1z"/>
			</g>
		</g>
	</g>
	<g>
		<rect x="61.1" y="34.2" class="st6" width="15.1" height="18.8"/>
		<g>
			<g>
				<rect x="54.7" y="37" class="st7" width="29.5" height="27.5"/>
				<path d="M70.3,48.3c1.7,0,3-0.7,3.9-1.7v1.8c-1,0.8-2.1,1.2-3.9,1.2c-3.3,0-6-2.4-6-5.8s2.7-5.8,6-5.8c1.8,0,2.9,0.4,3.9,1.2
					v1.8c-0.8-1-2.2-1.7-3.9-1.7c-2.4,0-4.5,1.8-4.5,4.4C65.8,46.5,67.9,48.3,70.3,48.3z"/>
			</g>
		</g>
	</g>
	<g>
		<g>
			<path class="st5" d="M123,77.8l2.9,2.5c0,0-55.8,1.5-36.4,5.5c19.4,4,42,3.3,42,3.3s21.6,0.7,41-3.3c19.4-4-35-5.5-35-5.5
				l2.9-2.6"/>
		</g>
		<line class="st5" x1="140.9" y1="83.3" x2="136.2" y2="80.4"/>
		<line class="st5" x1="122.7" y1="83.3" x2="126.1" y2="80.4"/>
	</g>
	<rect x="119.6" y="85.9" class="st6" width="21.7" height="13.8"/>
	<g>
		<g>
			<rect x="183.9" y="78.3" class="st7" width="20.7" height="14.4"/>
		</g>
	</g>
	<g>
		<g>
			<rect x="116.2" y="84.3" class="st7" width="29.5" height="27.5"/>
			<path d="M126.5,96.8V85.6h3.6c3.5,0,6,2.3,6,5.6s-2.5,5.6-6,5.6H126.5z M128,86.9v8.5h2.2c2.7,0,4.6-1.6,4.6-4.3
				c0-2.6-1.8-4.3-4.6-4.3H128z"/>
		</g>
	</g>
</g>
<g>
</g>
<g>
</g>
<g>
</g>
<g>
</g>
<g>
</g>
<g>
</g>
</svg>
