<?xml version="1.0" encoding="utf-8"?>
<!-- Generator: Adobe Illustrator 24.0.1, SVG Export Plug-In . SVG Version: 6.00 Build 0)  -->
<svg version="1.1" xmlns="http://www.w3.org/2000/svg" xmlns:xlink="http://www.w3.org/1999/xlink" x="0px" y="0px"
	 viewBox="0 0 432 288" style="enable-background:new 0 0 432 288;" xml:space="preserve">
<style type="text/css">
	.st0{fill:none;stroke:#000000;stroke-width:0.25;stroke-miterlimit:10;stroke-dasharray:4,2;}
	.st1{fill:none;stroke:#000000;stroke-miterlimit:10;}
	.st2{fill:none;stroke:#000000;stroke-width:0.75;stroke-miterlimit:10;}
	.st3{fill:#FFFFFF;}
	.st4{fill:none;}
</style>
<g id="Layer_1">
	<g>
		<g>
			<path class="st0" d="M264.9,66.9c0,0-14.3,65.5,0.2,68"/>
		</g>
		<g>
			<path class="st0" d="M158.6,224.7c0,0,30.1,4.8,98.4-0.2"/>
			<g>
				<path class="st1" d="M161.4,60.8l-11.5,6.5c0,0,11,61.9,0,65.7c0,0,5.7,16.2,6.5,22.2c2.3,17.4,2.2,71.5,2.2,71.5
					s31.5,5.2,98.4,0c0,0,0.4-52.3,2.5-69.5c0.7-6.2,5.7-24.2,5.7-24.2c-11-3.8,1.8-65.4,1.8-65.4l-13.2-6.8"/>
				<path class="st0" d="M151.5,66.3c0,0,13.1,65.2-1.5,68.6"/>
			</g>
		</g>
		<path class="st1" d="M161.4,60.8c0,0,8.8,48.9,45.9,49.4c37.1,0.6,46.4-49.4,46.4-49.4"/>
		<path class="st0" d="M159.6,63.4c0,0,8,49.7,47.9,49.7c41,0,48.2-50.8,48.2-50.8"/>
	</g>
</g>
<g id="Layer_3">
	<polyline class="st2" points="205.5,107.3 208.4,110.2 208.4,60.8 	"/>
	<g>
		<path class="st2" d="M199,215.8l3.1,1.6c0,0-58.9,0.9-38.5,3.4s44.4,2.1,44.4,2.1s22.8,0.4,43.3-2.1s-37-3.4-37-3.4l3.1-1.6"/>
	</g>
	<polyline class="st2" points="165.8,58.4 162.3,60.8 252.9,60.8 	"/>
	<line class="st2" x1="166.5" y1="63.2" x2="162.3" y2="60.8"/>
	<polyline class="st2" points="249.5,58.9 253.2,60.8 249.8,62.8 	"/>
	<line class="st2" x1="278" y1="63.2" x2="276.2" y2="60.5"/>
	<polyline class="st2" points="274.2,226.8 276.2,229 276.2,60.8 274.2,63.2 	"/>
	<line class="st2" x1="276.2" y1="229.5" x2="277.9" y2="226.7"/>
	<line class="st2" x1="218.2" y1="219.1" x2="214.3" y2="217.3"/>
	<line class="st2" x1="199.2" y1="219.1" x2="202.1" y2="217.3"/>
	<line class="st2" x1="210.9" y1="107" x2="208.4" y2="110.2"/>
	<line class="st2" x1="150" y1="93.2" x2="149.1" y2="96.2"/>
	<path class="st2" d="M151.4,103.2l-2-2.5c0,0,1.8,17,0.5,26.3s-5.6-20.4-6.2-26.7c-0.6-6.3-1.7-28.1,0-31.9s5.3,27.5,5.3,27.5
		l-2.1-2.3"/>
	<line class="st2" x1="148.1" y1="103.2" x2="149.4" y2="100.6"/>
</g>
<g id="Layer_4">
	<rect x="303.5" y="85.4" class="st3" width="17" height="17"/>
	<rect x="295" y="69.4" class="st3" width="17" height="17"/>
	<rect x="203.6" y="81.2" class="st3" width="11.7" height="11.7"/>
	<rect x="180.7" y="54" class="st3" width="11.7" height="11.7"/>
	<rect x="270.3" y="138.4" class="st3" width="11.7" height="11.7"/>
	<rect x="134.9" y="93.9" class="st3" width="11.7" height="11.7"/>
	<g>
		<g>
			<rect x="267.6" y="139.6" class="st4" width="17.1" height="17.1"/>
			<path d="M277.6,145.3h-2.8l-0.9,2.1h-1l3.2-7.3l3.2,7.3h-1L277.6,145.3z M275.1,144.5h2.1l-1.1-2.5L275.1,144.5z"/>
		</g>
	</g>
	<g>
		<g>
			<rect x="178.1" y="55.5" class="st4" width="17.1" height="17.1"/>
			<path d="M186.5,63.3h-1.9v-7h1.8c1.2,0,2.1,0.6,2.1,1.7c0,0.7-0.4,1.2-1.2,1.4c0.9,0.2,1.6,0.8,1.6,1.8
				C188.9,62.6,187.9,63.3,186.5,63.3z M185.5,57v2.1h0.9c0.7,0,1.2-0.4,1.2-1s-0.5-1-1.2-1H185.5z M186.5,62.5
				c0.9,0,1.5-0.5,1.5-1.3c0-0.9-0.6-1.3-1.5-1.3h-1v2.7H186.5z"/>
		</g>
	</g>
	<g>
		<g>
			<rect x="134.2" y="95.9" class="st4" width="17.1" height="17.1"/>
			<path d="M140.2,103.7v-7h2.1c2,0,3.5,1.4,3.5,3.5s-1.5,3.5-3.5,3.5H140.2z M141.1,97.5v5.3h1.2c1.6,0,2.6-1,2.6-2.6
				s-1.1-2.6-2.6-2.6H141.1z"/>
		</g>
	</g>
	<g>
		<g>
			<rect x="199.3" y="83.2" class="st4" width="17.1" height="17.1"/>
			<path d="M208.3,90.2c1,0,1.8-0.4,2.2-1v1.1c-0.6,0.5-1.2,0.8-2.2,0.8c-1.9,0-3.5-1.5-3.5-3.6s1.6-3.6,3.5-3.6
				c1,0,1.7,0.2,2.2,0.8v1.1c-0.5-0.6-1.3-1-2.2-1c-1.4,0-2.6,1.1-2.6,2.7S206.9,90.2,208.3,90.2z"/>
		</g>
	</g>
	<rect x="201.9" y="213.2" class="st3" width="11.7" height="8.6"/>
	<g>
		<g>
			<rect x="198.9" y="212.2" class="st4" width="17.1" height="9"/>
			<path d="M209.5,213v0.8h-3.1v2h2.9v0.8h-2.9v2.6h3.1v0.8h-4v-7H209.5z"/>
		</g>
	</g>
	<polyline class="st1" points="211.3,63.9 208.4,60.8 205.9,64 	"/>
	<g>
	</g>
	<g>
	</g>
	<g>
	</g>
	<g>
	</g>
	<g>
	</g>
	<g>
	</g>
</g>
</svg>
