<?xml version="1.0" encoding="utf-8"?>
<!-- Generator: Adobe Illustrator 24.0.1, SVG Export Plug-In . SVG Version: 6.00 Build 0)  -->
<svg version="1.1" xmlns="http://www.w3.org/2000/svg" xmlns:xlink="http://www.w3.org/1999/xlink" x="0px" y="0px"
	 viewBox="0 0 288 432" style="enable-background:new 0 0 288 432;" xml:space="preserve">
<style type="text/css">
	.st0{fill:none;stroke:#000000;stroke-width:0.5;stroke-miterlimit:10;stroke-dasharray:4,2;}
	.st1{fill:none;stroke:#000000;stroke-miterlimit:10;}
	.st2{fill:none;stroke:#000000;stroke-width:0.5;stroke-miterlimit:10;}
	.st3{fill:none;stroke:#000000;stroke-width:2;stroke-miterlimit:10;}
	.st4{fill:none;stroke:#000000;stroke-width:0.75;stroke-miterlimit:10;}
	.st5{fill:#FFFFFF;}
	.st6{fill:none;}
	.st7{display:none;}
	.st8{display:inline;}
	.st9{display:inline;fill:#FFFFFF;}
	.st10{fill:none;stroke:#000000;stroke-width:0.25;stroke-miterlimit:10;stroke-dasharray:4,2;}
	.st11{fill:#FFFFFF;stroke:#000000;stroke-miterlimit:10;}
	.st12{fill:none;stroke:#010101;stroke-width:0.25;stroke-miterlimit:10;stroke-dasharray:4,2;}
	.st13{fill:none;stroke:#010101;stroke-miterlimit:10;}
	.st14{display:inline;fill:none;stroke:#010101;stroke-width:0.75;stroke-miterlimit:10;}
	.st15{fill:none;stroke:#010101;stroke-width:0.75;stroke-miterlimit:10;}
	.st16{fill:#010101;}
	.st17{display:inline;fill:none;stroke:#010101;stroke-miterlimit:10;}
</style>
<g id="Layer_4">
	<path class="st0" d="M130.1,376c0,0,42.2,3.4,76.4-4"/>
	<path class="st0" d="M130.6,376c0,0-42.2,3.4-76.4-4"/>
	<g>
		<g>
			<g>
				<g>
					<path d="M173.1,67.3c-0.2-1-0.4-2-0.9-2.9c0.6,0.8,1,1.8,1.4,2.8L173.1,67.3z"/>
				</g>
				<g>
					<path d="M171.8,68.7c0.2-1,0.1-2.1-0.2-3.1c0.4,1,0.7,2,0.6,3.1L171.8,68.7z"/>
				</g>
				<g>
					<path d="M168.2,68.9c0.3-1.1,0.2-2.3-0.2-3.3c0.6,1,0.9,2.2,0.7,3.4L168.2,68.9z"/>
				</g>
				<g>
					<path d="M165.3,67.9c0.1-0.4,0.2-0.7,0.2-1.1c0-0.4-0.1-0.7-0.3-1c0.3,0.2,0.5,0.6,0.6,1c0.1,0.4,0.1,0.8,0,1.2L165.3,67.9z"/>
				</g>
				<g>
					<path d="M163.1,69.8c-0.3-0.7-0.2-1.4-0.2-2c0-0.6,0-1.3-0.3-1.9c0.5,0.5,0.5,1.2,0.6,1.9c0.1,0.7,0.1,1.3,0.4,1.8L163.1,69.8z
						"/>
				</g>
				<g>
					<path d="M158.9,70c0.8-1,1.2-2.4,0.9-3.7c0.4,1.3,0.3,2.8-0.5,4L158.9,70z"/>
				</g>
				<g>
					<polygon points="157.1,69.4 156.8,66.1 157.6,69.3 					"/>
				</g>
				<g>
					<path d="M154.9,70.5c0.4-1.3,0.3-2.8-0.5-4.1c0.9,1.1,1.3,2.7,1,4.2L154.9,70.5z"/>
				</g>
				<g>
					<path d="M152.2,70.1c-0.7-1.4-1-2.9-0.9-4.4c0,1.5,0.5,3,1.3,4.2L152.2,70.1z"/>
				</g>
				<g>
					<path d="M149.2,70.2l0.1-1.4c0-0.2,0.1-0.5,0.1-0.7c0-0.2,0-0.5-0.3-0.6c0.3,0,0.4,0.3,0.4,0.6c0,0.3,0,0.5,0.1,0.7l0.1,1.4
						L149.2,70.2z"/>
				</g>
				<g>
					<path d="M145.8,70.7c0.9-1,1.3-2.6,0.7-4c0.7,1.3,0.6,3.1-0.4,4.4L145.8,70.7z"/>
				</g>
				<g>
					<path d="M143.7,71.3c-0.1-1.2,0-2.3,0.2-3.4c0,1.1,0.1,2.3,0.3,3.3L143.7,71.3z"/>
				</g>
				<g>
					<polygon points="140.3,71.6 140.5,68.3 140.8,71.6 					"/>
				</g>
				<g>
					<path d="M137.4,71.2c-0.2-1.1-0.2-2.2,0.1-3.2c-0.1,1.1,0,2.1,0.4,3.1L137.4,71.2z"/>
				</g>
				<g>
					<path d="M132.3,71.4c0.3-1.3,0.2-2.6-0.1-3.9c0.5,1.2,0.7,2.6,0.6,3.9L132.3,71.4z"/>
				</g>
				<g>
					<path d="M136.2,65.7c-0.1,1.3-0.5,2.7-1,3.9c0.4-1.3,0.5-2.6,0.5-3.9L136.2,65.7z"/>
				</g>
				<g>
					<polygon points="139.7,66 139.4,70.6 139.2,66 					"/>
				</g>
				<g>
					<path d="M144.3,65.8c0.7,1,1,2.2,1,3.4c-0.2-1.1-0.7-2.2-1.4-3.1L144.3,65.8z"/>
				</g>
				<g>
					<path d="M170.2,63.9c-0.2,1.4-0.2,2.9-0.1,4.4c-0.3-1.4-0.4-2.9-0.4-4.4L170.2,63.9z"/>
				</g>
				<g>
					<path d="M162.8,63.4c0.8,1.3,1.3,2.7,1.6,4.1c-0.5-1.4-1.1-2.7-2-3.8L162.8,63.4z"/>
				</g>
				<g>
					<polygon points="174.1,73.7 174.3,69.9 174.6,73.7 					"/>
				</g>
				<g>
					<path d="M172.7,68.8c0,1-0.1,2-0.3,3c0-1,0-2-0.2-2.9L172.7,68.8z"/>
				</g>
				<g>
					<path d="M170.4,74.5c-0.1-0.7,0-1.4,0.1-2c0.1-0.6,0.1-1.3-0.3-1.9c0.4,0.5,0.5,1.2,0.5,1.9c0,0.7,0,1.3,0.1,1.9L170.4,74.5z"
						/>
				</g>
				<g>
					<polygon points="168.1,69.3 168.3,72.1 167.6,69.4 					"/>
				</g>
				<g>
					<path d="M164.5,69.3c0.2,1.3,0.3,2.6,0.3,4c-0.2-1.3-0.5-2.6-0.8-3.9L164.5,69.3z"/>
				</g>
				<g>
					<path d="M162,74.9c-0.1-0.6,0-1.2,0.1-1.7c0.1-0.5,0-1.1-0.3-1.5c0.4,0.4,0.6,1,0.6,1.5c0,0.5,0,1.1,0.2,1.5L162,74.9z"/>
				</g>
				<g>
					<polygon points="162.2,69.1 163,71.3 161.7,69.3 					"/>
				</g>
				<g>
					<path d="M156.6,69.3c0.3,0.3,0.6,0.6,0.8,1c0.2,0.4,0.4,0.8,0.4,1.2c0,0.8,0,1.6,0,2.4c-0.1-0.8-0.1-1.6-0.2-2.4
						c-0.1-0.4-0.2-0.7-0.4-1c-0.2-0.3-0.5-0.5-0.8-0.8L156.6,69.3z"/>
				</g>
				<g>
					<polygon points="159.5,75.4 159.8,71.8 160,75.4 					"/>
				</g>
				<g>
					<path d="M153.5,69.8c0.2,1.1,0.3,2.2,0.1,3.3c0-1.1-0.2-2.2-0.6-3.2L153.5,69.8z"/>
				</g>
				<g>
					<polygon points="155.4,75.6 155.7,72.3 155.9,75.6 					"/>
				</g>
				<g>
					<path d="M151.4,70.7c0.1,1.6,0.2,3.2,0.1,4.8c-0.1-1.6-0.3-3.2-0.6-4.7L151.4,70.7z"/>
				</g>
				<g>
					<path d="M149.3,75.5c0.3-1.3,0.2-2.6-0.2-3.9c0.6,1.2,0.8,2.6,0.7,3.9L149.3,75.5z"/>
				</g>
				<g>
					<path d="M146.8,70.8c-0.2,2.1-0.3,4.3-0.3,6.4c-0.2-2.1-0.3-4.3-0.2-6.5L146.8,70.8z"/>
				</g>
				<g>
					<path d="M144,76.3c0-1-0.3-2.1-0.8-3.1c0.7,0.9,1.1,1.9,1.3,3L144,76.3z"/>
				</g>
				<g>
					<path d="M141.5,71.7c-0.2,1.1-0.2,2.2-0.1,3.3c-0.3-1.1-0.4-2.2-0.4-3.3L141.5,71.7z"/>
				</g>
				<g>
					<path d="M138.8,77.1c0.2-1.1,0.3-2.2,0-3.4c0.4,1.1,0.6,2.2,0.5,3.4L138.8,77.1z"/>
				</g>
				<g>
					<path d="M137.4,71.2c-0.2,1.5-0.2,3.1-0.1,4.6c-0.3-1.5-0.4-3.1-0.4-4.7L137.4,71.2z"/>
				</g>
				<g>
					<path d="M135.2,77.5c0.1-1.3-0.1-2.7-0.7-3.9c0.7,1.2,1.1,2.5,1.2,3.9L135.2,77.5z"/>
				</g>
				<g>
					<path d="M132.8,72.4c-0.2,1.2-0.2,2.4,0,3.6c-0.3-1.2-0.5-2.4-0.5-3.6L132.8,72.4z"/>
				</g>
				<g>
					<path d="M131.7,81.4c0-0.9,0.2-1.8,0.4-2.7c-0.1,0.9-0.1,1.8,0.1,2.6L131.7,81.4z"/>
				</g>
				<g>
					<polygon points="135.1,77.7 134.9,81.8 134.6,77.7 					"/>
				</g>
				<g>
					<path d="M137.3,82.5c0.3-1.1,0.3-2.3,0-3.5c0.5,1.1,0.7,2.3,0.5,3.6L137.3,82.5z"/>
				</g>
				<g>
					<path d="M139.7,77.7c-0.2,0.9-0.2,1.9,0.1,2.8c-0.5-0.9-0.7-1.9-0.6-2.9L139.7,77.7z"/>
				</g>
				<g>
					<polygon points="143.1,77.2 142.8,80.1 142.6,77.2 					"/>
				</g>
				<g>
					<path d="M147.4,80.5c0.3-0.9,0.2-2.1-0.3-3c0.7,0.8,1,2,0.8,3.1L147.4,80.5z"/>
				</g>
				<g>
					<polygon points="152.8,76.4 152.4,80.3 152.3,76.4 					"/>
				</g>
				<g>
					<path d="M156.3,76.5c-0.1,1-0.2,2.1-0.2,3.2c-0.2-1-0.3-2.1-0.3-3.2L156.3,76.5z"/>
				</g>
				<g>
					<path d="M161.1,75.8c-0.3,1.1-0.3,2.2,0,3.4c-0.5-1-0.7-2.3-0.5-3.4L161.1,75.8z"/>
				</g>
				<g>
					<path d="M164.9,75.2c-0.1,1.2-0.2,2.4-0.1,3.6c-0.2-1.2-0.3-2.4-0.4-3.6L164.9,75.2z"/>
				</g>
				<g>
					<polygon points="158.3,81 158.4,76.3 158.8,81 					"/>
				</g>
				<g>
					<path d="M150.6,82.3c-0.2-2-0.5-4-1-5.9c0.7,1.9,1.2,3.9,1.5,5.9L150.6,82.3z"/>
				</g>
				<g>
					<path d="M172,80.2c0.6-1.7,0.1-3.8-1.3-5.2c1.5,1.2,2.2,3.4,1.7,5.3L172,80.2z"/>
				</g>
				<g>
					<path d="M168.5,74.3c-0.5,1.6,0,3.4,1.1,4.7c-1.3-1.2-2-3-1.6-4.8L168.5,74.3z"/>
				</g>
				<g>
					<polygon points="174.7,73.6 174.4,76.9 174.2,73.6 					"/>
				</g>
				<g>
					<path d="M177.1,76.3c0.4-0.9,0.1-2.1-0.7-2.9c0.9,0.6,1.4,1.8,1.1,3L177.1,76.3z"/>
				</g>
				<g>
					<path d="M145,82.7l0.1-3.2c0-0.5,0.1-1.1,0-1.6c-0.1-0.5-0.5-1-1-1.1c0.5,0.1,0.9,0.6,1.1,1.1c0.1,0.5,0.1,1.1,0.1,1.6l0.1,3.2
						L145,82.7z"/>
				</g>
				<path class="st1" d="M165.6,80.9"/>
				<g>
					<path d="M165.1,80.7c0.3-1.5,0.5-3.1,0.6-4.6c0.1,1.6,0.1,3.1-0.1,4.7L165.1,80.7z"/>
				</g>
				<g>
					<path d="M162.2,80.8c0-1.1,0.1-2.3,0.3-3.4c0,1.1,0.1,2.3,0.2,3.4L162.2,80.8z"/>
				</g>
				<g>
					<path d="M165.7,74.3c0.2-1.3,0.3-2.6,0.3-3.9c0.1,1.3,0.2,2.6,0.2,3.9L165.7,74.3z"/>
				</g>
				<g>
					<path d="M155.4,64.7c-0.1,0.9,0.1,1.9,0.5,2.8c-0.6-0.8-1-1.8-1-2.8L155.4,64.7z"/>
				</g>
			</g>
		</g>
		<path class="st1" d="M130.6,65.4c-1.6-0.2-3.3-0.2-4.9,0.1c-0.4,0.1-0.9,0.2-1.3,0c-0.4-0.2-0.6-0.6-1.1-0.7c-1-0.4-1.9,1-2.9,0.8
			c-0.5-0.1-0.9-0.6-1.5-0.7c-1-0.3-2,0.9-3,0.8c-0.6-0.1-1.1-0.5-1.7-0.7c-1.3-0.5-2.7,0.6-4.1,0.5c-0.9-0.1-1.7-0.7-2.6-1
			c-0.9-0.3-2.1-0.2-2.5,0.6c-1.4-0.9-3.1-1-4.7-1.1c-1.9-0.1-3.7-0.2-5.6-0.3c-1.4-0.1-2.8-0.1-4.1-0.1c0.1-0.8-1.1-1.1-1.9-0.9
			c-0.8,0.2-2,0.3-2.2-0.5c-0.5,0.2-0.9,0.4-1.4,0.7c0.1,1.6-0.7,3-1.4,4.5c-1.4,3-2.5,6.1-3.2,9.3c0.8-0.1,1.6-0.2,2.4-0.4
			c0.2,0.6,0.5,1.2,0.7,1.8c1.7-0.2,3.9-0.1,4.3,1.5c1.1-0.8,2.6-0.5,3.8,0c1.2,0.5,2.4,1.3,3.7,1.4c1,0.1,2-0.3,3.1-0.4
			c2.4-0.1,4.9,1.3,7.2,0.7c1-0.2,2.1-0.8,2.8-0.1c0.3,0.3,0.4,0.7,0.8,0.9c1,0.6,2-1.4,3.2-1.2c0,1.2,1.4,1.9,2.6,1.8
			c1.2-0.1,2.3-0.7,3.4-0.9c1.6-0.3,3.2,0.3,4.9,0.5s3.5,0.1,4.6-1.2c0.1,0.8,1.2,1.4,1.9,0.9c0,0,2.3,0.1,2.4-0.7
			c1.1,1.2,2.9,1.4,4.6,1.2s3.3-0.8,4.9-0.5c1.2,0.2,2.3,0.8,3.4,0.9s2.6-0.6,2.6-1.8c1.2-0.2,2.2,1.8,3.2,1.2
			c0.3-0.2,0.5-0.6,0.8-0.9c0.7-0.7,1.9-0.1,2.8,0.1c2.4,0.6,4.8-0.9,7.2-0.7c1,0.1,2,0.4,3.1,0.4c1.3-0.1,2.5-0.8,3.7-1.4
			c1.2-0.5,2.7-0.8,3.8,0c0.4-1.6,2.6-1.8,4.3-1.5c0.2-0.6,0.5-1.2,0.7-1.8c0.8,0.1,1.6,0.2,2.4,0.4c-0.7-3.2-1.8-6.4-3.2-9.3
			c-0.7-1.5-1.5-2.9-1.4-4.5c-0.5-0.2-0.9-0.4-1.4-0.7c-0.2,0.8-1.4,0.7-2.2,0.5c-0.8-0.2-2,0-1.9,0.9c-1.4,0-2.8,0-4.1,0.1
			c-1.9,0.1-3.7,0.2-5.6,0.3c-1.6,0.1-3.4,0.2-4.7,1.1c-0.4-0.9-1.6-0.9-2.5-0.6c-0.9,0.3-1.7,0.9-2.6,1c-1.4,0.1-2.8-0.9-4.1-0.5
			c-0.6,0.2-1.1,0.7-1.7,0.7c-1.1,0.1-2-1-3-0.8c-0.5,0.1-0.9,0.6-1.5,0.7c-1,0.2-1.9-1.2-2.9-0.8c-0.4,0.2-0.7,0.6-1.1,0.7
			c-0.4,0.2-0.8,0.1-1.3,0c-1.6-0.3-3.3-0.3-4.9-0.1"/>
		<path class="st2" d="M83.9,67.7c0.4,0.5,1.2,0.1,1.7-0.2c0.5-0.3,1.3-0.6,1.7-0.1c0.2,0.4,0.1,1,0.5,1.2c0.4,0.2,0.8-0.3,1.3-0.5
			c1-0.5,2,1,3.1,1c1,0,2-1.2,3-0.8c0.7,0.3,1.1,1.4,1.8,1.1c0.4-0.2,0.5-0.8,0.9-0.9c0.2-0.1,0.4,0,0.6,0.1
			c1.2,0.5,2.3,1.9,3.5,1.4c0.6-0.2,1.1-0.8,1.7-0.7c0.4,0.1,0.6,0.5,1,0.7c1.3,0.7,3-1.1,4.1-0.3c0.5,0.4,0.8,1.2,1.4,1
			c0.4-0.1,0.5-0.5,0.8-0.7c0.6-0.6,1.7-0.2,2.4,0.3c0.7,0.5,1.4,1.2,2.3,1.1c0.8-0.1,1.5-1,2.3-0.9c0.6,0.1,1,0.7,1.5,0.9
			c1.3,0.5,2.9-1.3,4-0.5c0.2,0.2,0.4,0.4,0.6,0.5c0.6,0.3,1.3,0,1.9-0.2c0.6-0.2,1.5-0.2,1.7,0.5c0.7-0.4,2.4-0.4,2.4-0.4
			c0.8,0,1.6,0.2,2.4,0.6c0.1-0.6,1.1-0.7,1.7-0.5c0.6,0.2,1.3,0.6,1.9,0.2c0.2-0.1,0.4-0.4,0.6-0.5c1.2-0.8,2.7,1,4,0.5
			c0.6-0.2,0.9-0.8,1.5-0.9c0.8-0.1,1.5,0.7,2.3,0.9c0.9,0.1,1.6-0.5,2.3-1.1s1.7-0.9,2.4-0.3c0.3,0.3,0.4,0.7,0.8,0.7
			c0.6,0.1,0.9-0.7,1.4-1c1.1-0.9,2.8,1,4.1,0.3c0.4-0.2,0.6-0.6,1-0.7c0.6-0.1,1.1,0.5,1.7,0.7c1.2,0.4,2.3-0.9,3.5-1.4
			c0.2-0.1,0.4-0.1,0.6-0.1c0.4,0.1,0.5,0.8,0.9,0.9c0.7,0.3,1.1-0.8,1.8-1.1c1-0.4,1.9,0.8,3,0.8c1.1,0,2.1-1.5,3.1-1
			c0.4,0.2,0.9,0.8,1.3,0.5c0.4-0.2,0.2-0.8,0.5-1.2c0.3-0.5,1.2-0.3,1.7,0.1c0.5,0.3,1.3,0.7,1.7,0.2"/>
		<path class="st2" d="M81.2,72.9c1.2-0.8,2.8-0.7,3.9,0.2c0.3,0.2,0.6,0.5,0.9,0.6c0.7,0.2,1.5-0.4,2.2-0.2c0.7,0.2,1.2,1.1,1.9,1
			c0.5,0,0.9-0.5,1.4-0.7c1.3-0.5,2.4,1.2,3.8,1.3c1.1,0.1,2.4-0.8,3.3-0.2c0.3,0.2,0.6,0.5,1,0.6c0.5,0.1,1-0.3,1.6-0.3
			c1.1-0.1,1.9,1.4,2.9,1.1c0.6-0.2,1.1-1,1.7-0.9c0.2,0,0.4,0.2,0.7,0.3c1.5,0.9,3.5-0.8,5.2-0.2c0.8,0.3,1.4,1.1,2.2,1.1
			c0.6,0,1.2-0.5,1.8-0.5c0.8,0,1.4,0.8,2.2,0.8c0.7,0,1.3-0.6,1.9-0.5c0.5,0.1,0.8,0.5,1.3,0.7c0.7,0.3,1.4,0,2.1-0.1
			c0.7-0.2,1.6-0.1,2,0.5c0,0.1,0.1,0.2,0.2,0.3c0.2,0.1,0.4,0,0.6-0.1c1.2-0.6,4.5,0,4.5,0c1.2-0.5,2.7-0.4,3.9,0.2
			c0.2,0.1,0.4,0.2,0.6,0.1c0.1-0.1,0.1-0.2,0.2-0.3c0.4-0.6,1.2-0.7,2-0.5c0.7,0.2,1.5,0.4,2.1,0.1c0.4-0.2,0.8-0.6,1.3-0.7
			c0.7-0.1,1.3,0.5,1.9,0.5c0.8,0,1.4-0.8,2.2-0.8c0.6,0,1.2,0.5,1.8,0.5c0.8,0,1.5-0.8,2.2-1.1c1.6-0.6,3.6,1.1,5.2,0.2
			c0.2-0.1,0.4-0.3,0.7-0.3c0.7-0.1,1.1,0.7,1.7,0.9c1,0.3,1.8-1.2,2.9-1.1c0.5,0,1.1,0.5,1.6,0.3c0.4-0.1,0.6-0.4,1-0.6
			c1-0.6,2.2,0.3,3.3,0.2c1.4-0.2,2.5-1.9,3.8-1.3c0.5,0.2,0.8,0.7,1.4,0.7c0.7,0,1.2-0.9,1.9-1c0.7-0.2,1.5,0.4,2.2,0.2
			c0.4-0.1,0.6-0.4,0.9-0.6c1.1-0.9,2.7-1,3.9-0.2"/>
		<g>
			<g>
				<path d="M86.6,67c0.3-1,0.8-1.9,1.4-2.8c-0.4,0.9-0.7,1.9-0.9,2.9L86.6,67z"/>
			</g>
			<g>
				<path d="M87.9,68.6c0-1.1,0.2-2.2,0.6-3.1c-0.3,1-0.3,2.1-0.2,3.1L87.9,68.6z"/>
			</g>
			<g>
				<path d="M91.6,68.8c-0.1-1.2,0.1-2.4,0.7-3.4c-0.4,1.1-0.5,2.3-0.2,3.3L91.6,68.8z"/>
			</g>
			<g>
				<path d="M94.4,67.8c0-0.4,0-0.8,0-1.2c0.1-0.4,0.2-0.8,0.6-1c-0.3,0.3-0.3,0.7-0.3,1c0,0.4,0.1,0.7,0.2,1.1L94.4,67.8z"/>
			</g>
			<g>
				<path d="M96.7,69.4c0.3-0.5,0.3-1.2,0.4-1.8c0.1-0.6,0.1-1.4,0.6-1.9c-0.4,0.6-0.4,1.2-0.3,1.9c0,0.6,0.1,1.3-0.2,2L96.7,69.4z"
					/>
			</g>
			<g>
				<path d="M100.9,70.1c-0.8-1.2-0.9-2.7-0.5-4c-0.3,1.3,0.1,2.7,0.9,3.7L100.9,70.1z"/>
			</g>
			<g>
				<polygon points="102.6,69.2 103.4,65.9 103.1,69.2 				"/>
			</g>
			<g>
				<path d="M104.8,70.5c-0.3-1.5,0.1-3.1,1-4.2c-0.8,1.2-0.9,2.8-0.5,4.1L104.8,70.5z"/>
			</g>
			<g>
				<path d="M107.6,69.7c0.8-1.2,1.3-2.7,1.3-4.2c0.2,1.5-0.1,3.1-0.9,4.4L107.6,69.7z"/>
			</g>
			<g>
				<path d="M110.5,70l0.1-1.4c0-0.2,0-0.5,0.1-0.7c0-0.2,0.1-0.5,0.4-0.6c-0.2,0.1-0.3,0.4-0.3,0.6c0,0.2,0,0.5,0.1,0.7L111,70
					L110.5,70z"/>
			</g>
			<g>
				<path d="M114,70.9c-0.9-1.3-1-3-0.4-4.4c-0.5,1.4-0.2,3,0.7,4L114,70.9z"/>
			</g>
			<g>
				<path d="M116,71c0.2-1.1,0.3-2.2,0.3-3.3c0.2,1.1,0.3,2.3,0.2,3.4L116,71z"/>
			</g>
			<g>
				<polygon points="119.4,71.4 119.7,68.1 119.9,71.4 				"/>
			</g>
			<g>
				<path d="M122.4,70.9c0.3-1,0.5-2,0.4-3.1c0.3,1,0.3,2.1,0.1,3.2L122.4,70.9z"/>
			</g>
			<g>
				<path d="M127.4,71.3c-0.1-1.4,0.1-2.7,0.6-3.9c-0.3,1.3-0.4,2.6-0.1,3.9L127.4,71.3z"/>
			</g>
			<g>
				<path d="M124.5,65.5c0,1.3,0.1,2.6,0.5,3.9c-0.5-1.2-0.9-2.5-1-3.9L124.5,65.5z"/>
			</g>
			<g>
				<polygon points="121,65.8 120.8,70.4 120.5,65.8 				"/>
			</g>
			<g>
				<path d="M116.3,65.9c-0.7,0.8-1.2,1.9-1.4,3.1c0-1.2,0.4-2.3,1-3.4L116.3,65.9z"/>
			</g>
			<g>
				<path d="M90.5,63.7c0,1.5-0.1,3-0.4,4.4c0.1-1.5,0.1-2.9-0.1-4.4L90.5,63.7z"/>
			</g>
			<g>
				<path d="M97.9,63.5c-0.9,1.1-1.5,2.4-2,3.8c0.3-1.4,0.8-2.8,1.6-4.1L97.9,63.5z"/>
			</g>
			<g>
				<polygon points="85.6,73.5 85.9,69.7 86.1,73.5 				"/>
			</g>
			<g>
				<path d="M88,68.7c-0.1,1-0.2,2-0.2,2.9c-0.2-1-0.3-2-0.3-3L88,68.7z"/>
			</g>
			<g>
				<path d="M89.3,74.2c0.1-0.6,0.1-1.3,0.1-1.9c0-0.7,0.1-1.4,0.5-1.9c-0.3,0.6-0.3,1.3-0.3,1.9c0.1,0.6,0.2,1.3,0.1,2L89.3,74.2z"
					/>
			</g>
			<g>
				<polygon points="92.6,69.2 91.9,71.9 92.1,69.1 				"/>
			</g>
			<g>
				<path d="M96.2,69.2c-0.4,1.3-0.6,2.5-0.8,3.9c0-1.3,0.1-2.6,0.3-4L96.2,69.2z"/>
			</g>
			<g>
				<path d="M97.7,74.6c0.2-0.4,0.1-1,0.2-1.5c0-0.5,0.1-1.2,0.6-1.5c-0.4,0.4-0.4,1-0.3,1.5c0.1,0.5,0.2,1.1,0.1,1.7L97.7,74.6z"/>
			</g>
			<g>
				<polygon points="98.5,69.2 97.2,71.1 98.1,68.9 				"/>
			</g>
			<g>
				<path d="M103.9,69.5c-0.3,0.3-0.6,0.5-0.8,0.8c-0.2,0.3-0.4,0.6-0.4,1c-0.1,0.8-0.2,1.6-0.2,2.4c0-0.8,0-1.6,0-2.4
					c0-0.4,0.1-0.8,0.4-1.2c0.2-0.4,0.5-0.7,0.8-1L103.9,69.5z"/>
			</g>
			<g>
				<polygon points="100.2,75.2 100.4,71.6 100.7,75.2 				"/>
			</g>
			<g>
				<path d="M107.2,69.8c-0.4,1-0.6,2.1-0.6,3.2c-0.2-1.1-0.1-2.2,0.1-3.3L107.2,69.8z"/>
			</g>
			<g>
				<polygon points="104.3,75.4 104.5,72.1 104.8,75.4 				"/>
			</g>
			<g>
				<path d="M109.3,70.6c-0.3,1.5-0.5,3.1-0.6,4.7c-0.1-1.6,0-3.2,0.1-4.8L109.3,70.6z"/>
			</g>
			<g>
				<path d="M110.4,75.4c-0.1-1.4,0.1-2.7,0.7-3.9c-0.4,1.3-0.5,2.6-0.2,3.9L110.4,75.4z"/>
			</g>
			<g>
				<path d="M114,70.6c0,2.2,0,4.3-0.2,6.5c0-2.1-0.1-4.3-0.3-6.4L114,70.6z"/>
			</g>
			<g>
				<path d="M115.7,76.1c0.2-1.1,0.6-2.1,1.3-3c-0.5,1-0.8,2-0.8,3.1L115.7,76.1z"/>
			</g>
			<g>
				<path d="M119.2,71.5c0,1.1-0.1,2.2-0.4,3.3c0.1-1.1,0.1-2.2-0.1-3.3L119.2,71.5z"/>
			</g>
			<g>
				<path d="M120.9,77c-0.1-1.2,0.1-2.3,0.5-3.4c-0.2,1.1-0.2,2.3,0,3.4L120.9,77z"/>
			</g>
			<g>
				<path d="M123.3,71c0,1.6-0.1,3.1-0.4,4.7c0.1-1.6,0.1-3.1-0.1-4.6L123.3,71z"/>
			</g>
			<g>
				<path d="M124.5,77.3c0.1-1.4,0.5-2.8,1.2-3.9c-0.6,1.2-0.8,2.6-0.7,3.9L124.5,77.3z"/>
			</g>
			<g>
				<path d="M127.9,72.2c0,1.2-0.1,2.5-0.5,3.6c0.2-1.2,0.2-2.4,0-3.6L127.9,72.2z"/>
			</g>
			<g>
				<path d="M128,81.2c0.2-0.9,0.2-1.7,0.1-2.6c0.3,0.8,0.4,1.7,0.4,2.7L128,81.2z"/>
			</g>
			<g>
				<polygon points="125.6,77.5 125.3,81.6 125.1,77.5 				"/>
			</g>
			<g>
				<path d="M122.4,82.4c-0.2-1.2,0-2.5,0.5-3.6c-0.3,1.1-0.3,2.4,0,3.5L122.4,82.4z"/>
			</g>
			<g>
				<path d="M121,77.5c0.1,1-0.2,2-0.6,2.9c0.3-0.9,0.4-1.9,0.1-2.8L121,77.5z"/>
			</g>
			<g>
				<polygon points="117.7,77 117.4,79.9 117.2,77 				"/>
			</g>
			<g>
				<path d="M112.4,80.4c-0.2-1.1,0.1-2.3,0.8-3.1c-0.5,0.9-0.6,2.1-0.3,3L112.4,80.4z"/>
			</g>
			<g>
				<polygon points="107.9,76.2 107.8,80.2 107.4,76.3 				"/>
			</g>
			<g>
				<path d="M104.4,76.3c0,1.1-0.1,2.1-0.3,3.2c0-1.1,0-2.1-0.2-3.2L104.4,76.3z"/>
			</g>
			<g>
				<path d="M99.6,75.6c0.2,1.2,0,2.4-0.5,3.4c0.3-1.1,0.3-2.3,0-3.4L99.6,75.6z"/>
			</g>
			<g>
				<path d="M95.8,75c0,1.2-0.2,2.4-0.4,3.6c0-1.2,0-2.4-0.1-3.6L95.8,75z"/>
			</g>
			<g>
				<polygon points="101.4,80.8 101.8,76.1 101.9,80.8 				"/>
			</g>
			<g>
				<path d="M109.1,82c0.4-2,0.9-4,1.5-5.9c-0.5,2-0.9,3.9-1,5.9L109.1,82z"/>
			</g>
			<g>
				<path d="M87.7,80.2c-0.5-2,0.3-4.1,1.7-5.3c-1.4,1.3-1.8,3.5-1.3,5.2L87.7,80.2z"/>
			</g>
			<g>
				<path d="M92.2,74c0.3,1.8-0.3,3.7-1.6,4.8c1.2-1.3,1.6-3.1,1.1-4.7L92.2,74z"/>
			</g>
			<g>
				<polygon points="86,73.4 85.8,76.8 85.5,73.4 				"/>
			</g>
			<g>
				<path d="M82.6,76.3c-0.3-1.2,0.2-2.4,1.1-3c-0.8,0.8-1,2-0.7,2.9L82.6,76.3z"/>
			</g>
			<g>
				<path d="M114.7,82.6l0.1-3.2c0-0.5,0-1.1,0.1-1.6c0.1-0.5,0.6-1,1.1-1.1c-0.5,0.2-0.9,0.6-1,1.1c-0.1,0.5,0,1,0,1.6l0.1,3.2
					L114.7,82.6z"/>
			</g>
			<path class="st1" d="M94.6,80.7"/>
			<g>
				<path d="M94.6,80.6c-0.1-1.6-0.2-3.1-0.1-4.7c0.1,1.6,0.3,3.1,0.6,4.6L94.6,80.6z"/>
			</g>
			<g>
				<path d="M97.5,80.6c0.1-1.1,0.2-2.2,0.2-3.4c0.2,1.1,0.3,2.2,0.3,3.4L97.5,80.6z"/>
			</g>
			<g>
				<path d="M94.1,74.2c0-1.3,0-2.6,0.2-3.9c0,1.3,0.1,2.6,0.3,3.9L94.1,74.2z"/>
			</g>
			<g>
				<path d="M105.4,64.5c-0.1,1-0.4,2-1,2.8c0.4-0.9,0.6-1.9,0.5-2.8L105.4,64.5z"/>
			</g>
		</g>
	</g>
	<path class="st1" d="M179.7,76.7c0,0,14.9,80.3,16.9,113.9s9.9,185.8,9.9,185.8s-29.4,8.3-76.4,3.6V148.9"/>
	<polyline class="st0" points="182.8,87.9 178.2,89.3 187.8,154 192.8,153.1 	"/>
	<path class="st1" d="M80.9,76.7c0,0-14.9,80.3-16.9,113.9c-2,33.6-9.9,185.8-9.9,185.8s29.4,8.3,76.4,3.6V148.9l-0.7-66.9"/>
	<polyline class="st0" points="77.9,87.9 82.5,89.3 72.9,154 67.8,153.1 	"/>
	<g>
		<path class="st3" d="M139.7,153.5c1.4-3.9-0.1-8.1-1.2-12c-3.1-11.8-1.9-24.3-2.3-36.5c-0.3-8.2-1.3-16.5-3.2-24.5
			c-0.6-2.7-1.3-5.4-2.7-7.7c-0.5,7.6-1.3,15.7-1.7,23.3c-0.2,3.8-0.5,7.5-0.6,11.3c-0.1,3.6-2.7,42.7-3.8,46.2"/>
		<path class="st1" d="M141.9,169c0,0-3,0.3-4,0.1c-1-0.1-3.8-1.1-3.8-1.1l4.9-14.5l1.2,0.1L141.9,169z"/>
		<path class="st1" d="M118.3,168c0,0,2.8,1,3.8,1.1c1,0.1,4-0.1,4-0.1l-1.1-15.3l-1.2-0.2L118.3,168z"/>
	</g>
</g>
<g id="Layer_1">
	<g>
		<g>
			<path class="st4" d="M120.7,40.3l2.9,2.5c0,0-55.8,1.5-36.4,5.5s42,3.3,42,3.3s21.6,0.7,41-3.3s-35-5.5-35-5.5l2.9-2.6"/>
		</g>
		<line class="st4" x1="139.5" y1="45.9" x2="134.8" y2="43"/>
	</g>
	<line class="st4" x1="120.5" y1="45.7" x2="123.9" y2="42.8"/>
	<g>
		<line class="st4" x1="225.4" y1="66.9" x2="221.9" y2="62"/>
		<polyline class="st4" points="218.2,374.1 221.9,379.4 221.9,62.2 219.1,66.7 		"/>
		<line class="st4" x1="221.9" y1="379.4" x2="224.4" y2="374.1"/>
	</g>
	<g>
		<rect x="211.7" y="193.3" class="st5" width="20.2" height="18.8"/>
		<g>
			<g>
				<rect x="207.1" y="195.8" class="st6" width="29.5" height="27.5"/>
				<path d="M224.3,204.9h-4.9l-1.5,3.4h-1.6l5.6-11.8l5.6,11.8h-1.6L224.3,204.9z M220,203.7h3.7l-1.8-4L220,203.7z"/>
			</g>
		</g>
	</g>
	<g>
		<g>
			<path class="st4" d="M83.7,384.7l2.6,2.5c0,0-48.7,1.5-31.8,5.5c16.9,4,36.7,3.3,36.7,3.3s18.9,0.7,35.8-3.3
				c16.9-4-30.6-5.5-30.6-5.5l2.6-2.6"/>
		</g>
		<line class="st4" x1="100" y1="390.3" x2="95.9" y2="387.4"/>
		<line class="st4" x1="83.5" y1="390.1" x2="86.4" y2="387.2"/>
	</g>
	<g>
		<polyline class="st4" points="113.1,143.5 116.2,149.6 116.2,85.7 		"/>
		<line class="st4" x1="119.4" y1="143.5" x2="116.2" y2="149.6"/>
		<polyline class="st1" points="120.4,89.6 116.2,85.7 112.4,89.8 		"/>
	</g>
	<g>
		<g>
			<rect x="119.2" y="46.2" class="st5" width="20.2" height="15.8"/>
		</g>
		<g>
			<g>
				<rect x="114.5" y="48.3" class="st6" width="29.5" height="27.5"/>
				<path d="M129.1,60.8h-3.3V49.6h3.1c2.2,0,3.6,0.9,3.6,2.8c0,1.2-0.8,1.9-2,2.3c1.6,0.3,2.7,1.2,2.7,2.8
					C133.2,59.7,131.5,60.8,129.1,60.8z M127.3,50.8v3.3h1.6c1.2,0,2.1-0.6,2.1-1.7s-0.9-1.7-2.1-1.7H127.3z M129.1,59.6
					c1.6,0,2.6-0.8,2.6-2.2s-1.1-2.1-2.6-2.1h-1.8v4.3H129.1z"/>
			</g>
		</g>
	</g>
	<g>
		<rect x="107.6" y="105.8" class="st5" width="15.1" height="18.8"/>
		<g>
			<g>
				<rect x="101.2" y="108.7" class="st6" width="29.5" height="27.5"/>
				<path d="M116.8,120c1.7,0,3-0.7,3.9-1.7v1.8c-1,0.8-2.1,1.2-3.9,1.2c-3.3,0-6-2.4-6-5.8s2.7-5.8,6-5.8c1.8,0,2.9,0.4,3.9,1.2
					v1.8c-0.8-1-2.2-1.7-3.9-1.7c-2.4,0-4.5,1.8-4.5,4.4C112.3,118.2,114.4,120,116.8,120z"/>
			</g>
		</g>
	</g>
	<g>
		<g>
			<rect x="169.9" y="78.3" class="st6" width="20.7" height="14.4"/>
		</g>
	</g>
	<rect x="82.1" y="390.5" class="st5" width="20.2" height="13.8"/>
	<g>
		<g>
			<rect x="77.6" y="390.8" class="st6" width="29.5" height="27.5"/>
			<path d="M87.9,403.3v-11.2h3.6c3.5,0,6,2.3,6,5.6c0,3.4-2.5,5.6-6,5.6H87.9z M89.4,393.5v8.5h2.2c2.7,0,4.6-1.6,4.6-4.3
				c0-2.6-1.8-4.3-4.6-4.3H89.4z"/>
		</g>
	</g>
</g>
<g id="Layer_5" class="st7">
	<g class="st8">
		<line class="st4" x1="82.3" y1="31.8" x2="79.6" y2="34.7"/>
		<path class="st4" d="M82,43.3l-3.2-3.7c0,0-1.6,19.2-7.1,28.6s-5-24.7-4.3-31.8s5.3-31.1,9.7-34.3s2.2,32.1,2.2,32.1l-3.5-3.5"/>
		<line class="st4" x1="75.3" y1="41.7" x2="78.9" y2="39.6"/>
	</g>
	<rect x="271.4" y="253.2" class="st9" width="20.2" height="13.8"/>
	<g class="st8">
		<g>
			<rect x="265.5" y="252.9" class="st6" width="29.5" height="14.4"/>
			<path d="M283.8,254.2v1.3h-5.4v3.2h5.1v1.3h-5.1v4.2h5.4v1.3h-6.9v-11.2H283.8z"/>
		</g>
	</g>
</g>
<g id="Layer_3" class="st7">
	<g class="st8">
		<path class="st1" d="M185.9,63.2c0,0,23.5-29,36.3-60.7l2.2,1.3c0,0-17.3,39.8-37.5,60.4L185.9,63.2z"/>
		<rect x="188.8" y="83.9" class="st10" width="32.4" height="3"/>
		<rect x="190" y="84.5" class="st2" width="0.8" height="1.7"/>
		<g>
			<path class="st3" d="M182.2,85.4c-1.5-0.4-2.2,2.7-2.4,5c-2,30.3-1.4,61.1,2,91.2c2.1,18.4,5.1,38,0.1,55.1"/>
			<path class="st1" d="M184.8,253.1c0,0-0.6,1.7-2.9,1.7c-2.4,0-2.9-1.7-2.9-1.7l2.8-16.4h0.8L184.8,253.1z"/>
			<path class="st1" d="M173.7,248.4c0,0-0.1,2.2,1.9,3.7c2.1,1.5,3.1,0.8,3.1,0.8l3.1-16.3l-0.4-0.4L173.7,248.4z"/>
		</g>
		<path class="st10" d="M217.4,18.1c0,0-1.1,50.7,16.6,58.5"/>
		<path class="st10" d="M155.4,18.1c0,0,1.1,50.7-16.6,58.5"/>
		<path class="st11" d="M188.8,64.6c0,0-21.6-24.3-38.9-61.8l-1.6,0.9c0,0,18.2,40.2,38.4,60.8H188.8z"/>
		
			<rect x="151.5" y="83.9" transform="matrix(-1 -4.190438e-11 4.190438e-11 -1 335.4333 170.8056)" class="st10" width="32.4" height="3"/>
		
			<rect x="182" y="84.5" transform="matrix(-1 -4.185020e-11 4.185020e-11 -1 364.7791 170.8056)" class="st2" width="0.8" height="1.7"/>
		<g>
			<path class="st3" d="M190.4,85.4c1.5-0.4,2.2,2.7,2.4,5c2,30.3,1.4,61.1-2,91.2c-2.1,18.4-5.1,38-0.1,55.1"/>
			<path class="st1" d="M187.8,253.1c0,0,0.6,1.7,2.9,1.7c2.4,0,2.9-1.7,2.9-1.7l-2.8-16.4h-0.8L187.8,253.1z"/>
			<path class="st1" d="M198.9,248.4c0,0,0.1,2.2-1.9,3.7c-2.1,1.5-3.1,0.8-3.1,0.8l-3.1-16.3l0.4-0.4L198.9,248.4z"/>
		</g>
		<path class="st10" d="M123.7,390.6c0,0,20.6-1.1,17.1,0.4c-3.5,1.5,12.1,1.4,17.7,0.4c1.5-0.3-4.4-0.8,6-2.6
			c8.7-1.5,16.5,1.6,17.6,3c1.7,2,6.8,2.7,8.5-0.1c0.9-1.5,8.7-3.3,17.5-2.9c8.2,0.4,4.9,2.3,6.3,2.7c3,0.8,20.8,1,17.3-0.5
			c-3.5-1.5,17.6-0.6,17.6-0.6"/>
		<line class="st2" x1="159.4" y1="392" x2="160.8" y2="270.9"/>
		<g>
			<path d="M180.1,393l-0.6-87.8l-0.2-43.9l0-22c0.1-7.3,0-14.6,0.3-22c-0.3,7.3-0.2,14.6-0.2,22l0.1,22l0.4,43.9l1.1,87.8
				L180.1,393z"/>
		</g>
		<g>
			<path d="M190.6,394l0.4-69.6l0-34.8c0-11.6,0-23.2-0.3-34.8c0.4,11.6,0.5,23.2,0.6,34.8l0.2,34.8l0.1,69.6L190.6,394z"/>
		</g>
		<line class="st1" x1="162.3" y1="393" x2="162.3" y2="391.2"/>
		<line class="st1" x1="210.6" y1="393" x2="210.6" y2="391.3"/>
		<path class="st1" d="M153.3,14c0,0,1.1,47.8-14.5,60l-15.6,318.5c0,0,18.9-1.7,16,0c-2.9,1.7,27.4,1.2,22.3,0.2
			c-10.3-2,18.6-3.8,19.4,0.9c0.4,2.5,10,2.4,10.7,0c1.5-4.6,29.7-2.9,19.4-0.9c-5.1,1,25.2,1.6,22.3-0.2c-2.9-1.7,16,0,16,0
			L233.9,74.1c-15.6-12.3-14.5-60-14.5-60"/>
		<g>
			<path d="M138.8,392.6c2.3-35.8,4.6-71.7,6.8-107.5l3.1-53.8c1-17.9,2-35.9,2.6-53.8c-0.5,17.9-1.4,35.9-2.3,53.8l-2.9,53.8
				c-2,35.9-4.1,71.7-6.3,107.6L138.8,392.6z"/>
		</g>
		<g>
			<polygon points="213.1,392.3 208.9,210.5 214.1,392.3 			"/>
		</g>
		<g>
			<polygon points="233,392.6 222.3,177.5 234,392.6 			"/>
		</g>
		<polyline class="st10" points="237.3,162.1 236.1,162.7 237.6,204.8 239.4,204.1 		"/>
		<polyline class="st10" points="134.9,162.1 136.1,162.7 134.7,204.8 132.9,204.1 		"/>
	</g>
</g>
<g id="Layer_2" class="st7">
	<g id="Layer_1_1_" class="st8">
		<g>
			<g>
				<path class="st12" d="M199.1,139.5c0,0-14.3,65.5,0.2,68"/>
			</g>
			<g>
				<path class="st12" d="M92.8,297.3c0,0,30.1,4.8,98.4-0.2"/>
				<g>
					<path class="st13" d="M95.6,133.4l-11.5,6.5c0,0,11,61.9,0,65.7c0,0,5.7,16.2,6.5,22.2c2.3,17.4,2.2,71.5,2.2,71.5
						s31.5,5.2,98.4,0c0,0,0.4-52.3,2.5-69.5c0.7-6.2,5.7-24.2,5.7-24.2c-11-3.8,1.8-65.4,1.8-65.4l-13.2-6.8"/>
					<path class="st12" d="M85.7,138.9c0,0,13.1,65.2-1.5,68.6"/>
				</g>
			</g>
			<path class="st13" d="M95.6,133.4c0,0,8.8,48.9,45.9,49.4c37.1,0.6,46.4-49.4,46.4-49.4"/>
			<path class="st12" d="M93.8,136c0,0,8,49.7,47.9,49.7c41,0,48.2-50.8,48.2-50.8"/>
		</g>
	</g>
	<polyline class="st14" points="139.7,179.9 142.6,182.8 142.6,133.4 	"/>
	<g class="st8">
		<path class="st15" d="M132.6,307.2l3.1,1.6c0,0-58.9,0.9-38.5,3.4s44.4,2.1,44.4,2.1s22.8,0.4,43.3-2.1s-37-3.4-37-3.4l3.1-1.6"/>
	</g>
	<polyline class="st14" points="100,131 96.5,133.4 187.1,133.4 	"/>
	<line class="st14" x1="100.7" y1="135.8" x2="96.5" y2="133.4"/>
	<polyline class="st14" points="183.7,131.5 187.4,133.4 184,135.4 	"/>
	<line class="st14" x1="212.2" y1="135.8" x2="210.4" y2="133.1"/>
	<polyline class="st14" points="208.4,299.4 210.4,301.6 210.4,133.4 208.4,135.8 	"/>
	<line class="st14" x1="210.4" y1="302.1" x2="212.1" y2="299.3"/>
	<line class="st14" x1="151.8" y1="310.5" x2="147.9" y2="308.7"/>
	<line class="st14" x1="132.8" y1="310.5" x2="135.7" y2="308.7"/>
	<line class="st14" x1="145.1" y1="179.6" x2="142.6" y2="182.8"/>
	<line class="st14" x1="78.2" y1="165.8" x2="77.3" y2="168.8"/>
	<path class="st14" d="M79.4,176l-1.9-2.6c0,0,1,17.1-0.7,26.3c-1.7,9.2-4.7-20.6-5-27c-0.3-6.3-0.4-28.1,1.5-31.9s4,27.7,4,27.7
		l-2-2.4"/>
	<line class="st14" x1="76.3" y1="175.8" x2="77.6" y2="173.2"/>
	<rect x="237.7" y="158" class="st9" width="17" height="17"/>
	<rect x="229.2" y="142" class="st9" width="17" height="17"/>
	<rect x="137.8" y="153.8" class="st9" width="11.7" height="11.7"/>
	<rect x="114.9" y="126.6" class="st9" width="11.7" height="11.7"/>
	<rect x="204.5" y="211" class="st9" width="11.7" height="11.7"/>
	<rect x="63.1" y="166.5" class="st9" width="11.7" height="11.7"/>
	<g class="st8">
		<g>
			<rect x="201.8" y="212.2" class="st6" width="17.1" height="17.1"/>
			<path class="st16" d="M211.8,217.9H209l-0.9,2.1h-1l3.2-7.3l3.2,7.3h-1L211.8,217.9z M209.3,217.1h2.1l-1.1-2.5L209.3,217.1z"/>
		</g>
	</g>
	<g class="st8">
		<g>
			<rect x="112.3" y="128.1" class="st6" width="17.1" height="17.1"/>
			<path class="st16" d="M120.7,135.9h-1.9v-7h1.8c1.2,0,2.1,0.6,2.1,1.7c0,0.7-0.4,1.2-1.2,1.4c0.9,0.2,1.6,0.8,1.6,1.8
				C123.1,135.2,122.1,135.9,120.7,135.9z M119.7,129.6v2.1h0.9c0.7,0,1.2-0.4,1.2-1c0-0.6-0.5-1-1.2-1h-0.9V129.6z M120.7,135.1
				c0.9,0,1.5-0.5,1.5-1.3c0-0.9-0.6-1.3-1.5-1.3h-1v2.7h1V135.1z"/>
		</g>
	</g>
	<g class="st8">
		<g>
			<rect x="62.4" y="168.5" class="st6" width="17.1" height="17.1"/>
			<path class="st16" d="M68.4,176.3v-7h2.1c2,0,3.5,1.4,3.5,3.5s-1.5,3.5-3.5,3.5H68.4z M69.3,170.1v5.3h1.2c1.6,0,2.6-1,2.6-2.6
				c0-1.6-1.1-2.6-2.6-2.6h-1.2V170.1z"/>
		</g>
	</g>
	<g class="st8">
		<g>
			<rect x="133.5" y="155.8" class="st6" width="17.1" height="17.1"/>
			<path class="st16" d="M142.5,162.8c1,0,1.8-0.4,2.2-1v1.1c-0.6,0.5-1.2,0.8-2.2,0.8c-1.9,0-3.5-1.5-3.5-3.6s1.6-3.6,3.5-3.6
				c1,0,1.7,0.2,2.2,0.8v1.1c-0.5-0.6-1.3-1-2.2-1c-1.4,0-2.6,1.1-2.6,2.7S141.1,162.8,142.5,162.8z"/>
		</g>
	</g>
	<rect x="135.5" y="304.6" class="st9" width="11.7" height="8.6"/>
	<g class="st8">
		<g>
			<rect x="132.5" y="303.6" class="st6" width="17.1" height="9"/>
			<path class="st16" d="M143.1,304.4v0.8H140v2h2.9v0.8H140v2.6h3.1v0.8h-4v-7H143.1L143.1,304.4z"/>
		</g>
	</g>
	<polyline class="st17" points="145.5,136.5 142.6,133.4 140.1,136.6 	"/>
</g>
</svg>
