<?xml version="1.0" encoding="UTF-8" standalone="no"?>
<!DOCTYPE svg PUBLIC "-//W3C//DTD SVG 1.1//EN" "http://www.w3.org/Graphics/SVG/1.1/DTD/svg11.dtd">
<svg width="100%" height="100%" viewBox="0 0 84 49" version="1.1" xmlns="http://www.w3.org/2000/svg" xmlns:xlink="http://www.w3.org/1999/xlink" xml:space="preserve" style="fill-rule:evenodd;clip-rule:evenodd;stroke-miterlimit:2.613;">
    <g id="Layer1">
        <g>
            <g transform="matrix(6.12323e-17,1,-1,6.12323e-17,193.956,-491.799)">
                <path d="M539.562,151.97C530.914,140.068 523.098,131.675 516.214,126.883" style="fill:none;stroke-width:0.71px;stroke:rgb(108,201,213);"/>
            </g>
            <g transform="matrix(6.12323e-17,1,-1,6.12323e-17,193.956,-491.799)">
                <path d="M516.215,126.883C520.391,124.085 524.134,122.492 527.543,122.197C533.691,121.736 537.491,123.827 538.945,128.47C540.661,135.24 536.072,143.073 525.179,151.971" style="fill:none;stroke-width:0.71px;stroke:rgb(108,201,213);"/>
            </g>
            <g transform="matrix(6.12323e-17,1,-1,6.12323e-17,193.956,-491.799)">
                <path d="M516.209,144.978C519.574,141.978 522.566,138.533 525.284,134.731" style="fill:none;stroke-width:0.71px;stroke:rgb(108,201,213);"/>
            </g>
            <g transform="matrix(6.12323e-17,1,-1,6.12323e-17,193.956,-491.799)">
                <path d="M525.137,151.971C522.031,149.544 519.018,147.376 516.177,144.978" style="fill:none;stroke-width:0.71px;stroke:rgb(108,201,213);"/>
            </g>
            <g transform="matrix(6.12323e-17,1,-1,6.12323e-17,193.956,-491.799)">
                <path d="M525.284,134.731C531.961,123.525 525.827,111.674 516.181,110.979" style="fill:none;stroke-width:0.71px;stroke:rgb(108,201,213);"/>
            </g>
            <g transform="matrix(6.12323e-17,1,-1,6.12323e-17,193.956,-491.799)">
                <path d="M533.6,131.177C533.6,131.031 533.483,130.911 533.338,130.911C533.193,130.911 533.075,131.031 533.075,131.177C533.075,131.324 533.193,131.443 533.338,131.443C533.483,131.443 533.6,131.324 533.6,131.177" style="fill:rgb(51,204,102);stroke-width:1px;stroke-linejoin:round;stroke-miterlimit:1.41421;stroke:rgb(108,201,213);"/>
            </g>
            <g transform="matrix(6.12323e-17,1,-1,6.12323e-17,193.956,-491.799)">
                <path d="M533.6,131.177C533.6,131.031 533.483,130.911 533.338,130.911C533.193,130.911 533.075,131.031 533.075,131.177C533.075,131.324 533.193,131.443 533.338,131.443C533.483,131.443 533.6,131.324 533.6,131.177Z" style="fill:none;stroke-width:0.71px;stroke:rgb(108,201,213);"/>
            </g>
            <g transform="matrix(6.12323e-17,1,-1,6.12323e-17,193.956,-491.799)">
                <path d="M525.246,144.204C525.246,144.057 525.129,143.938 524.983,143.938C524.838,143.938 524.721,144.057 524.721,144.204C524.721,144.351 524.838,144.47 524.983,144.47C525.129,144.47 525.246,144.351 525.246,144.204" style="fill:rgb(51,204,102);stroke-width:1px;stroke-linejoin:round;stroke-miterlimit:1.41421;stroke:rgb(108,201,213);"/>
            </g>
            <g transform="matrix(6.12323e-17,1,-1,6.12323e-17,193.956,-491.799)">
                <path d="M525.246,144.204C525.246,144.057 525.129,143.938 524.983,143.938C524.838,143.938 524.721,144.057 524.721,144.204C524.721,144.351 524.838,144.47 524.983,144.47C525.129,144.47 525.246,144.351 525.246,144.204Z" style="fill:none;stroke-width:0.71px;stroke:rgb(108,201,213);"/>
            </g>
            <g transform="matrix(6.12323e-17,1,-1,6.12323e-17,193.956,-491.799)">
                <path d="M523.67,127.456C523.67,127.309 523.552,127.19 523.407,127.19C523.262,127.19 523.145,127.309 523.145,127.456C523.145,127.603 523.262,127.722 523.407,127.722C523.552,127.722 523.67,127.603 523.67,127.456" style="fill:rgb(51,204,102);stroke-width:1px;stroke-linejoin:round;stroke-miterlimit:1.41421;stroke:rgb(108,201,213);"/>
            </g>
            <g transform="matrix(6.12323e-17,1,-1,6.12323e-17,193.956,-491.799)">
                <path d="M523.67,127.456C523.67,127.309 523.552,127.19 523.407,127.19C523.262,127.19 523.145,127.309 523.145,127.456C523.145,127.603 523.262,127.722 523.407,127.722C523.552,127.722 523.67,127.603 523.67,127.456Z" style="fill:none;stroke-width:0.71px;stroke:rgb(108,201,213);"/>
            </g>
            <g transform="matrix(6.12323e-17,1,-1,6.12323e-17,193.956,-491.799)">
                <path d="M516.472,135.325C516.472,135.179 516.355,135.059 516.209,135.059C516.064,135.059 515.947,135.179 515.947,135.325C515.947,135.472 516.064,135.591 516.209,135.591C516.355,135.591 516.472,135.472 516.472,135.325" style="fill:rgb(51,204,102);stroke-width:1px;stroke-linejoin:round;stroke-miterlimit:1.41421;stroke:rgb(108,201,213);"/>
            </g>
            <g transform="matrix(6.12323e-17,1,-1,6.12323e-17,193.956,-491.799)">
                <path d="M516.472,135.325C516.472,135.179 516.355,135.059 516.209,135.059C516.064,135.059 515.947,135.179 515.947,135.325C515.947,135.472 516.064,135.591 516.209,135.591C516.355,135.591 516.472,135.472 516.472,135.325Z" style="fill:none;stroke-width:0.71px;stroke:rgb(108,201,213);"/>
            </g>
            <g transform="matrix(6.12323e-17,1,-1,6.12323e-17,193.956,-491.799)">
                <path d="M516.472,119.322C516.472,119.175 516.355,119.056 516.209,119.056C516.064,119.056 515.947,119.175 515.947,119.322C515.947,119.469 516.064,119.588 516.209,119.588C516.355,119.588 516.472,119.469 516.472,119.322" style="fill:rgb(51,204,102);stroke-width:1px;stroke-linejoin:round;stroke-miterlimit:1.41421;stroke:rgb(108,201,213);"/>
            </g>
            <g transform="matrix(6.12323e-17,1,-1,6.12323e-17,193.956,-491.799)">
                <path d="M516.472,119.322C516.472,119.175 516.355,119.056 516.209,119.056C516.064,119.056 515.947,119.175 515.947,119.322C515.947,119.469 516.064,119.588 516.209,119.588C516.355,119.588 516.472,119.469 516.472,119.322Z" style="fill:none;stroke-width:0.71px;stroke:rgb(108,201,213);"/>
            </g>
            <g transform="matrix(6.12323e-17,1,-1,6.12323e-17,193.956,-491.799)">
                <path d="M516.472,151.967C516.472,151.821 516.355,151.701 516.209,151.701C516.064,151.701 515.947,151.821 515.947,151.967C515.947,152.114 516.064,152.233 516.209,152.233C516.355,152.233 516.472,152.114 516.472,151.967" style="fill:rgb(51,204,102);stroke-width:1px;stroke-linejoin:round;stroke-miterlimit:1.41421;stroke:rgb(108,201,213);"/>
            </g>
            <g transform="matrix(6.12323e-17,1,-1,6.12323e-17,193.956,-491.799)">
                <path d="M516.472,151.967C516.472,151.821 516.355,151.701 516.209,151.701C516.064,151.701 515.947,151.821 515.947,151.967C515.947,152.114 516.064,152.233 516.209,152.233C516.355,152.233 516.472,152.114 516.472,151.967Z" style="fill:none;stroke-width:0.71px;stroke:rgb(108,201,213);"/>
            </g>
            <g transform="matrix(6.12323e-17,1,-1,6.12323e-17,193.956,-491.799)">
                <path d="M498.846,131.179C498.846,131.032 498.963,130.913 499.109,130.913C499.253,130.913 499.371,131.032 499.371,131.179C499.371,131.325 499.253,131.445 499.109,131.445C498.963,131.445 498.846,131.325 498.846,131.179" style="fill:rgb(51,204,102);stroke-width:1px;stroke-linejoin:round;stroke-miterlimit:1.41421;stroke:rgb(108,201,213);"/>
            </g>
            <g transform="matrix(6.12323e-17,1,-1,6.12323e-17,193.956,-491.799)">
                <path d="M498.846,131.179C498.846,131.032 498.963,130.913 499.109,130.913C499.253,130.913 499.371,131.032 499.371,131.179C499.371,131.325 499.253,131.445 499.109,131.445C498.963,131.445 498.846,131.325 498.846,131.179Z" style="fill:none;stroke-width:0.71px;stroke:rgb(108,201,213);"/>
            </g>
            <g transform="matrix(6.12323e-17,1,-1,6.12323e-17,193.956,-491.799)">
                <path d="M507.199,144.205C507.199,144.058 507.317,143.939 507.462,143.939C507.607,143.939 507.724,144.058 507.724,144.205C507.724,144.351 507.607,144.471 507.462,144.471C507.317,144.471 507.199,144.351 507.199,144.205" style="fill:rgb(51,204,102);stroke-width:1px;stroke-linejoin:round;stroke-miterlimit:1.41421;stroke:rgb(108,201,213);"/>
            </g>
            <g transform="matrix(6.12323e-17,1,-1,6.12323e-17,193.956,-491.799)">
                <path d="M507.199,144.205C507.199,144.058 507.317,143.939 507.462,143.939C507.607,143.939 507.724,144.058 507.724,144.205C507.724,144.351 507.607,144.471 507.462,144.471C507.317,144.471 507.199,144.351 507.199,144.205Z" style="fill:none;stroke-width:0.71px;stroke:rgb(108,201,213);"/>
            </g>
            <g transform="matrix(6.12323e-17,1,-1,6.12323e-17,193.956,-491.799)">
                <path d="M508.775,127.457C508.775,127.31 508.893,127.191 509.038,127.191C509.183,127.191 509.3,127.31 509.3,127.457C509.3,127.604 509.183,127.723 509.038,127.723C508.893,127.723 508.775,127.604 508.775,127.457" style="fill:rgb(51,204,102);stroke-width:1px;stroke-linejoin:round;stroke-miterlimit:1.41421;stroke:rgb(108,201,213);"/>
            </g>
            <g transform="matrix(6.12323e-17,1,-1,6.12323e-17,193.956,-491.799)">
                <path d="M508.775,127.457C508.775,127.31 508.893,127.191 509.038,127.191C509.183,127.191 509.3,127.31 509.3,127.457C509.3,127.604 509.183,127.723 509.038,127.723C508.893,127.723 508.775,127.604 508.775,127.457Z" style="fill:none;stroke-width:0.71px;stroke:rgb(108,201,213);"/>
            </g>
            <g transform="matrix(6.12323e-17,1,-1,6.12323e-17,193.956,-491.799)">
                <path d="M515.974,135.325C515.974,135.179 516.092,135.059 516.237,135.059C516.382,135.059 516.499,135.179 516.499,135.325C516.499,135.472 516.382,135.591 516.237,135.591C516.092,135.591 515.974,135.472 515.974,135.325" style="fill:rgb(51,204,102);stroke-width:1px;stroke-linejoin:round;stroke-miterlimit:1.41421;stroke:rgb(108,201,213);"/>
            </g>
            <g transform="matrix(6.12323e-17,1,-1,6.12323e-17,193.956,-491.799)">
                <path d="M515.974,135.325C515.974,135.179 516.092,135.059 516.237,135.059C516.382,135.059 516.499,135.179 516.499,135.325C516.499,135.472 516.382,135.591 516.237,135.591C516.092,135.591 515.974,135.472 515.974,135.325Z" style="fill:none;stroke-width:0.71px;stroke:rgb(108,201,213);"/>
            </g>
            <g transform="matrix(6.12323e-17,1,-1,6.12323e-17,193.956,-491.799)">
                <path d="M515.974,119.322C515.974,119.175 516.092,119.056 516.237,119.056C516.382,119.056 516.499,119.175 516.499,119.322C516.499,119.469 516.382,119.588 516.237,119.588C516.092,119.588 515.974,119.469 515.974,119.322" style="fill:rgb(51,204,102);stroke-width:1px;stroke-linejoin:round;stroke-miterlimit:1.41421;stroke:rgb(108,201,213);"/>
            </g>
            <g transform="matrix(6.12323e-17,1,-1,6.12323e-17,193.956,-491.799)">
                <path d="M515.974,119.322C515.974,119.175 516.092,119.056 516.237,119.056C516.382,119.056 516.499,119.175 516.499,119.322C516.499,119.469 516.382,119.588 516.237,119.588C516.092,119.588 515.974,119.469 515.974,119.322Z" style="fill:none;stroke-width:0.71px;stroke:rgb(108,201,213);"/>
            </g>
            <g transform="matrix(6.12323e-17,1,-1,6.12323e-17,193.956,-491.799)">
                <path d="M515.974,151.967C515.974,151.821 516.092,151.701 516.237,151.701C516.382,151.701 516.499,151.821 516.499,151.967C516.499,152.114 516.382,152.233 516.237,152.233C516.092,152.233 515.974,152.114 515.974,151.967" style="fill:rgb(51,204,102);stroke-width:1px;stroke-linejoin:round;stroke-miterlimit:1.41421;stroke:rgb(108,201,213);"/>
            </g>
            <g transform="matrix(6.12323e-17,1,-1,6.12323e-17,193.956,-491.799)">
                <path d="M515.974,151.967C515.974,151.821 516.092,151.701 516.237,151.701C516.382,151.701 516.499,151.821 516.499,151.967C516.499,152.114 516.382,152.233 516.237,152.233C516.092,152.233 515.974,152.114 515.974,151.967Z" style="fill:none;stroke-width:0.71px;stroke:rgb(108,201,213);"/>
            </g>
            <g transform="matrix(6.12323e-17,1,-1,6.12323e-17,193.956,-491.799)">
                <path d="M533.6,131.177C533.6,131.031 533.483,130.911 533.338,130.911C533.193,130.911 533.075,131.031 533.075,131.177C533.075,131.324 533.193,131.443 533.338,131.443C533.483,131.443 533.6,131.324 533.6,131.177" style="fill:rgb(51,204,102);stroke-width:1px;stroke-linejoin:round;stroke-miterlimit:1.41421;stroke:rgb(108,201,213);"/>
            </g>
            <g transform="matrix(6.12323e-17,1,-1,6.12323e-17,193.956,-491.799)">
                <path d="M533.6,131.177C533.6,131.031 533.483,130.911 533.338,130.911C533.193,130.911 533.075,131.031 533.075,131.177C533.075,131.324 533.193,131.443 533.338,131.443C533.483,131.443 533.6,131.324 533.6,131.177Z" style="fill:none;stroke-width:0.71px;stroke:rgb(108,201,213);"/>
            </g>
            <g transform="matrix(6.12323e-17,1,-1,6.12323e-17,193.956,-491.799)">
                <path d="M525.246,144.204C525.246,144.057 525.129,143.938 524.983,143.938C524.838,143.938 524.721,144.057 524.721,144.204C524.721,144.351 524.838,144.47 524.983,144.47C525.129,144.47 525.246,144.351 525.246,144.204" style="fill:rgb(51,204,102);stroke-width:1px;stroke-linejoin:round;stroke-miterlimit:1.41421;stroke:rgb(108,201,213);"/>
            </g>
            <g transform="matrix(6.12323e-17,1,-1,6.12323e-17,193.956,-491.799)">
                <path d="M525.246,144.204C525.246,144.057 525.129,143.938 524.983,143.938C524.838,143.938 524.721,144.057 524.721,144.204C524.721,144.351 524.838,144.47 524.983,144.47C525.129,144.47 525.246,144.351 525.246,144.204Z" style="fill:none;stroke-width:0.71px;stroke:rgb(108,201,213);"/>
            </g>
            <g transform="matrix(6.12323e-17,1,-1,6.12323e-17,193.956,-491.799)">
                <path d="M523.67,127.456C523.67,127.309 523.552,127.19 523.407,127.19C523.262,127.19 523.145,127.309 523.145,127.456C523.145,127.603 523.262,127.722 523.407,127.722C523.552,127.722 523.67,127.603 523.67,127.456" style="fill:rgb(51,204,102);stroke-width:1px;stroke-linejoin:round;stroke-miterlimit:1.41421;stroke:rgb(108,201,213);"/>
            </g>
            <g transform="matrix(6.12323e-17,1,-1,6.12323e-17,193.956,-491.799)">
                <path d="M523.67,127.456C523.67,127.309 523.552,127.19 523.407,127.19C523.262,127.19 523.145,127.309 523.145,127.456C523.145,127.603 523.262,127.722 523.407,127.722C523.552,127.722 523.67,127.603 523.67,127.456Z" style="fill:none;stroke-width:0.71px;stroke:rgb(108,201,213);"/>
            </g>
            <g transform="matrix(6.12323e-17,1,-1,6.12323e-17,193.956,-491.799)">
                <path d="M516.472,135.325C516.472,135.179 516.355,135.059 516.209,135.059C516.064,135.059 515.947,135.179 515.947,135.325C515.947,135.472 516.064,135.591 516.209,135.591C516.355,135.591 516.472,135.472 516.472,135.325" style="fill:rgb(51,204,102);stroke-width:1px;stroke-linejoin:round;stroke-miterlimit:1.41421;stroke:rgb(108,201,213);"/>
            </g>
            <g transform="matrix(6.12323e-17,1,-1,6.12323e-17,193.956,-491.799)">
                <path d="M516.472,135.325C516.472,135.179 516.355,135.059 516.209,135.059C516.064,135.059 515.947,135.179 515.947,135.325C515.947,135.472 516.064,135.591 516.209,135.591C516.355,135.591 516.472,135.472 516.472,135.325Z" style="fill:none;stroke-width:0.71px;stroke:rgb(108,201,213);"/>
            </g>
            <g transform="matrix(6.12323e-17,1,-1,6.12323e-17,193.956,-491.799)">
                <path d="M516.472,119.322C516.472,119.175 516.355,119.056 516.209,119.056C516.064,119.056 515.947,119.175 515.947,119.322C515.947,119.469 516.064,119.588 516.209,119.588C516.355,119.588 516.472,119.469 516.472,119.322" style="fill:rgb(51,204,102);stroke-width:1px;stroke-linejoin:round;stroke-miterlimit:1.41421;stroke:rgb(108,201,213);"/>
            </g>
            <g transform="matrix(6.12323e-17,1,-1,6.12323e-17,193.956,-491.799)">
                <path d="M516.472,119.322C516.472,119.175 516.355,119.056 516.209,119.056C516.064,119.056 515.947,119.175 515.947,119.322C515.947,119.469 516.064,119.588 516.209,119.588C516.355,119.588 516.472,119.469 516.472,119.322Z" style="fill:none;stroke-width:0.71px;stroke:rgb(108,201,213);"/>
            </g>
            <g transform="matrix(6.12323e-17,1,-1,6.12323e-17,193.956,-491.799)">
                <path d="M516.472,151.967C516.472,151.821 516.355,151.701 516.209,151.701C516.064,151.701 515.947,151.821 515.947,151.967C515.947,152.114 516.064,152.233 516.209,152.233C516.355,152.233 516.472,152.114 516.472,151.967" style="fill:rgb(51,204,102);stroke-width:1px;stroke-linejoin:round;stroke-miterlimit:1.41421;stroke:rgb(108,201,213);"/>
            </g>
            <g transform="matrix(6.12323e-17,1,-1,6.12323e-17,193.956,-491.799)">
                <path d="M516.472,151.967C516.472,151.821 516.355,151.701 516.209,151.701C516.064,151.701 515.947,151.821 515.947,151.967C515.947,152.114 516.064,152.233 516.209,152.233C516.355,152.233 516.472,152.114 516.472,151.967Z" style="fill:none;stroke-width:0.71px;stroke:rgb(108,201,213);"/>
            </g>
            <g transform="matrix(6.12323e-17,1,-1,6.12323e-17,193.956,-491.799)">
                <path d="M498.846,131.179C498.846,131.032 498.963,130.913 499.109,130.913C499.253,130.913 499.371,131.032 499.371,131.179C499.371,131.325 499.253,131.445 499.109,131.445C498.963,131.445 498.846,131.325 498.846,131.179" style="fill:rgb(51,204,102);stroke-width:1px;stroke-linejoin:round;stroke-miterlimit:1.41421;stroke:rgb(108,201,213);"/>
            </g>
            <g transform="matrix(6.12323e-17,1,-1,6.12323e-17,193.956,-491.799)">
                <path d="M498.846,131.179C498.846,131.032 498.963,130.913 499.109,130.913C499.253,130.913 499.371,131.032 499.371,131.179C499.371,131.325 499.253,131.445 499.109,131.445C498.963,131.445 498.846,131.325 498.846,131.179Z" style="fill:none;stroke-width:0.71px;stroke:rgb(108,201,213);"/>
            </g>
            <g transform="matrix(6.12323e-17,1,-1,6.12323e-17,193.956,-491.799)">
                <path d="M507.199,144.205C507.199,144.058 507.317,143.939 507.462,143.939C507.607,143.939 507.724,144.058 507.724,144.205C507.724,144.351 507.607,144.471 507.462,144.471C507.317,144.471 507.199,144.351 507.199,144.205" style="fill:rgb(51,204,102);stroke-width:1px;stroke-linejoin:round;stroke-miterlimit:1.41421;stroke:rgb(108,201,213);"/>
            </g>
            <g transform="matrix(6.12323e-17,1,-1,6.12323e-17,193.956,-491.799)">
                <path d="M507.199,144.205C507.199,144.058 507.317,143.939 507.462,143.939C507.607,143.939 507.724,144.058 507.724,144.205C507.724,144.351 507.607,144.471 507.462,144.471C507.317,144.471 507.199,144.351 507.199,144.205Z" style="fill:none;stroke-width:0.71px;stroke:rgb(108,201,213);"/>
            </g>
            <g transform="matrix(6.12323e-17,1,-1,6.12323e-17,193.956,-491.799)">
                <path d="M508.775,127.457C508.775,127.31 508.893,127.191 509.038,127.191C509.183,127.191 509.3,127.31 509.3,127.457C509.3,127.604 509.183,127.723 509.038,127.723C508.893,127.723 508.775,127.604 508.775,127.457" style="fill:rgb(51,204,102);stroke-width:1px;stroke-linejoin:round;stroke-miterlimit:1.41421;stroke:rgb(108,201,213);"/>
            </g>
            <g transform="matrix(6.12323e-17,1,-1,6.12323e-17,193.956,-491.799)">
                <path d="M508.775,127.457C508.775,127.31 508.893,127.191 509.038,127.191C509.183,127.191 509.3,127.31 509.3,127.457C509.3,127.604 509.183,127.723 509.038,127.723C508.893,127.723 508.775,127.604 508.775,127.457Z" style="fill:none;stroke-width:0.71px;stroke:rgb(108,201,213);"/>
            </g>
            <g transform="matrix(6.12323e-17,1,-1,6.12323e-17,193.956,-491.799)">
                <path d="M515.974,135.325C515.974,135.179 516.092,135.059 516.237,135.059C516.382,135.059 516.499,135.179 516.499,135.325C516.499,135.472 516.382,135.591 516.237,135.591C516.092,135.591 515.974,135.472 515.974,135.325" style="fill:rgb(51,204,102);stroke-width:1px;stroke-linejoin:round;stroke-miterlimit:1.41421;stroke:rgb(108,201,213);"/>
            </g>
            <g transform="matrix(6.12323e-17,1,-1,6.12323e-17,193.956,-491.799)">
                <path d="M515.974,135.325C515.974,135.179 516.092,135.059 516.237,135.059C516.382,135.059 516.499,135.179 516.499,135.325C516.499,135.472 516.382,135.591 516.237,135.591C516.092,135.591 515.974,135.472 515.974,135.325Z" style="fill:none;stroke-width:0.71px;stroke:rgb(108,201,213);"/>
            </g>
            <g transform="matrix(6.12323e-17,1,-1,6.12323e-17,193.956,-491.799)">
                <path d="M515.974,119.322C515.974,119.175 516.092,119.056 516.237,119.056C516.382,119.056 516.499,119.175 516.499,119.322C516.499,119.469 516.382,119.588 516.237,119.588C516.092,119.588 515.974,119.469 515.974,119.322" style="fill:rgb(51,204,102);stroke-width:1px;stroke-linejoin:round;stroke-miterlimit:1.41421;stroke:rgb(108,201,213);"/>
            </g>
            <g transform="matrix(6.12323e-17,1,-1,6.12323e-17,193.956,-491.799)">
                <path d="M515.974,119.322C515.974,119.175 516.092,119.056 516.237,119.056C516.382,119.056 516.499,119.175 516.499,119.322C516.499,119.469 516.382,119.588 516.237,119.588C516.092,119.588 515.974,119.469 515.974,119.322Z" style="fill:none;stroke-width:0.71px;stroke:rgb(108,201,213);"/>
            </g>
            <g transform="matrix(6.12323e-17,1,-1,6.12323e-17,193.956,-491.799)">
                <path d="M515.974,151.967C515.974,151.821 516.092,151.701 516.237,151.701C516.382,151.701 516.499,151.821 516.499,151.967C516.499,152.114 516.382,152.233 516.237,152.233C516.092,152.233 515.974,152.114 515.974,151.967" style="fill:rgb(51,204,102);stroke-width:1px;stroke-linejoin:round;stroke-miterlimit:1.41421;stroke:rgb(108,201,213);"/>
            </g>
            <g transform="matrix(6.12323e-17,1,-1,6.12323e-17,193.956,-491.799)">
                <path d="M515.974,151.967C515.974,151.821 516.092,151.701 516.237,151.701C516.382,151.701 516.499,151.821 516.499,151.967C516.499,152.114 516.382,152.233 516.237,152.233C516.092,152.233 515.974,152.114 515.974,151.967Z" style="fill:none;stroke-width:0.71px;stroke:rgb(108,201,213);"/>
            </g>
            <g transform="matrix(6.12323e-17,1,-1,6.12323e-17,193.956,-491.799)">
                <path d="M533.594,172.752C533.594,172.899 533.476,173.018 533.331,173.018C533.186,173.018 533.069,172.899 533.069,172.752C533.069,172.605 533.186,172.486 533.331,172.486C533.476,172.486 533.594,172.605 533.594,172.752" style="fill:rgb(51,204,102);stroke-width:1px;stroke-linejoin:round;stroke-miterlimit:1.41421;stroke:rgb(108,201,213);"/>
            </g>
            <g transform="matrix(6.12323e-17,1,-1,6.12323e-17,193.956,-491.799)">
                <path d="M533.594,172.752C533.594,172.899 533.476,173.018 533.331,173.018C533.186,173.018 533.069,172.899 533.069,172.752C533.069,172.605 533.186,172.486 533.331,172.486C533.476,172.486 533.594,172.605 533.594,172.752Z" style="fill:none;stroke-width:0.71px;stroke:rgb(108,201,213);"/>
            </g>
            <g transform="matrix(6.12323e-17,1,-1,6.12323e-17,193.956,-491.799)">
                <path d="M525.239,159.726C525.239,159.873 525.122,159.992 524.976,159.992C524.832,159.992 524.714,159.873 524.714,159.726C524.714,159.58 524.832,159.46 524.976,159.46C525.122,159.46 525.239,159.58 525.239,159.726" style="fill:rgb(51,204,102);stroke-width:1px;stroke-linejoin:round;stroke-miterlimit:1.41421;stroke:rgb(108,201,213);"/>
            </g>
            <g transform="matrix(6.12323e-17,1,-1,6.12323e-17,193.956,-491.799)">
                <path d="M525.239,159.726C525.239,159.873 525.122,159.992 524.976,159.992C524.832,159.992 524.714,159.873 524.714,159.726C524.714,159.58 524.832,159.46 524.976,159.46C525.122,159.46 525.239,159.58 525.239,159.726Z" style="fill:none;stroke-width:0.71px;stroke:rgb(108,201,213);"/>
            </g>
            <g transform="matrix(6.12323e-17,1,-1,6.12323e-17,193.956,-491.799)">
                <path d="M523.663,176.474C523.663,176.621 523.546,176.74 523.4,176.74C523.256,176.74 523.138,176.621 523.138,176.474C523.138,176.327 523.256,176.208 523.4,176.208C523.546,176.208 523.663,176.327 523.663,176.474" style="fill:rgb(51,204,102);stroke-width:1px;stroke-linejoin:round;stroke-miterlimit:1.41421;stroke:rgb(108,201,213);"/>
            </g>
            <g transform="matrix(6.12323e-17,1,-1,6.12323e-17,193.956,-491.799)">
                <path d="M523.663,176.474C523.663,176.621 523.546,176.74 523.4,176.74C523.256,176.74 523.138,176.621 523.138,176.474C523.138,176.327 523.256,176.208 523.4,176.208C523.546,176.208 523.663,176.327 523.663,176.474Z" style="fill:none;stroke-width:0.71px;stroke:rgb(108,201,213);"/>
            </g>
            <g transform="matrix(6.12323e-17,1,-1,6.12323e-17,193.956,-491.799)">
                <path d="M516.465,168.606C516.465,168.752 516.348,168.872 516.202,168.872C516.058,168.872 515.94,168.752 515.94,168.606C515.94,168.459 516.058,168.34 516.202,168.34C516.348,168.34 516.465,168.459 516.465,168.606" style="fill:rgb(51,204,102);stroke-width:1px;stroke-linejoin:round;stroke-miterlimit:1.41421;stroke:rgb(108,201,213);"/>
            </g>
            <g transform="matrix(6.12323e-17,1,-1,6.12323e-17,193.956,-491.799)">
                <path d="M516.465,168.606C516.465,168.752 516.348,168.872 516.202,168.872C516.058,168.872 515.94,168.752 515.94,168.606C515.94,168.459 516.058,168.34 516.202,168.34C516.348,168.34 516.465,168.459 516.465,168.606Z" style="fill:none;stroke-width:0.71px;stroke:rgb(108,201,213);"/>
            </g>
            <g transform="matrix(6.12323e-17,1,-1,6.12323e-17,193.956,-491.799)">
                <path d="M516.465,184.609C516.465,184.756 516.348,184.875 516.202,184.875C516.058,184.875 515.94,184.756 515.94,184.609C515.94,184.462 516.058,184.343 516.202,184.343C516.348,184.343 516.465,184.462 516.465,184.609" style="fill:rgb(51,204,102);stroke-width:1px;stroke-linejoin:round;stroke-miterlimit:1.41421;stroke:rgb(108,201,213);"/>
            </g>
            <g transform="matrix(6.12323e-17,1,-1,6.12323e-17,193.956,-491.799)">
                <path d="M516.465,184.609C516.465,184.756 516.348,184.875 516.202,184.875C516.058,184.875 515.94,184.756 515.94,184.609C515.94,184.462 516.058,184.343 516.202,184.343C516.348,184.343 516.465,184.462 516.465,184.609Z" style="fill:none;stroke-width:0.71px;stroke:rgb(108,201,213);"/>
            </g>
            <g transform="matrix(6.12323e-17,1,-1,6.12323e-17,193.956,-491.799)">
                <path d="M516.465,151.964C516.465,152.11 516.348,152.23 516.202,152.23C516.058,152.23 515.94,152.11 515.94,151.964C515.94,151.817 516.058,151.698 516.202,151.698C516.348,151.698 516.465,151.817 516.465,151.964" style="fill:rgb(51,204,102);stroke-width:1px;stroke-linejoin:round;stroke-miterlimit:1.41421;stroke:rgb(108,201,213);"/>
            </g>
            <g transform="matrix(6.12323e-17,1,-1,6.12323e-17,193.956,-491.799)">
                <path d="M516.465,151.964C516.465,152.11 516.348,152.23 516.202,152.23C516.058,152.23 515.94,152.11 515.94,151.964C515.94,151.817 516.058,151.698 516.202,151.698C516.348,151.698 516.465,151.817 516.465,151.964Z" style="fill:none;stroke-width:0.71px;stroke:rgb(108,201,213);"/>
            </g>
            <g transform="matrix(6.12323e-17,1,-1,6.12323e-17,193.956,-491.799)">
                <path d="M498.839,172.754C498.839,172.9 498.956,173.02 499.102,173.02C499.246,173.02 499.364,172.9 499.364,172.754C499.364,172.607 499.246,172.488 499.102,172.488C498.956,172.488 498.839,172.607 498.839,172.754" style="fill:rgb(51,204,102);stroke-width:1px;stroke-linejoin:round;stroke-miterlimit:1.41421;stroke:rgb(108,201,213);"/>
            </g>
            <g transform="matrix(6.12323e-17,1,-1,6.12323e-17,193.956,-491.799)">
                <path d="M498.839,172.754C498.839,172.9 498.956,173.02 499.102,173.02C499.246,173.02 499.364,172.9 499.364,172.754C499.364,172.607 499.246,172.488 499.102,172.488C498.956,172.488 498.839,172.607 498.839,172.754Z" style="fill:none;stroke-width:0.71px;stroke:rgb(108,201,213);"/>
            </g>
            <g transform="matrix(6.12323e-17,1,-1,6.12323e-17,193.956,-491.799)">
                <path d="M507.193,159.727C507.193,159.874 507.31,159.993 507.455,159.993C507.6,159.993 507.717,159.874 507.717,159.727C507.717,159.58 507.6,159.461 507.455,159.461C507.31,159.461 507.193,159.58 507.193,159.727" style="fill:rgb(51,204,102);stroke-width:1px;stroke-linejoin:round;stroke-miterlimit:1.41421;stroke:rgb(108,201,213);"/>
            </g>
            <g transform="matrix(6.12323e-17,1,-1,6.12323e-17,193.956,-491.799)">
                <path d="M507.193,159.727C507.193,159.874 507.31,159.993 507.455,159.993C507.6,159.993 507.717,159.874 507.717,159.727C507.717,159.58 507.6,159.461 507.455,159.461C507.31,159.461 507.193,159.58 507.193,159.727Z" style="fill:none;stroke-width:0.71px;stroke:rgb(108,201,213);"/>
            </g>
            <g transform="matrix(6.12323e-17,1,-1,6.12323e-17,193.956,-491.799)">
                <path d="M508.769,176.475C508.769,176.622 508.887,176.741 509.032,176.741C509.177,176.741 509.295,176.622 509.295,176.475C509.295,176.328 509.177,176.209 509.032,176.209C508.887,176.209 508.769,176.328 508.769,176.475" style="fill:rgb(51,204,102);stroke-width:1px;stroke-linejoin:round;stroke-miterlimit:1.41421;stroke:rgb(108,201,213);"/>
            </g>
            <g transform="matrix(6.12323e-17,1,-1,6.12323e-17,193.956,-491.799)">
                <path d="M508.769,176.475C508.769,176.622 508.887,176.741 509.032,176.741C509.177,176.741 509.295,176.622 509.295,176.475C509.295,176.328 509.177,176.209 509.032,176.209C508.887,176.209 508.769,176.328 508.769,176.475Z" style="fill:none;stroke-width:0.71px;stroke:rgb(108,201,213);"/>
            </g>
            <g transform="matrix(6.12323e-17,1,-1,6.12323e-17,193.956,-491.799)">
                <path d="M515.967,168.606C515.967,168.752 516.085,168.872 516.23,168.872C516.375,168.872 516.492,168.752 516.492,168.606C516.492,168.459 516.375,168.34 516.23,168.34C516.085,168.34 515.967,168.459 515.967,168.606" style="fill:rgb(51,204,102);stroke-width:1px;stroke-linejoin:round;stroke-miterlimit:1.41421;stroke:rgb(108,201,213);"/>
            </g>
            <g transform="matrix(6.12323e-17,1,-1,6.12323e-17,193.956,-491.799)">
                <path d="M515.967,168.606C515.967,168.752 516.085,168.872 516.23,168.872C516.375,168.872 516.492,168.752 516.492,168.606C516.492,168.459 516.375,168.34 516.23,168.34C516.085,168.34 515.967,168.459 515.967,168.606Z" style="fill:none;stroke-width:0.71px;stroke:rgb(108,201,213);"/>
            </g>
            <g transform="matrix(6.12323e-17,1,-1,6.12323e-17,193.956,-491.799)">
                <path d="M515.967,184.609C515.967,184.756 516.085,184.875 516.23,184.875C516.375,184.875 516.492,184.756 516.492,184.609C516.492,184.462 516.375,184.343 516.23,184.343C516.085,184.343 515.967,184.462 515.967,184.609" style="fill:rgb(51,204,102);stroke-width:1px;stroke-linejoin:round;stroke-miterlimit:1.41421;stroke:rgb(108,201,213);"/>
            </g>
            <g transform="matrix(6.12323e-17,1,-1,6.12323e-17,193.956,-491.799)">
                <path d="M515.967,184.609C515.967,184.756 516.085,184.875 516.23,184.875C516.375,184.875 516.492,184.756 516.492,184.609C516.492,184.462 516.375,184.343 516.23,184.343C516.085,184.343 515.967,184.462 515.967,184.609Z" style="fill:none;stroke-width:0.71px;stroke:rgb(108,201,213);"/>
            </g>
            <g transform="matrix(6.12323e-17,1,-1,6.12323e-17,193.956,-491.799)">
                <path d="M515.967,151.964C515.967,152.11 516.085,152.23 516.23,152.23C516.375,152.23 516.492,152.11 516.492,151.964C516.492,151.817 516.375,151.698 516.23,151.698C516.085,151.698 515.967,151.817 515.967,151.964" style="fill:rgb(51,204,102);stroke-width:1px;stroke-linejoin:round;stroke-miterlimit:1.41421;stroke:rgb(108,201,213);"/>
            </g>
            <g transform="matrix(6.12323e-17,1,-1,6.12323e-17,193.956,-491.799)">
                <path d="M515.967,151.964C515.967,152.11 516.085,152.23 516.23,152.23C516.375,152.23 516.492,152.11 516.492,151.964C516.492,151.817 516.375,151.698 516.23,151.698C516.085,151.698 515.967,151.817 515.967,151.964Z" style="fill:none;stroke-width:0.71px;stroke:rgb(108,201,213);"/>
            </g>
            <g transform="matrix(6.12323e-17,1,-1,6.12323e-17,193.956,-491.799)">
                <path d="M533.594,172.752C533.594,172.899 533.476,173.018 533.331,173.018C533.186,173.018 533.069,172.899 533.069,172.752C533.069,172.605 533.186,172.486 533.331,172.486C533.476,172.486 533.594,172.605 533.594,172.752" style="fill:rgb(51,204,102);stroke-width:1px;stroke-linejoin:round;stroke-miterlimit:1.41421;stroke:rgb(108,201,213);"/>
            </g>
            <g transform="matrix(6.12323e-17,1,-1,6.12323e-17,193.956,-491.799)">
                <path d="M533.594,172.752C533.594,172.899 533.476,173.018 533.331,173.018C533.186,173.018 533.069,172.899 533.069,172.752C533.069,172.605 533.186,172.486 533.331,172.486C533.476,172.486 533.594,172.605 533.594,172.752Z" style="fill:none;stroke-width:0.71px;stroke:rgb(108,201,213);"/>
            </g>
            <g transform="matrix(6.12323e-17,1,-1,6.12323e-17,193.956,-491.799)">
                <path d="M525.239,159.726C525.239,159.873 525.122,159.992 524.976,159.992C524.832,159.992 524.714,159.873 524.714,159.726C524.714,159.58 524.832,159.46 524.976,159.46C525.122,159.46 525.239,159.58 525.239,159.726" style="fill:rgb(51,204,102);stroke-width:1px;stroke-linejoin:round;stroke-miterlimit:1.41421;stroke:rgb(108,201,213);"/>
            </g>
            <g transform="matrix(6.12323e-17,1,-1,6.12323e-17,193.956,-491.799)">
                <path d="M525.239,159.726C525.239,159.873 525.122,159.992 524.976,159.992C524.832,159.992 524.714,159.873 524.714,159.726C524.714,159.58 524.832,159.46 524.976,159.46C525.122,159.46 525.239,159.58 525.239,159.726Z" style="fill:none;stroke-width:0.71px;stroke:rgb(108,201,213);"/>
            </g>
            <g transform="matrix(6.12323e-17,1,-1,6.12323e-17,193.956,-491.799)">
                <path d="M523.663,176.474C523.663,176.621 523.546,176.74 523.4,176.74C523.256,176.74 523.138,176.621 523.138,176.474C523.138,176.327 523.256,176.208 523.4,176.208C523.546,176.208 523.663,176.327 523.663,176.474" style="fill:rgb(51,204,102);stroke-width:1px;stroke-linejoin:round;stroke-miterlimit:1.41421;stroke:rgb(108,201,213);"/>
            </g>
            <g transform="matrix(6.12323e-17,1,-1,6.12323e-17,193.956,-491.799)">
                <path d="M523.663,176.474C523.663,176.621 523.546,176.74 523.4,176.74C523.256,176.74 523.138,176.621 523.138,176.474C523.138,176.327 523.256,176.208 523.4,176.208C523.546,176.208 523.663,176.327 523.663,176.474Z" style="fill:none;stroke-width:0.71px;stroke:rgb(108,201,213);"/>
            </g>
            <g transform="matrix(6.12323e-17,1,-1,6.12323e-17,193.956,-491.799)">
                <path d="M516.465,168.606C516.465,168.752 516.348,168.872 516.202,168.872C516.058,168.872 515.94,168.752 515.94,168.606C515.94,168.459 516.058,168.34 516.202,168.34C516.348,168.34 516.465,168.459 516.465,168.606" style="fill:rgb(51,204,102);stroke-width:1px;stroke-linejoin:round;stroke-miterlimit:1.41421;stroke:rgb(108,201,213);"/>
            </g>
            <g transform="matrix(6.12323e-17,1,-1,6.12323e-17,193.956,-491.799)">
                <path d="M516.465,168.606C516.465,168.752 516.348,168.872 516.202,168.872C516.058,168.872 515.94,168.752 515.94,168.606C515.94,168.459 516.058,168.34 516.202,168.34C516.348,168.34 516.465,168.459 516.465,168.606Z" style="fill:none;stroke-width:0.71px;stroke:rgb(108,201,213);"/>
            </g>
            <g transform="matrix(6.12323e-17,1,-1,6.12323e-17,193.956,-491.799)">
                <path d="M516.465,184.609C516.465,184.756 516.348,184.875 516.202,184.875C516.058,184.875 515.94,184.756 515.94,184.609C515.94,184.462 516.058,184.343 516.202,184.343C516.348,184.343 516.465,184.462 516.465,184.609" style="fill:rgb(51,204,102);stroke-width:1px;stroke-linejoin:round;stroke-miterlimit:1.41421;stroke:rgb(108,201,213);"/>
            </g>
            <g transform="matrix(6.12323e-17,1,-1,6.12323e-17,193.956,-491.799)">
                <path d="M516.465,184.609C516.465,184.756 516.348,184.875 516.202,184.875C516.058,184.875 515.94,184.756 515.94,184.609C515.94,184.462 516.058,184.343 516.202,184.343C516.348,184.343 516.465,184.462 516.465,184.609Z" style="fill:none;stroke-width:0.71px;stroke:rgb(108,201,213);"/>
            </g>
            <g transform="matrix(6.12323e-17,1,-1,6.12323e-17,193.956,-491.799)">
                <path d="M516.465,151.964C516.465,152.11 516.348,152.23 516.202,152.23C516.058,152.23 515.94,152.11 515.94,151.964C515.94,151.817 516.058,151.698 516.202,151.698C516.348,151.698 516.465,151.817 516.465,151.964" style="fill:rgb(51,204,102);stroke-width:1px;stroke-linejoin:round;stroke-miterlimit:1.41421;stroke:rgb(108,201,213);"/>
            </g>
            <g transform="matrix(6.12323e-17,1,-1,6.12323e-17,193.956,-491.799)">
                <path d="M516.465,151.964C516.465,152.11 516.348,152.23 516.202,152.23C516.058,152.23 515.94,152.11 515.94,151.964C515.94,151.817 516.058,151.698 516.202,151.698C516.348,151.698 516.465,151.817 516.465,151.964Z" style="fill:none;stroke-width:0.71px;stroke:rgb(108,201,213);"/>
            </g>
            <g transform="matrix(6.12323e-17,1,-1,6.12323e-17,193.956,-491.799)">
                <path d="M498.839,172.754C498.839,172.9 498.956,173.02 499.102,173.02C499.246,173.02 499.364,172.9 499.364,172.754C499.364,172.607 499.246,172.488 499.102,172.488C498.956,172.488 498.839,172.607 498.839,172.754" style="fill:rgb(51,204,102);stroke-width:1px;stroke-linejoin:round;stroke-miterlimit:1.41421;stroke:rgb(108,201,213);"/>
            </g>
            <g transform="matrix(6.12323e-17,1,-1,6.12323e-17,193.956,-491.799)">
                <path d="M498.839,172.754C498.839,172.9 498.956,173.02 499.102,173.02C499.246,173.02 499.364,172.9 499.364,172.754C499.364,172.607 499.246,172.488 499.102,172.488C498.956,172.488 498.839,172.607 498.839,172.754Z" style="fill:none;stroke-width:0.71px;stroke:rgb(108,201,213);"/>
            </g>
            <g transform="matrix(6.12323e-17,1,-1,6.12323e-17,193.956,-491.799)">
                <path d="M507.193,159.727C507.193,159.874 507.31,159.993 507.455,159.993C507.6,159.993 507.717,159.874 507.717,159.727C507.717,159.58 507.6,159.461 507.455,159.461C507.31,159.461 507.193,159.58 507.193,159.727" style="fill:rgb(51,204,102);stroke-width:1px;stroke-linejoin:round;stroke-miterlimit:1.41421;stroke:rgb(108,201,213);"/>
            </g>
            <g transform="matrix(6.12323e-17,1,-1,6.12323e-17,193.956,-491.799)">
                <path d="M507.193,159.727C507.193,159.874 507.31,159.993 507.455,159.993C507.6,159.993 507.717,159.874 507.717,159.727C507.717,159.58 507.6,159.461 507.455,159.461C507.31,159.461 507.193,159.58 507.193,159.727Z" style="fill:none;stroke-width:0.71px;stroke:rgb(108,201,213);"/>
            </g>
            <g transform="matrix(6.12323e-17,1,-1,6.12323e-17,193.956,-491.799)">
                <path d="M508.769,176.475C508.769,176.622 508.887,176.741 509.032,176.741C509.177,176.741 509.295,176.622 509.295,176.475C509.295,176.328 509.177,176.209 509.032,176.209C508.887,176.209 508.769,176.328 508.769,176.475" style="fill:rgb(51,204,102);stroke-width:1px;stroke-linejoin:round;stroke-miterlimit:1.41421;stroke:rgb(108,201,213);"/>
            </g>
            <g transform="matrix(6.12323e-17,1,-1,6.12323e-17,193.956,-491.799)">
                <path d="M508.769,176.475C508.769,176.622 508.887,176.741 509.032,176.741C509.177,176.741 509.295,176.622 509.295,176.475C509.295,176.328 509.177,176.209 509.032,176.209C508.887,176.209 508.769,176.328 508.769,176.475Z" style="fill:none;stroke-width:0.71px;stroke:rgb(108,201,213);"/>
            </g>
            <g transform="matrix(6.12323e-17,1,-1,6.12323e-17,193.956,-491.799)">
                <path d="M515.967,168.606C515.967,168.752 516.085,168.872 516.23,168.872C516.375,168.872 516.492,168.752 516.492,168.606C516.492,168.459 516.375,168.34 516.23,168.34C516.085,168.34 515.967,168.459 515.967,168.606" style="fill:rgb(51,204,102);stroke-width:1px;stroke-linejoin:round;stroke-miterlimit:1.41421;stroke:rgb(108,201,213);"/>
            </g>
            <g transform="matrix(6.12323e-17,1,-1,6.12323e-17,193.956,-491.799)">
                <path d="M515.967,168.606C515.967,168.752 516.085,168.872 516.23,168.872C516.375,168.872 516.492,168.752 516.492,168.606C516.492,168.459 516.375,168.34 516.23,168.34C516.085,168.34 515.967,168.459 515.967,168.606Z" style="fill:none;stroke-width:0.71px;stroke:rgb(108,201,213);"/>
            </g>
            <g transform="matrix(6.12323e-17,1,-1,6.12323e-17,193.956,-491.799)">
                <path d="M515.967,184.609C515.967,184.756 516.085,184.875 516.23,184.875C516.375,184.875 516.492,184.756 516.492,184.609C516.492,184.462 516.375,184.343 516.23,184.343C516.085,184.343 515.967,184.462 515.967,184.609" style="fill:rgb(51,204,102);stroke-width:1px;stroke-linejoin:round;stroke-miterlimit:1.41421;stroke:rgb(108,201,213);"/>
            </g>
            <g transform="matrix(6.12323e-17,1,-1,6.12323e-17,193.956,-491.799)">
                <path d="M515.967,184.609C515.967,184.756 516.085,184.875 516.23,184.875C516.375,184.875 516.492,184.756 516.492,184.609C516.492,184.462 516.375,184.343 516.23,184.343C516.085,184.343 515.967,184.462 515.967,184.609Z" style="fill:none;stroke-width:0.71px;stroke:rgb(108,201,213);"/>
            </g>
            <g transform="matrix(6.12323e-17,1,-1,6.12323e-17,193.956,-491.799)">
                <path d="M492.791,151.973C501.438,140.07 509.255,131.676 516.139,126.884" style="fill:none;stroke-width:0.71px;stroke:rgb(108,201,213);"/>
            </g>
            <g transform="matrix(6.12323e-17,1,-1,6.12323e-17,193.956,-491.799)">
                <path d="M516.139,126.883C511.962,124.085 508.219,122.493 504.81,122.198C498.662,121.737 494.863,123.829 493.409,128.472C491.693,135.242 496.281,143.075 507.174,151.972" style="fill:none;stroke-width:0.71px;stroke:rgb(108,201,213);"/>
            </g>
            <g transform="matrix(6.12323e-17,1,-1,6.12323e-17,193.956,-491.799)">
                <path d="M516.145,144.978C512.78,141.979 509.788,138.533 507.07,134.732" style="fill:none;stroke-width:0.71px;stroke:rgb(108,201,213);"/>
            </g>
            <g transform="matrix(6.12323e-17,1,-1,6.12323e-17,193.956,-491.799)">
                <path d="M507.217,151.972C510.323,149.545 513.336,147.376 516.177,144.978" style="fill:none;stroke-width:0.71px;stroke:rgb(108,201,213);"/>
            </g>
            <g transform="matrix(6.12323e-17,1,-1,6.12323e-17,193.956,-491.799)">
                <path d="M507.069,134.732C500.391,123.527 506.525,111.675 516.172,110.979" style="fill:none;stroke-width:0.71px;stroke:rgb(108,201,213);"/>
            </g>
            <g transform="matrix(6.12323e-17,1,-1,6.12323e-17,193.956,-491.799)">
                <path d="M539.562,151.971C530.914,163.874 523.098,172.268 516.214,177.06" style="fill:none;stroke-width:0.71px;stroke:rgb(108,201,213);"/>
            </g>
            <g transform="matrix(6.12323e-17,1,-1,6.12323e-17,193.956,-491.799)">
                <path d="M516.215,177.06C520.391,179.858 524.134,181.45 527.543,181.745C533.691,182.206 537.491,180.114 538.945,175.471C540.661,168.701 536.072,160.868 525.179,151.971" style="fill:none;stroke-width:0.71px;stroke:rgb(108,201,213);"/>
            </g>
            <g transform="matrix(6.12323e-17,1,-1,6.12323e-17,193.956,-491.799)">
                <path d="M516.209,158.965C519.574,161.964 522.566,165.41 525.284,169.211" style="fill:none;stroke-width:0.71px;stroke:rgb(108,201,213);"/>
            </g>
            <g transform="matrix(6.12323e-17,1,-1,6.12323e-17,193.956,-491.799)">
                <path d="M525.137,151.971C522.031,154.398 519.018,156.567 516.177,158.965" style="fill:none;stroke-width:0.71px;stroke:rgb(108,201,213);"/>
            </g>
            <g transform="matrix(6.12323e-17,1,-1,6.12323e-17,193.956,-491.799)">
                <path d="M525.284,169.211C531.961,180.416 525.827,192.268 516.181,192.964" style="fill:none;stroke-width:0.71px;stroke:rgb(108,201,213);"/>
            </g>
            <g transform="matrix(6.12323e-17,1,-1,6.12323e-17,193.956,-491.799)">
                <path d="M492.791,151.973C501.438,163.876 509.255,172.269 516.139,177.06" style="fill:none;stroke-width:0.71px;stroke:rgb(108,201,213);"/>
            </g>
            <g transform="matrix(6.12323e-17,1,-1,6.12323e-17,193.956,-491.799)">
                <path d="M516.139,177.06C511.962,179.858 508.219,181.451 504.81,181.747C498.662,182.207 494.863,180.116 493.409,175.473C491.693,168.703 496.281,160.87 507.174,151.972" style="fill:none;stroke-width:0.71px;stroke:rgb(108,201,213);"/>
            </g>
            <g transform="matrix(6.12323e-17,1,-1,6.12323e-17,193.956,-491.799)">
                <path d="M516.145,158.965C512.78,161.965 509.788,165.41 507.07,169.212" style="fill:none;stroke-width:0.71px;stroke:rgb(108,201,213);"/>
            </g>
            <g transform="matrix(6.12323e-17,1,-1,6.12323e-17,193.956,-491.799)">
                <path d="M507.217,151.972C510.323,154.399 513.336,156.567 516.177,158.965" style="fill:none;stroke-width:0.71px;stroke:rgb(108,201,213);"/>
            </g>
            <g transform="matrix(6.12323e-17,1,-1,6.12323e-17,193.956,-491.799)">
                <path d="M507.069,169.212C500.391,180.417 506.525,192.269 516.172,192.964" style="fill:none;stroke-width:0.71px;stroke:rgb(108,201,213);"/>
            </g>
            <g transform="matrix(6.12323e-17,1,-1,6.12323e-17,193.956,-491.799)">
                <path d="M533.359,151.995C533.359,152.142 533.242,152.261 533.096,152.261C532.952,152.261 532.834,152.142 532.834,151.995C532.834,151.849 532.952,151.729 533.096,151.729C533.242,151.729 533.359,151.848 533.359,151.995" style="fill:rgb(51,204,102);stroke-width:1px;stroke-linejoin:round;stroke-miterlimit:1.41421;stroke:rgb(108,201,213);"/>
            </g>
            <g transform="matrix(6.12323e-17,1,-1,6.12323e-17,193.956,-491.799)">
                <path d="M533.359,151.995C533.359,152.142 533.242,152.261 533.096,152.261C532.952,152.261 532.834,152.142 532.834,151.995C532.834,151.849 532.952,151.729 533.096,151.729C533.242,151.729 533.359,151.848 533.359,151.995Z" style="fill:none;stroke-width:0.71px;stroke:rgb(108,201,213);"/>
            </g>
            <g transform="matrix(6.12323e-17,1,-1,6.12323e-17,193.956,-491.799)">
                <path d="M499.585,151.996C499.585,152.143 499.467,152.262 499.322,152.262C499.177,152.262 499.06,152.143 499.06,151.996C499.06,151.85 499.177,151.73 499.322,151.73C499.467,151.73 499.585,151.85 499.585,151.996" style="fill:rgb(51,204,102);stroke-width:1px;stroke-linejoin:round;stroke-miterlimit:1.41421;stroke:rgb(108,201,213);"/>
            </g>
            <g transform="matrix(6.12323e-17,1,-1,6.12323e-17,193.956,-491.799)">
                <path d="M499.585,151.996C499.585,152.143 499.467,152.262 499.322,152.262C499.177,152.262 499.06,152.143 499.06,151.996C499.06,151.85 499.177,151.73 499.322,151.73C499.467,151.73 499.585,151.85 499.585,151.996Z" style="fill:none;stroke-width:0.71px;stroke:rgb(108,201,213);"/>
            </g>
        </g>
    </g>
</svg>
