<?xml version="1.0" encoding="UTF-8" standalone="no"?>
<!DOCTYPE svg PUBLIC "-//W3C//DTD SVG 1.1//EN" "http://www.w3.org/Graphics/SVG/1.1/DTD/svg11.dtd">
<svg width="100%" height="100%" viewBox="0 0 815 378" version="1.1" xmlns="http://www.w3.org/2000/svg" xmlns:xlink="http://www.w3.org/1999/xlink" xml:space="preserve" style="fill-rule:evenodd;clip-rule:evenodd;stroke-linejoin:round;stroke-miterlimit:1.41421;">
    <g id="Rainbow" transform="matrix(1,0,0,1,-281.99,-1846.1)">
        <g transform="matrix(0.873152,0,0,0.873152,76.9582,271.9)">
            <g transform="matrix(2.90286,0,0,2.90286,294.123,1669.32)">
                <path d="M11.737,169.612C11.737,166.337 11.737,165.749 11.695,165.077C11.653,164.362 11.485,164.026 10.792,163.88C10.624,163.838 10.267,163.817 10.078,163.817C9.994,163.817 9.91,163.774 9.91,163.69C9.91,163.565 10.015,163.522 10.246,163.522C11.191,163.522 12.451,163.585 12.619,163.585C13.081,163.585 14.299,163.522 15.265,163.522C17.89,163.522 18.834,164.405 19.17,164.719C19.632,165.16 20.22,166.105 20.22,167.217C20.22,170.199 18.036,172.215 15.055,172.215C14.95,172.215 14.719,172.215 14.614,172.194C14.509,172.194 14.383,172.152 14.383,172.048C14.383,171.88 14.509,171.859 14.95,171.859C16.987,171.859 18.582,170.369 18.582,168.437C18.582,167.744 18.519,166.337 17.406,165.203C16.293,164.07 15.012,164.154 14.53,164.154C14.173,164.154 13.816,164.195 13.627,164.279C13.501,164.322 13.459,164.468 13.459,164.678L13.459,173.308C13.459,175.324 13.459,176.982 13.564,177.864C13.627,178.472 13.753,178.935 14.383,179.019C14.677,179.06 15.139,179.103 15.328,179.103C15.454,179.103 15.496,179.166 15.496,179.228C15.496,179.333 15.391,179.396 15.16,179.396C14.005,179.396 12.682,179.333 12.577,179.333C12.514,179.333 11.191,179.396 10.561,179.396C10.33,179.396 10.225,179.355 10.225,179.228C10.225,179.165 10.267,179.103 10.393,179.103C10.582,179.103 10.834,179.06 11.023,179.019C11.443,178.935 11.548,178.472 11.632,177.864C11.737,176.982 11.737,175.324 11.737,173.308L11.737,169.612L11.737,169.612Z" style="fill:rgb(99,99,99);fill-rule:nonzero;"/>
            </g>
            <g transform="matrix(2.90286,0,0,2.90286,294.123,1669.32)">
                <path d="M24.4,171.061C24.4,168.29 24.4,167.786 24.358,167.218C24.316,166.61 24.211,166.316 23.602,166.232C23.455,166.211 23.14,166.19 22.972,166.19C22.909,166.19 22.825,166.106 22.825,166.043C22.825,165.939 22.909,165.897 23.119,165.897C23.959,165.897 25.198,165.939 25.303,165.939C25.492,165.939 27.046,165.897 27.613,165.897C28.789,165.897 30.091,166.002 31.056,166.674C31.518,167.01 32.337,167.87 32.337,169.11C32.337,170.432 31.791,171.714 30.069,173.182C31.581,175.073 32.861,176.689 33.932,177.801C34.919,178.809 35.528,178.977 35.99,179.04C36.347,179.103 36.536,179.103 36.641,179.103C36.746,179.103 36.809,179.187 36.809,179.249C36.809,179.354 36.704,179.395 36.368,179.395L35.213,179.395C34.163,179.395 33.701,179.291 33.239,179.039C32.441,178.619 31.769,177.759 30.719,176.415C29.942,175.448 29.123,174.294 28.724,173.811C28.64,173.727 28.598,173.706 28.472,173.706L26.12,173.664C26.036,173.664 25.994,173.706 25.994,173.811L25.994,174.231C25.994,175.952 25.994,177.338 26.078,178.073C26.141,178.598 26.246,178.934 26.813,179.018C27.065,179.059 27.464,179.102 27.632,179.102C27.758,179.102 27.779,179.186 27.779,179.248C27.779,179.332 27.695,179.394 27.485,179.394C26.477,179.394 25.301,179.331 25.217,179.331C25.196,179.331 23.957,179.394 23.39,179.394C23.201,179.394 23.096,179.353 23.096,179.248C23.096,179.185 23.138,179.102 23.243,179.102C23.411,179.102 23.642,179.059 23.81,179.018C24.167,178.934 24.209,178.598 24.293,178.073C24.398,177.339 24.398,175.931 24.398,174.21L24.398,171.061L24.4,171.061ZM25.996,172.572C25.996,172.676 26.038,172.74 26.122,172.803C26.395,172.949 27.34,173.075 28.159,173.075C28.6,173.075 29.104,173.054 29.545,172.76C30.175,172.34 30.658,171.396 30.658,170.031C30.658,167.804 29.44,166.524 27.467,166.524C26.921,166.524 26.333,166.587 26.144,166.628C26.06,166.671 25.997,166.733 25.997,166.839L25.997,172.572L25.996,172.572Z" style="fill:rgb(99,99,99);fill-rule:nonzero;"/>
            </g>
            <g transform="matrix(2.90286,0,0,2.90286,294.123,1669.32)">
                <path d="M38.512,171.061C38.512,168.29 38.512,167.786 38.47,167.218C38.428,166.61 38.323,166.316 37.714,166.232C37.567,166.211 37.252,166.19 37.084,166.19C37.021,166.19 36.937,166.106 36.937,166.043C36.937,165.939 37.021,165.897 37.231,165.897C38.071,165.897 39.268,165.939 39.373,165.939C39.499,165.939 43.362,165.96 43.782,165.939C44.139,165.918 44.475,165.855 44.622,165.835C44.706,165.814 44.79,165.751 44.874,165.751C44.937,165.751 44.958,165.835 44.958,165.919C44.958,166.044 44.853,166.255 44.811,166.759C44.79,166.927 44.748,167.724 44.706,167.935C44.685,168.019 44.622,168.123 44.538,168.123C44.433,168.123 44.391,168.039 44.391,167.892C44.391,167.767 44.37,167.472 44.286,167.263C44.16,166.968 43.971,166.843 42.963,166.716C42.648,166.675 40.506,166.653 40.296,166.653C40.212,166.653 40.191,166.716 40.191,166.842L40.191,171.692C40.191,171.818 40.191,171.881 40.296,171.881C40.527,171.881 42.963,171.881 43.382,171.838C43.823,171.797 44.096,171.775 44.285,171.586C44.411,171.461 44.495,171.356 44.558,171.356C44.621,171.356 44.663,171.398 44.663,171.502C44.663,171.607 44.558,171.901 44.516,172.489C44.474,172.845 44.432,173.517 44.432,173.644C44.432,173.79 44.39,173.98 44.264,173.98C44.18,173.98 44.138,173.917 44.138,173.812C44.138,173.644 44.138,173.455 44.054,173.224C43.991,172.972 43.823,172.761 43.109,172.677C42.605,172.614 40.631,172.593 40.317,172.593C40.212,172.593 40.191,172.656 40.191,172.72L40.191,174.21C40.191,174.819 40.17,176.898 40.191,177.255C40.233,178.451 40.569,178.683 42.396,178.683C42.879,178.683 43.761,178.683 44.244,178.494C44.727,178.284 44.979,177.969 45.084,177.256C45.126,177.045 45.168,176.983 45.273,176.983C45.378,176.983 45.399,177.129 45.399,177.256C45.399,177.381 45.252,178.6 45.147,178.977C45.021,179.44 44.832,179.44 44.118,179.44C42.732,179.44 41.661,179.397 40.906,179.377C40.129,179.335 39.646,179.335 39.373,179.335C39.331,179.335 38.974,179.335 38.575,179.356C38.218,179.377 37.798,179.397 37.504,179.397C37.315,179.397 37.21,179.356 37.21,179.251C37.21,179.188 37.252,179.105 37.357,179.105C37.525,179.105 37.756,179.042 37.924,179.021C38.281,178.958 38.323,178.601 38.407,178.076C38.512,177.342 38.512,175.934 38.512,174.213L38.512,171.061Z" style="fill:rgb(99,99,99);fill-rule:nonzero;"/>
            </g>
            <g transform="matrix(2.90286,0,0,2.90286,294.123,1669.32)">
                <path d="M63.919,177.087C63.982,177.716 64.108,178.683 64.864,178.935C65.389,179.103 65.872,179.103 66.061,179.103C66.145,179.103 66.208,179.144 66.208,179.228C66.208,179.333 66.04,179.396 65.83,179.396C65.41,179.396 63.352,179.355 62.681,179.292C62.24,179.25 62.156,179.188 62.156,179.104C62.156,179.041 62.198,178.977 62.282,178.957C62.387,178.936 62.408,178.663 62.366,178.327L61.484,169.299L61.442,169.299L56.991,178.411C56.613,179.188 56.508,179.356 56.34,179.356C56.172,179.356 56.067,179.188 55.71,178.537C55.227,177.655 54.009,175.366 53.547,174.401C53.001,173.266 51.51,170.264 51.195,169.53L51.111,169.53L50.397,177.593C50.376,177.865 50.376,178.201 50.376,178.495C50.376,178.768 50.544,178.936 50.817,178.999C51.132,179.083 51.405,179.104 51.531,179.104C51.594,179.104 51.678,179.167 51.678,179.229C51.678,179.356 51.552,179.397 51.342,179.397C50.649,179.397 49.767,179.334 49.62,179.334C49.452,179.334 48.57,179.397 48.066,179.397C47.877,179.397 47.751,179.356 47.751,179.229C47.751,179.166 47.835,179.104 47.94,179.104C48.087,179.104 48.213,179.083 48.486,179.041C49.095,178.937 49.116,178.285 49.2,177.613L50.544,165.96C50.565,165.772 50.649,165.646 50.754,165.646C50.88,165.646 51.027,165.709 51.132,165.919L56.717,177.005L62.092,165.94C62.176,165.772 62.26,165.646 62.386,165.646C62.512,165.646 62.617,165.792 62.659,166.128L63.919,177.087Z" style="fill:rgb(99,99,99);fill-rule:nonzero;"/>
            </g>
            <g transform="matrix(2.90286,0,0,2.90286,294.123,1669.32)">
                <path d="M72.678,166.253C72.909,165.665 72.993,165.56 73.119,165.56C73.308,165.56 73.371,165.812 73.56,166.21C73.896,166.966 76.856,174.336 77.99,177.044C78.662,178.64 79.166,178.871 79.565,178.997C79.838,179.081 80.111,179.102 80.3,179.102C80.405,179.102 80.531,179.143 80.531,179.248C80.531,179.353 80.321,179.394 80.111,179.394C79.838,179.394 78.473,179.394 77.193,179.353C76.836,179.332 76.542,179.332 76.542,179.226C76.542,179.142 76.584,179.142 76.668,179.101C76.773,179.058 76.962,178.912 76.836,178.618L75.177,174.523C75.135,174.439 75.114,174.419 75.009,174.419L70.747,174.419C70.663,174.419 70.6,174.461 70.558,174.566L69.508,177.421C69.34,177.861 69.235,178.302 69.235,178.617C69.235,178.973 69.55,179.1 69.865,179.1L70.033,179.1C70.18,179.1 70.222,179.163 70.222,179.246C70.222,179.351 70.117,179.392 69.949,179.392C69.508,179.392 68.5,179.329 68.29,179.329C68.101,179.329 67.177,179.392 66.421,179.392C66.19,179.392 66.064,179.351 66.064,179.246C66.064,179.162 66.148,179.1 66.232,179.1C66.358,179.1 66.631,179.079 66.778,179.057C67.618,178.953 67.975,178.323 68.332,177.42L72.678,166.253ZM74.735,173.685C74.819,173.685 74.819,173.644 74.798,173.56L72.971,168.667C72.866,168.394 72.761,168.394 72.656,168.667L70.934,173.56C70.913,173.644 70.934,173.685 70.997,173.685L74.735,173.685Z" style="fill:rgb(99,99,99);fill-rule:nonzero;"/>
            </g>
            <g transform="matrix(2.90286,0,0,2.90286,294.123,1669.32)">
                <path d="M90.276,169.612C90.276,166.337 90.276,165.749 90.234,165.077C90.192,164.362 90.024,164.026 89.331,163.88C89.163,163.838 88.806,163.817 88.617,163.817C88.533,163.817 88.449,163.774 88.449,163.69C88.449,163.565 88.554,163.522 88.785,163.522C89.268,163.522 89.835,163.522 90.297,163.543L91.158,163.585C91.578,163.606 95.84,163.585 96.323,163.564C96.722,163.543 97.058,163.543 97.247,163.48C97.373,163.437 97.457,163.353 97.541,163.353C97.625,163.353 97.667,163.437 97.667,163.542C97.667,163.688 97.562,163.94 97.499,164.528C97.478,164.739 97.436,165.663 97.394,165.915C97.373,166.019 97.331,166.145 97.226,166.145C97.121,166.145 97.079,166.04 97.079,165.893C97.079,165.725 97.016,165.368 96.89,165.095C96.764,164.822 96.281,164.444 95.462,164.423L92.229,164.36C92.103,164.36 92.04,164.423 92.04,164.591L92.04,170.386C92.04,170.512 92.061,170.574 92.187,170.574L94.875,170.553C95.232,170.553 95.526,170.553 95.82,170.532C96.324,170.489 96.597,170.427 96.786,170.153C96.87,170.049 96.933,169.944 97.017,169.944C97.101,169.944 97.122,170.007 97.122,170.112C97.122,170.237 97.017,170.594 96.954,171.288C96.912,171.708 96.87,172.548 96.87,172.694C96.87,172.883 96.87,173.092 96.723,173.092C96.618,173.092 96.576,173.008 96.576,172.904C96.555,172.694 96.534,172.4 96.45,172.148C96.345,171.854 96.009,171.476 95.358,171.392C94.833,171.329 92.545,171.329 92.188,171.329C92.083,171.329 92.041,171.372 92.041,171.518L92.041,173.303C92.041,175.319 92.041,176.977 92.146,177.859C92.209,178.467 92.335,178.93 92.965,179.014C93.259,179.055 93.721,179.098 93.91,179.098C94.036,179.098 94.078,179.161 94.078,179.223C94.078,179.328 93.973,179.391 93.742,179.391C92.587,179.391 91.264,179.328 91.159,179.328C91.054,179.328 89.731,179.391 89.101,179.391C88.87,179.391 88.765,179.35 88.765,179.223C88.765,179.16 88.807,179.098 88.933,179.098C89.122,179.098 89.374,179.055 89.563,179.014C89.983,178.93 90.088,178.467 90.172,177.859C90.277,176.977 90.277,175.319 90.277,173.303L90.277,169.612L90.276,169.612Z" style="fill:rgb(99,99,99);fill-rule:nonzero;"/>
            </g>
            <g transform="matrix(2.90286,0,0,2.90286,294.123,1669.32)">
                <path d="M103.905,174.252C103.905,176.876 103.947,177.947 104.283,178.263C104.577,178.556 105.291,178.683 106.74,178.683C107.706,178.683 108.525,178.662 108.966,178.136C109.197,177.864 109.344,177.486 109.407,177.128C109.428,177.003 109.491,176.898 109.596,176.898C109.68,176.898 109.722,176.982 109.722,177.171C109.722,177.359 109.596,178.431 109.449,178.955C109.323,179.375 109.26,179.438 108.273,179.438C106.95,179.438 105.921,179.417 105.061,179.375C104.221,179.354 103.591,179.333 103.045,179.333C102.961,179.333 102.646,179.333 102.289,179.354C101.911,179.375 101.512,179.395 101.218,179.395C101.029,179.395 100.924,179.354 100.924,179.249C100.924,179.186 100.966,179.103 101.071,179.103C101.239,179.103 101.47,179.06 101.638,179.019C101.995,178.935 102.037,178.599 102.121,178.074C102.226,177.34 102.226,175.932 102.226,174.211L102.226,171.062C102.226,168.291 102.226,167.787 102.184,167.219C102.142,166.611 102.037,166.317 101.428,166.233C101.281,166.212 100.966,166.191 100.798,166.191C100.735,166.191 100.651,166.107 100.651,166.044C100.651,165.94 100.735,165.898 100.945,165.898C101.785,165.898 102.94,165.94 103.045,165.94C103.129,165.94 104.515,165.898 105.082,165.898C105.271,165.898 105.376,165.94 105.376,166.044C105.376,166.107 105.292,166.171 105.229,166.171C105.103,166.171 104.83,166.192 104.62,166.212C104.074,166.317 103.969,166.591 103.927,167.22C103.906,167.787 103.906,168.291 103.906,171.063L103.906,174.252L103.905,174.252Z" style="fill:rgb(99,99,99);fill-rule:nonzero;"/>
            </g>
            <g transform="matrix(2.90286,0,0,2.90286,294.123,1669.32)">
                <path d="M118.226,165.644C122.383,165.644 125.533,168.185 125.533,172.341C125.533,176.331 122.573,179.627 118.121,179.627C113.061,179.627 110.898,175.827 110.898,172.614C110.898,169.737 113.124,165.644 118.226,165.644ZM118.646,178.892C120.305,178.892 123.643,178.011 123.643,172.845C123.643,168.562 121.039,166.316 118.121,166.316C115.035,166.316 112.809,168.248 112.809,172.132C112.809,176.288 115.308,178.892 118.646,178.892Z" style="fill:rgb(99,99,99);fill-rule:nonzero;"/>
            </g>
            <g transform="matrix(2.90286,0,0,2.90286,294.123,1669.32)">
                <path d="M129.399,171.061C129.399,168.29 129.399,167.786 129.357,167.218C129.315,166.61 129.21,166.316 128.601,166.232C128.454,166.211 128.139,166.19 127.971,166.19C127.908,166.19 127.824,166.106 127.824,166.043C127.824,165.939 127.908,165.897 128.118,165.897C128.958,165.897 130.197,165.939 130.302,165.939C130.491,165.939 132.045,165.897 132.612,165.897C133.788,165.897 135.09,166.002 136.055,166.674C136.517,167.01 137.336,167.87 137.336,169.11C137.336,170.432 136.79,171.714 135.068,173.182C136.58,175.073 137.86,176.689 138.931,177.801C139.918,178.809 140.527,178.977 140.989,179.04C141.346,179.103 141.535,179.103 141.64,179.103C141.745,179.103 141.808,179.187 141.808,179.249C141.808,179.354 141.703,179.395 141.367,179.395L140.212,179.395C139.162,179.395 138.7,179.291 138.238,179.039C137.44,178.619 136.768,177.759 135.718,176.415C134.941,175.448 134.122,174.294 133.723,173.811C133.639,173.727 133.597,173.706 133.471,173.706L131.119,173.664C131.035,173.664 130.993,173.706 130.993,173.811L130.993,174.231C130.993,175.952 130.993,177.338 131.077,178.073C131.14,178.598 131.245,178.934 131.812,179.018C132.064,179.059 132.463,179.102 132.631,179.102C132.757,179.102 132.778,179.186 132.778,179.248C132.778,179.332 132.694,179.394 132.484,179.394C131.476,179.394 130.3,179.331 130.216,179.331C130.195,179.331 128.956,179.394 128.389,179.394C128.2,179.394 128.095,179.353 128.095,179.248C128.095,179.185 128.137,179.102 128.242,179.102C128.41,179.102 128.641,179.059 128.809,179.018C129.166,178.934 129.208,178.598 129.292,178.073C129.397,177.339 129.397,175.931 129.397,174.21L129.397,171.061L129.399,171.061ZM130.995,172.572C130.995,172.676 131.037,172.74 131.121,172.803C131.394,172.949 132.339,173.075 133.158,173.075C133.599,173.075 134.103,173.054 134.544,172.76C135.174,172.34 135.657,171.396 135.657,170.031C135.657,167.804 134.439,166.524 132.466,166.524C131.92,166.524 131.332,166.587 131.143,166.628C131.059,166.671 130.996,166.733 130.996,166.839L130.996,172.572L130.995,172.572Z" style="fill:rgb(99,99,99);fill-rule:nonzero;"/>
            </g>
            <g transform="matrix(2.90286,0,0,2.90286,294.123,1669.32)">
                <path d="M143.511,171.061C143.511,168.29 143.511,167.786 143.469,167.218C143.427,166.61 143.322,166.316 142.713,166.232C142.566,166.211 142.251,166.19 142.083,166.19C142.02,166.19 141.936,166.106 141.936,166.043C141.936,165.939 142.02,165.897 142.23,165.897C143.07,165.897 144.267,165.939 144.372,165.939C144.498,165.939 148.361,165.96 148.781,165.939C149.138,165.918 149.474,165.855 149.621,165.835C149.705,165.814 149.789,165.751 149.873,165.751C149.936,165.751 149.957,165.835 149.957,165.919C149.957,166.044 149.852,166.255 149.81,166.759C149.789,166.927 149.747,167.724 149.705,167.935C149.684,168.019 149.621,168.123 149.537,168.123C149.432,168.123 149.39,168.039 149.39,167.892C149.39,167.767 149.369,167.472 149.285,167.263C149.159,166.968 148.97,166.843 147.962,166.716C147.647,166.675 145.505,166.653 145.295,166.653C145.211,166.653 145.19,166.716 145.19,166.842L145.19,171.692C145.19,171.818 145.19,171.881 145.295,171.881C145.526,171.881 147.962,171.881 148.381,171.838C148.822,171.797 149.095,171.775 149.284,171.586C149.41,171.461 149.494,171.356 149.557,171.356C149.62,171.356 149.662,171.398 149.662,171.502C149.662,171.607 149.557,171.901 149.515,172.489C149.473,172.845 149.431,173.517 149.431,173.644C149.431,173.79 149.389,173.98 149.263,173.98C149.179,173.98 149.137,173.917 149.137,173.812C149.137,173.644 149.137,173.455 149.053,173.224C148.99,172.972 148.822,172.761 148.108,172.677C147.604,172.614 145.63,172.593 145.316,172.593C145.211,172.593 145.19,172.656 145.19,172.72L145.19,174.21C145.19,174.819 145.169,176.898 145.19,177.255C145.232,178.451 145.568,178.683 147.395,178.683C147.878,178.683 148.76,178.683 149.243,178.494C149.726,178.284 149.978,177.969 150.083,177.256C150.125,177.045 150.167,176.983 150.272,176.983C150.377,176.983 150.398,177.129 150.398,177.256C150.398,177.381 150.251,178.6 150.146,178.977C150.02,179.44 149.831,179.44 149.117,179.44C147.731,179.44 146.66,179.397 145.905,179.377C145.128,179.335 144.645,179.335 144.372,179.335C144.33,179.335 143.973,179.335 143.574,179.356C143.217,179.377 142.797,179.397 142.503,179.397C142.314,179.397 142.209,179.356 142.209,179.251C142.209,179.188 142.251,179.105 142.356,179.105C142.524,179.105 142.755,179.042 142.923,179.021C143.28,178.958 143.322,178.601 143.406,178.076C143.511,177.342 143.511,175.934 143.511,174.213L143.511,171.061L143.511,171.061Z" style="fill:rgb(99,99,99);fill-rule:nonzero;"/>
            </g>
            <g transform="matrix(2.90286,0,0,2.90286,294.123,1669.32)">
                <path d="M155.858,176.96C155.9,178.431 156.068,178.871 156.572,178.997C156.908,179.081 157.328,179.102 157.496,179.102C157.58,179.102 157.643,179.165 157.643,179.248C157.643,179.353 157.517,179.394 157.307,179.394C156.257,179.394 155.522,179.331 155.354,179.331C155.186,179.331 154.409,179.394 153.569,179.394C153.38,179.394 153.275,179.373 153.275,179.248C153.275,179.164 153.338,179.102 153.422,179.102C153.569,179.102 153.905,179.081 154.178,178.997C154.64,178.871 154.703,178.388 154.703,176.771L154.703,166.545C154.703,165.832 154.808,165.643 154.955,165.643C155.165,165.643 155.48,166 155.669,166.189C155.963,166.483 158.65,169.338 161.506,172.278C163.333,174.168 165.306,176.288 165.873,176.876L165.684,167.933C165.663,166.778 165.558,166.378 164.991,166.274C164.655,166.211 164.235,166.19 164.088,166.19C163.962,166.19 163.941,166.086 163.941,166.022C163.941,165.918 164.088,165.896 164.298,165.896C165.138,165.896 166.02,165.938 166.23,165.938C166.44,165.938 167.049,165.896 167.805,165.896C167.994,165.896 168.141,165.917 168.141,166.022C168.141,166.085 168.057,166.19 167.931,166.19C167.847,166.19 167.7,166.19 167.49,166.232C166.881,166.358 166.839,166.714 166.839,167.786L166.797,178.242C166.797,179.418 166.776,179.523 166.65,179.523C166.461,179.523 166.272,179.376 165.243,178.431C165.054,178.263 162.388,175.638 160.435,173.601C158.293,171.355 156.215,169.171 155.648,168.541L155.858,176.96Z" style="fill:rgb(99,99,99);fill-rule:nonzero;"/>
            </g>
            <g transform="matrix(2.90286,0,0,2.90286,294.123,1669.32)">
                <path d="M172.428,177.716C170.622,176.163 170.181,174.126 170.181,172.425C170.181,171.229 170.622,169.15 172.26,167.554C173.373,166.484 175.052,165.644 177.887,165.644C178.622,165.644 179.672,165.707 180.575,165.854C181.268,165.98 181.856,166.106 182.465,166.126C182.654,166.126 182.696,166.21 182.696,166.315C182.696,166.461 182.654,166.672 182.612,167.323C182.591,167.911 182.591,168.897 182.57,169.149C182.549,169.422 182.465,169.528 182.36,169.528C182.234,169.528 182.213,169.401 182.213,169.149C182.213,168.457 181.919,167.743 181.436,167.365C180.785,166.819 179.441,166.378 177.804,166.378C175.431,166.378 174.298,167.009 173.647,167.617C172.282,168.877 171.988,170.472 171.988,172.278C171.988,175.7 174.696,178.745 178.644,178.745C180.03,178.745 180.954,178.64 181.688,177.905C182.087,177.507 182.339,176.751 182.402,176.415C182.444,176.226 182.465,176.163 182.591,176.163C182.675,176.163 182.759,176.288 182.759,176.415C182.759,176.54 182.507,178.095 182.318,178.703C182.213,179.039 182.171,179.102 181.856,179.227C181.1,179.522 179.714,179.626 178.518,179.626C175.745,179.627 173.876,178.976 172.428,177.716Z" style="fill:rgb(99,99,99);fill-rule:nonzero;"/>
            </g>
            <g transform="matrix(2.90286,0,0,2.90286,294.123,1669.32)">
                <path d="M187.148,171.061C187.148,168.29 187.148,167.786 187.106,167.218C187.064,166.61 186.959,166.316 186.35,166.232C186.203,166.211 185.888,166.19 185.72,166.19C185.657,166.19 185.573,166.106 185.573,166.043C185.573,165.939 185.657,165.897 185.867,165.897C186.707,165.897 187.904,165.939 188.009,165.939C188.135,165.939 191.998,165.96 192.418,165.939C192.775,165.918 193.111,165.855 193.258,165.835C193.342,165.814 193.426,165.751 193.51,165.751C193.573,165.751 193.594,165.835 193.594,165.919C193.594,166.044 193.489,166.255 193.447,166.759C193.426,166.927 193.384,167.724 193.342,167.935C193.321,168.019 193.258,168.123 193.174,168.123C193.069,168.123 193.027,168.039 193.027,167.892C193.027,167.767 193.006,167.472 192.922,167.263C192.796,166.968 192.607,166.843 191.599,166.716C191.284,166.675 189.142,166.653 188.932,166.653C188.848,166.653 188.827,166.716 188.827,166.842L188.827,171.692C188.827,171.818 188.827,171.881 188.932,171.881C189.163,171.881 191.599,171.881 192.018,171.838C192.459,171.797 192.732,171.775 192.921,171.586C193.047,171.461 193.131,171.356 193.194,171.356C193.257,171.356 193.299,171.398 193.299,171.502C193.299,171.607 193.194,171.901 193.152,172.489C193.11,172.845 193.068,173.517 193.068,173.644C193.068,173.79 193.026,173.98 192.9,173.98C192.816,173.98 192.774,173.917 192.774,173.812C192.774,173.644 192.774,173.455 192.69,173.224C192.627,172.972 192.459,172.761 191.745,172.677C191.241,172.614 189.267,172.593 188.953,172.593C188.848,172.593 188.827,172.656 188.827,172.72L188.827,174.21C188.827,174.819 188.806,176.898 188.827,177.255C188.869,178.451 189.205,178.683 191.032,178.683C191.515,178.683 192.397,178.683 192.88,178.494C193.363,178.284 193.615,177.969 193.72,177.256C193.762,177.045 193.804,176.983 193.909,176.983C194.014,176.983 194.035,177.129 194.035,177.256C194.035,177.381 193.888,178.6 193.783,178.977C193.657,179.44 193.468,179.44 192.754,179.44C191.368,179.44 190.297,179.397 189.542,179.377C188.765,179.335 188.282,179.335 188.009,179.335C187.967,179.335 187.61,179.335 187.211,179.356C186.854,179.377 186.434,179.397 186.14,179.397C185.951,179.397 185.846,179.356 185.846,179.251C185.846,179.188 185.888,179.105 185.993,179.105C186.161,179.105 186.392,179.042 186.56,179.021C186.917,178.958 186.959,178.601 187.043,178.076C187.148,177.342 187.148,175.934 187.148,174.213L187.148,171.061L187.148,171.061Z" style="fill:rgb(99,99,99);fill-rule:nonzero;"/>
            </g>
            <g transform="matrix(2.90286,0,0,2.90286,294.123,1669.32)">
                <path d="M207.791,173.308C207.791,175.324 207.791,176.982 207.896,177.864C207.959,178.472 208.085,178.935 208.715,179.019C209.009,179.06 209.471,179.103 209.66,179.103C209.786,179.103 209.828,179.166 209.828,179.228C209.828,179.333 209.723,179.396 209.492,179.396C208.337,179.396 207.014,179.333 206.909,179.333C206.804,179.333 205.481,179.396 204.851,179.396C204.62,179.396 204.515,179.355 204.515,179.228C204.515,179.165 204.557,179.103 204.683,179.103C204.872,179.103 205.124,179.06 205.313,179.019C205.733,178.935 205.838,178.472 205.922,177.864C206.027,176.982 206.027,175.324 206.027,173.308L206.027,169.613C206.027,166.338 206.027,165.75 205.985,165.078C205.943,164.363 205.733,164.007 205.271,163.902C205.04,163.839 204.767,163.818 204.62,163.818C204.536,163.818 204.452,163.775 204.452,163.691C204.452,163.566 204.557,163.523 204.788,163.523C205.481,163.523 206.804,163.586 206.909,163.586C207.014,163.586 208.337,163.523 208.967,163.523C209.198,163.523 209.303,163.566 209.303,163.691C209.303,163.775 209.219,163.818 209.135,163.818C208.988,163.818 208.862,163.839 208.61,163.881C208.043,163.986 207.875,164.343 207.833,165.078C207.791,165.75 207.791,166.338 207.791,169.613L207.791,173.308Z" style="fill:rgb(99,99,99);fill-rule:nonzero;"/>
            </g>
            <g transform="matrix(2.90286,0,0,2.90286,294.123,1669.32)">
                <path d="M213.23,179.144C212.978,179.019 212.957,178.956 212.957,178.472C212.957,177.591 213.041,176.876 213.062,176.583C213.062,176.394 213.104,176.288 213.209,176.288C213.314,176.288 213.377,176.351 213.377,176.499C213.377,176.645 213.377,176.897 213.44,177.149C213.734,178.451 215.12,178.913 216.358,178.913C218.185,178.913 219.129,177.884 219.129,176.54C219.129,175.26 218.436,174.651 216.798,173.433L215.958,172.804C213.963,171.313 213.312,170.221 213.312,168.982C213.312,166.882 214.971,165.623 217.406,165.623C218.141,165.623 218.876,165.728 219.317,165.834C219.674,165.918 219.821,165.918 219.968,165.918C220.115,165.918 220.157,165.939 220.157,166.043C220.157,166.127 220.073,166.715 220.073,167.934C220.073,168.206 220.052,168.332 219.926,168.332C219.8,168.332 219.779,168.248 219.758,168.102C219.737,167.891 219.59,167.409 219.485,167.219C219.359,167.01 218.75,166.338 217.091,166.338C215.747,166.338 214.634,167.01 214.634,168.27C214.634,169.403 215.201,170.054 217.028,171.293L217.553,171.649C219.8,173.181 220.576,174.42 220.576,175.953C220.576,177.004 220.177,178.137 218.854,178.998C218.077,179.502 216.922,179.628 215.915,179.628C215.057,179.627 213.986,179.501 213.23,179.144Z" style="fill:rgb(99,99,99);fill-rule:nonzero;"/>
            </g>
            <g transform="matrix(2.90286,0,0,2.90286,294.123,1669.32)">
                <path d="M228.601,166.253C228.832,165.665 228.916,165.56 229.042,165.56C229.231,165.56 229.294,165.812 229.483,166.21C229.819,166.966 232.779,174.336 233.913,177.044C234.585,178.64 235.089,178.871 235.488,178.997C235.761,179.081 236.034,179.102 236.223,179.102C236.328,179.102 236.454,179.143 236.454,179.248C236.454,179.353 236.244,179.394 236.034,179.394C235.761,179.394 234.396,179.394 233.116,179.353C232.759,179.332 232.465,179.332 232.465,179.226C232.465,179.142 232.507,179.142 232.591,179.101C232.696,179.058 232.885,178.912 232.759,178.618L231.1,174.523C231.058,174.439 231.037,174.419 230.932,174.419L226.67,174.419C226.586,174.419 226.523,174.461 226.481,174.566L225.431,177.421C225.263,177.861 225.158,178.302 225.158,178.617C225.158,178.973 225.473,179.1 225.788,179.1L225.956,179.1C226.103,179.1 226.145,179.163 226.145,179.246C226.145,179.351 226.04,179.392 225.872,179.392C225.431,179.392 224.423,179.329 224.213,179.329C224.024,179.329 223.1,179.392 222.344,179.392C222.113,179.392 221.987,179.351 221.987,179.246C221.987,179.162 222.071,179.1 222.155,179.1C222.281,179.1 222.554,179.079 222.701,179.057C223.541,178.953 223.898,178.323 224.255,177.42L228.601,166.253ZM230.659,173.685C230.743,173.685 230.743,173.644 230.722,173.56L228.895,168.667C228.79,168.394 228.685,168.394 228.58,168.667L226.858,173.56C226.837,173.644 226.858,173.685 226.921,173.685L230.659,173.685Z" style="fill:rgb(99,99,99);fill-rule:nonzero;"/>
            </g>
            <g transform="matrix(2.90286,0,0,2.90286,294.123,1669.32)">
                <path d="M241.705,166.253C241.936,165.665 242.02,165.56 242.146,165.56C242.335,165.56 242.398,165.812 242.587,166.21C242.923,166.966 245.883,174.336 247.017,177.044C247.689,178.64 248.193,178.871 248.592,178.997C248.865,179.081 249.138,179.102 249.327,179.102C249.432,179.102 249.558,179.143 249.558,179.248C249.558,179.353 249.348,179.394 249.138,179.394C248.865,179.394 247.5,179.394 246.22,179.353C245.863,179.332 245.569,179.332 245.569,179.226C245.569,179.142 245.611,179.142 245.695,179.101C245.8,179.058 245.989,178.912 245.863,178.618L244.204,174.523C244.162,174.439 244.141,174.419 244.036,174.419L239.774,174.419C239.69,174.419 239.627,174.461 239.585,174.566L238.535,177.421C238.367,177.861 238.262,178.302 238.262,178.617C238.262,178.973 238.577,179.1 238.892,179.1L239.06,179.1C239.207,179.1 239.249,179.163 239.249,179.246C239.249,179.351 239.144,179.392 238.976,179.392C238.535,179.392 237.527,179.329 237.317,179.329C237.128,179.329 236.204,179.392 235.448,179.392C235.217,179.392 235.091,179.351 235.091,179.246C235.091,179.162 235.175,179.1 235.259,179.1C235.385,179.1 235.658,179.079 235.805,179.057C236.645,178.953 237.002,178.323 237.359,177.42L241.705,166.253ZM243.763,173.685C243.847,173.685 243.847,173.644 243.826,173.56L241.999,168.667C241.894,168.394 241.789,168.394 241.684,168.667L239.962,173.56C239.941,173.644 239.962,173.685 240.025,173.685L243.763,173.685Z" style="fill:rgb(99,99,99);fill-rule:nonzero;"/>
            </g>
            <g transform="matrix(2.90286,0,0,2.90286,294.123,1669.32)">
                <path d="M252.143,177.716C250.337,176.163 249.896,174.126 249.896,172.425C249.896,171.229 250.337,169.15 251.975,167.554C253.088,166.484 254.767,165.644 257.602,165.644C258.337,165.644 259.387,165.707 260.29,165.854C260.983,165.98 261.57,166.106 262.18,166.126C262.369,166.126 262.41,166.21 262.41,166.315C262.41,166.461 262.369,166.672 262.326,167.323C262.305,167.911 262.305,168.897 262.285,169.149C262.264,169.422 262.18,169.528 262.074,169.528C261.949,169.528 261.928,169.401 261.928,169.149C261.928,168.457 261.634,167.743 261.151,167.365C260.5,166.819 259.156,166.378 257.519,166.378C255.146,166.378 254.013,167.009 253.362,167.617C251.997,168.877 251.703,170.472 251.703,172.278C251.703,175.7 254.411,178.745 258.359,178.745C259.745,178.745 260.669,178.64 261.403,177.905C261.802,177.507 262.054,176.751 262.118,176.415C262.159,176.226 262.181,176.163 262.306,176.163C262.39,176.163 262.474,176.288 262.474,176.415C262.474,176.54 262.222,178.095 262.034,178.703C261.929,179.039 261.887,179.102 261.571,179.227C260.816,179.522 259.43,179.626 258.233,179.626C255.46,179.627 253.591,178.976 252.143,177.716Z" style="fill:rgb(99,99,99);fill-rule:nonzero;"/>
            </g>
        </g>
        <g transform="matrix(1,0,0,1,-1.344,0)">
            <g transform="matrix(0.378558,0,0,0.378558,295.031,1878.58)">
                <path d="M574,189L574,638L523,638L523,189L574,189ZM549.5,32C588.962,32 621,63.59 621,102.5C621,141.41 588.962,173 549.5,173C510.038,173 478,141.41 478,102.5C478,63.59 510.038,32 549.5,32Z" style="fill:rgb(83,196,18);"/>
            </g>
            <g transform="matrix(0.378558,0,0,0.378558,295.031,1878.58)">
                <path d="M1829,189L1829,638L1781,638L1781,189L1829,189ZM1805.5,14C1849.38,14 1885,49.623 1885,93.5C1885,137.377 1849.38,173 1805.5,173C1761.62,173 1726,137.377 1726,93.5C1726,49.623 1761.62,14 1805.5,14Z" style="fill:rgb(236,55,164);"/>
            </g>
            <g transform="matrix(0.378558,0,0,0.378558,295.031,1878.58)">
                <path d="M255,638L206,638L206,189L255,189L255,394C363.118,393.364 455.743,301.87 456,189L478,189C478,295.876 401.551,390.112 303,411.252C302.279,504.437 387.463,591.5 478,591.5L478,638C359.01,638 276.662,555.591 255.623,439.326C255.423,438.218 255.202,429.112 255,428L255,638Z" style="fill:rgb(0,225,255);"/>
            </g>
            <g transform="matrix(0.378558,0,0,0.378558,295.031,1878.58)">
                <path d="M956,638L931,638L931,189L956,189L956,638ZM946,14C986.842,14 1020,45.142 1020,83.5C1020,121.858 986.842,153 946,153C905.158,153 872,121.858 872,83.5C872,45.142 905.158,14 946,14ZM946,39.281C971.986,39.281 993.083,59.095 993.083,83.5C993.083,107.905 971.986,127.719 946,127.719C920.014,127.719 898.917,107.905 898.917,83.5C898.917,59.095 920.014,39.281 946,39.281Z" style="fill:rgb(105,126,236);"/>
            </g>
            <g transform="matrix(0.378558,0,0,0.378558,496.614,1949.75)">
                <path d="M135.5,0.5C257.832,0.501 357,101.124 357,225.25C357,349.376 257.831,450 135.5,450L135.5,449.5L88.5,449.5L88.5,0.5L135.5,0.5ZM135.159,47.498C231.909,47.498 310.341,127.08 310.341,225.25C310.341,323.42 231.909,403.002 135.159,403.002L135.159,47.498Z" style="fill:rgb(255,237,46);"/>
            </g>
            <g transform="matrix(0.378558,0,0,0.378558,295.031,1878.58)">
                <path d="M1338,638L1290,638L1290,394C1293.96,281.324 1393.41,189.107 1512,189C1631.6,188.892 1730.69,281.289 1734,394L1734,638L1687,638L1687,394C1683.15,313.412 1616.71,241.856 1537.5,237L1538,638L1487,638L1487,237C1409.86,244.073 1342.58,313.799 1338,394.5L1338,638Z" style="fill:rgb(255,34,0);"/>
            </g>
            <g transform="matrix(0.378558,0,0,0.378558,295.031,1878.58)">
                <path d="M1219,394C1214.07,294.971 1134.02,213 1020,213L1020,638L997,637.5L997,189L1020,189C1133.55,183.791 1242,276.973 1242,394L1242,637.5L1219,637.5L1219,394Z" style="fill:rgb(105,126,236);"/>
            </g>
        </g>
    </g>
</svg>
