<?xml version="1.0" encoding="utf-8"?>
<!-- Generator: Adobe Illustrator 15.1.0, SVG Export Plug-In . SVG Version: 6.00 Build 0)  -->
<!DOCTYPE svg PUBLIC "-//W3C//DTD SVG 1.1//EN" "http://www.w3.org/Graphics/SVG/1.1/DTD/svg11.dtd">
<svg version="1.1" id="Layer_1" xmlns="http://www.w3.org/2000/svg" xmlns:xlink="http://www.w3.org/1999/xlink" x="0px" y="0px"
	 width="549.35px" height="204.94px" viewBox="0 0 549.35 204.94" enable-background="new 0 0 549.35 204.94" xml:space="preserve">
<g>
	<path fill-rule="evenodd" clip-rule="evenodd" fill="#6CCAD6" d="M213.463,1.654c2.774,0,5.548,0,8.323,0
		c12.461,0.539,22.569,5.027,31.931,9.383c9.327,4.339,17.796,9.731,25.576,15.587c15.703,11.821,30.44,24.383,46.156,36.32
		c40.199-10.73,76.121-27.825,119.553-35.715c11.327-2.057,22.762-3.329,35.564-3.329c12.36,0,23.198,2.288,32.536,6.204
		c17.867,7.493,30.292,21.804,32.386,45.097c0,1.867,0,3.733,0,5.6c-0.829,13.331-5.129,24.669-10.442,34.352
		c-5.122,9.336-12.411,17.524-21.489,23.306c-15.413,9.814-38.007,14.563-63.561,14.83c-4.21,0.045-8.341,0.461-11.35-1.059
		c-7.374-3.725-3.623-15.048-0.604-20.582c3.563-6.531,7.997-11.721,11.501-17.252c-10.297,9.275-19.12,22.685-30.721,32.234
		c-4.012,3.302-16.436,11.445-19.825,2.573c-2.884-7.55,2.55-16.304,5.298-20.581c3.973-6.188,7.594-11.148,10.592-16.496
		c-1.562,1.126-2.626,2.864-3.935,4.389c-3.792,4.424-8.325,9.095-12.106,13.469c-4.773,5.523-8.777,10.607-18.16,11.652
		c-1.147,0.129-2.613-0.303-3.935,0c-1.3,0.299-3.465,3.43-4.843,4.691c-1.611,1.476-3.855,2.99-5.599,3.935
		c-4.004,2.168-10.194,4.342-14.981,1.816c-3.135-1.652-4.961-5.111-5.601-9.231c-0.656-4.229,0.148-8.972,0.455-13.469
		c-1.61,0.185-2.678,2.232-3.783,3.48c-8.092,9.139-16.936,18.428-29.208,23.608c-8.085,14.184-16.32,28.714-28.148,39.498
		c-3.904,3.56-8.444,7.233-14.679,7.869c-0.101,0-0.202,0-0.303,0c-9.845-0.085-8.988-11.334-5.448-17.252
		c2.921-4.883,7.564-8.565,11.652-11.653c9.336-7.047,19.796-12.432,28.904-17.706c3.357-8.143,7.542-15.46,11.199-23.305
		c-5.196,6.021-11.922,15.679-21.035,18.614c-5.476,1.764-10.245-0.422-12.106-4.086c-2.591-5.098-1.535-12.485-0.605-18.312
		c-1.751-0.088-2.479,1.723-3.329,2.724c-4.84,5.692-9.576,10.702-15.437,15.436c-2.142,1.731-4.88,4.098-7.718,4.692
		c-7.751,1.622-9.673-7.837-8.324-13.923c0.889-4.011,3.017-7.362,4.843-10.14c2.94-4.472,6.405-8.268,9.685-12.561
		c1.015-1.327,2.906-3.307,2.573-4.994c-0.684-3.464-6.619,0.454-7.264,0.908c-2.248,1.582-4.12,3.269-6.054,4.994
		c-11.792,10.524-21.222,22.602-31.022,34.958c-3.719,0.165-7.153,0.616-10.745,0.908c6.953-12.175,16.764-23.123,23.91-35.866
		c0.838-1.495,2.703-4.62,1.665-6.355c-1.466-2.451-6.973,0.241-8.777,1.513c-2.448,1.726-4.496,3.891-6.204,5.599
		c-8.251,8.252-13.917,16.644-22.247,24.668c-3.767,3.629-8.302,8.648-13.468,10.139c-8.552,2.468-10.023-6.117-9.383-13.317
		c-0.343-0.308-0.741,0.301-0.908,0.455c-2.613,2.419-4.812,4.968-7.566,7.264c-2.987,2.489-6.745,5.626-11.048,5.902
		c-10.797,0.692-11.953-12.19-9.988-22.095c-3.436,3.798-7.134,7.739-11.047,11.652c-3.675,3.675-7.547,8.402-12.561,10.593
		c-1.361,0.595-3.397,1.02-5.297,0.757c-6.391-0.883-11.001-9.303-11.047-16.344c-0.04-6.128,2.305-13.047,3.783-18.312
		c1.544-5.5,3.377-14.075-0.757-17.706c-2.538-2.229-4.478-0.587-8.021-0.454c-2.62,0.098-5.62-0.814-5.599-2.724
		c0.02-1.801,2.776-2.732,4.692-2.724c2.926,0.012,4.396,1.771,6.356,1.967c3.701,0.371,7.489-2.099,10.139-3.783
		c7.987-5.078,15.488-14.429,16.344-25.424c0.734-9.435-2.242-15.969-8.021-20.127c-10.403,8.742-18.555,20.59-24.818,33.747
		c-6.224,13.073-13.173,26.093-21.338,37.379c-7.995,11.05-17.828,21.65-30.116,28.451c-8.267,4.575-24.497,9.021-35.261,3.329
		c-2.995-1.584-6.226-3.95-7.112-7.566c-1.365-5.569,2.037-10.064,7.112-9.988c4.01,0.061,7.015,3.181,6.054,7.416
		c-0.405,1.783-1.884,2.34-1.816,4.993c0.18,7.101,10.625,6.147,16.798,4.843c10.688-2.259,18.218-8.136,23.759-14.68
		c7.997-9.441,13.652-20.856,19.22-31.931c11.761-23.393,25.585-42.917,44.794-57.658c-10.944-5.509-31.223-6.317-45.249-3.027
		c-0.431,0.321,0.195,0.895,0.303,1.06c1.937,2.96,3.554,6.199,4.54,10.139C85.49,70.26,78.372,84.5,71.815,93.211
		c-4.625,6.143-10.579,11.377-18.009,15.436c-6.616,3.614-17.944,7.43-27.088,3.783c-8.031-3.203-11.404-11.79-8.929-23.002
		c1.946-8.814,7.085-15.944,11.956-21.49c10.563-12.027,24.641-20.201,41.92-25.121c-4.943-4.084-13.127-6.179-21.943-5.448
		c-8.08,0.67-15.439,3.865-20.884,7.264c-9.731,6.075-17.885,15.828-22.549,26.635c-0.632,1.466-0.746,3.74-2.572,4.54
		c-0.074-0.179-0.162-0.343-0.303-0.454c0-0.656,0-1.312,0-1.968c2.372-6.177,6.494-13.006,10.896-18.311
		c4.389-5.288,10.112-10.16,15.739-13.468c5.996-3.527,13.964-6.417,22.7-6.508c9.064-0.095,16.423,2.541,22.246,6.961
		c15.317-4.105,36.724-2.58,49.486,2.724c7.702-4.233,15.85-9.781,24.819-12.712c1.07-0.35,3.005-1.435,3.934,0
		c-0.723,1.151-2.271,1.106-3.329,1.513c-8.304,3.194-15.366,8.121-22.398,12.561c11.064,3.816,19.634,20.275,11.956,33.444
		c-6.209,10.649-18.341,16.76-31.78,19.825c4.74,1.662,7.268,4.666,9.534,8.626c2.161,3.776,3.811,8.716,2.875,14.831
		c-0.727,4.753-2.483,9.472-3.783,14.376c-1.043,3.935-3.141,12.781,0.908,14.377c3.208,1.265,7.276-1.849,9.533-3.783
		c2.616-2.242,4.899-4.596,6.961-6.658c11.484-11.484,19.551-25.465,36.169-31.478c3.171-1.147,7.809-2.434,11.804-1.816
		c4.926,0.761,6.163,6.254,4.994,12.409c1.333-1.525,2.392-3.599,3.632-5.751c0.978-1.696,2.1-4.813,4.086-5.447
		c2.57-0.821,5.876,0.121,9.231-0.454c-7.675,11.454-15.853,22.194-21.792,35.261c-0.643,1.415-2.282,4.858-1.211,6.355
		c1.827,2.553,7.746-1.454,8.475-1.968c6.869-4.834,12.922-11.97,18.008-18.008c3.41-4.048,7.128-8.793,11.199-12.864
		c3.848-3.847,8.078-8.94,14.528-9.533c6.075-0.559,7.79,3.745,7.265,9.383c-0.705,7.565-6.827,13.701-10.14,19.067
		c2.742-1.889,4.904-4.801,7.415-7.566c4.918-5.414,9.776-10.172,15.587-15.134c2.649-2.261,6.007-5.396,9.686-5.75
		c6.51-0.626,7.674,6.832,6.053,12.258c-1.231,4.122-3.817,7.217-6.053,10.291c-2.24,3.078-4.525,6.542-6.507,9.685
		c-1.221,1.937-6.453,9.498-1.665,10.745c2.502,0.652,6.597-2.462,8.777-4.237c12.598-10.26,19.697-24.144,34.049-32.536
		c5.479-3.204,12.637-7.08,20.431-6.205c6.333,0.711,7.557,6.863,5.902,13.62c2.839-3.617,4.704-8.209,7.112-12.258
		c3.6-0.184,6.994-0.573,10.594-0.757c-8.34,14.098-17.412,28.548-25.728,42.524c-0.488,0.821-1.39,1.805-1.211,2.876
		c18.382-7.892,27.26-26.646,42.676-37.985c4.975-3.659,11.48-7.487,18.917-8.021c10.898-0.78,13.658,8.446,10.746,17.706
		c-1.389,4.41-4.348,9.257-7.266,12.561c-0.657,0.745-1.277,0.964-0.604,1.361c1.56,0.924,6.164-0.593,7.87-1.361
		c6.563-2.96,10.689-9.252,14.83-13.923c6.253-7.053,11.849-13.7,17.252-21.035c11.027-14.973,19.656-31.521,29.812-46.914
		c3.653-0.231,7.049-0.72,10.594-1.059c-14.296,23.182-29.251,45.708-43.583,69.159c-3.276,5.36-7.27,11.605-10.14,18.009
		c-0.822,1.835-2.707,5.45-1.968,7.264c1.166,2.859,6.848,0.345,8.324-0.453c2.773-1.5,4.765-3.187,6.657-4.843
		c12.506-10.938,21.933-24.206,33.143-35.866c3.354-0.228,6.651-0.511,10.14-0.605c-5.447,9.36-11.747,19.444-17.555,29.207
		c-1.76,2.958-4.909,6.845-4.994,10.594c-0.107,4.734,3.455,4.89,8.021,4.843c17.451-0.183,32.579-2.856,44.945-7.415
		c22.711-8.374,35.86-23.289,43.734-45.855c2.618-7.499,4.449-16.371,3.936-26.029c-0.483-9.071-3.332-16.62-7.112-22.851
		c-3.882-6.397-8.3-11.387-14.377-15.588c-12.146-8.396-30.229-10.82-49.486-8.777c-17.716,1.88-34.558,6.009-49.485,10.291
		c-31.457,9.024-58.947,20.25-90.951,28.753c0.952,1.33,2.465,2.19,3.783,3.178c1.381,1.036,2.799,2.02,4.236,3.027
		c7.834,5.49,16.705,10.115,25.424,14.679c0.719,0.375,1.876,0.834,1.969,1.816c-14.402-5.775-27.186-13.171-38.742-21.792
		c-18.026,4.12-37.029,9.142-57.96,10.442c-22.37,1.39-44.292-0.809-60.685-7.112c-8.005-3.079-15.729-6.867-21.641-12.561
		c-5.544-5.34-10.73-13.495-9.382-24.517c1.157-9.469,6.505-16.366,12.863-21.338C194.914,5.745,202.866,2.654,213.463,1.654z
		 M319.699,61.583c-6.791-5.195-13.371-10.446-19.977-15.739c-15.229-12.203-29.422-24.626-47.368-34.201
		c-8.163-4.355-19.604-9.223-32.234-8.626c-10.597,0.5-19.477,4.493-26.18,9.686c-6.518,5.048-12.333,12.063-13.015,22.246
		c-0.606,9.039,2.973,15.918,7.264,20.884c3.73,4.316,8.592,7.518,13.469,9.988c10.44,5.289,22.808,8.461,37.833,9.231
		c31.582,1.621,56.908-5.345,82.628-11.199C321.596,62.865,320.544,62.23,319.699,61.583z M67.123,45.996
		c-13.134,4.132-23.91,11.626-32.536,19.673c-4.792,4.469-9.366,10.58-12.41,17.403c-3.062,6.863-4.86,17.983,0,23.607
		c5.921,6.853,18.651,4.334,26.03,0.303c6.483-3.541,11.441-8.567,15.89-14.074c4.409-5.458,8.24-11.703,10.896-19.068
		c3.033-8.41,4.58-23.592-1.513-29.358C72.254,44.593,69.216,45.337,67.123,45.996z M174.721,111.068
		c-6.771,2.927-12.3,9.852-16.193,16.193c-1.706,2.779-3.928,6.878-5.297,10.896c-1.242,3.647-2.948,11.103,0.757,12.561
		c1.644,0.647,4.356-0.19,6.054-1.06c6.117-3.131,10.967-8.341,15.587-14.225c2.095-2.668,4.063-5.477,5.902-8.929
		c1.644-3.086,3.79-7.44,3.48-11.502c-0.308-4.049-3.133-5.359-6.81-4.843C176.839,110.352,175.755,110.621,174.721,111.068z
		 M297.604,123.326c-3.837,4.915-9.406,13.378-9.987,21.036c-0.858,11.317,10.632,5.114,14.528,1.967
		c6.229-5.031,10.839-11.004,15.134-18.16c1.989-3.317,4.568-7.529,4.842-11.804c0.311-4.859-2.129-6.792-6.508-6.205
		C308.047,111.177,301.391,118.479,297.604,123.326z M367.217,115.608c-2.676,2.486-5.071,5.265-6.96,8.021
		c-3.51,5.115-8.431,13.419-8.173,21.791c0.072,2.357,0.938,4.606,2.421,5.297c3.604,1.677,9.65-1.678,12.106-3.329
		c6.3-4.235,11.264-10.282,14.528-17.555c2.509-5.588,6.59-21.243-4.237-19.674C373.056,110.719,369.747,113.259,367.217,115.608z
		 M281.563,174.326c-5.847,4.468-14.476,11.246-15.133,20.43c-0.184,2.568,0.178,5.041,1.362,6.054
		c1.859,1.589,5.434,0.771,7.566-0.303c2.255-1.136,4.149-2.861,5.599-4.237c10.255-9.734,16.701-22.586,22.699-36.018
		c-0.008-0.092-0.021-0.18-0.149-0.151C296.345,164.481,289.143,168.533,281.563,174.326z"/>
	<path fill-rule="evenodd" clip-rule="evenodd" fill="#6CCAD6" d="M472.696,76.11c0.819-0.069,2.155,0.022,2.876,0.605
		c4.121,3.341-1.457,12.958-6.659,9.231c-3.206-2.297-0.868-8.122,1.665-9.383C471.168,76.271,471.849,76.183,472.696,76.11z"/>
</g>
<g>
	<path fill="#636263" d="M11.737,169.612c0-3.275,0-3.863-0.042-4.535c-0.042-0.715-0.21-1.051-0.903-1.197
		c-0.168-0.042-0.525-0.063-0.714-0.063c-0.084,0-0.168-0.043-0.168-0.127c0-0.125,0.105-0.168,0.336-0.168
		c0.945,0,2.205,0.063,2.373,0.063c0.462,0,1.68-0.063,2.646-0.063c2.625,0,3.569,0.883,3.905,1.197
		c0.462,0.441,1.05,1.386,1.05,2.498c0,2.982-2.184,4.998-5.165,4.998c-0.105,0-0.336,0-0.441-0.021
		c-0.105,0-0.231-0.042-0.231-0.146c0-0.168,0.126-0.189,0.567-0.189c2.037,0,3.632-1.49,3.632-3.422c0-0.693-0.063-2.1-1.176-3.234
		c-1.113-1.133-2.394-1.049-2.876-1.049c-0.357,0-0.714,0.041-0.903,0.125c-0.126,0.043-0.168,0.189-0.168,0.399v8.63
		c0,2.016,0,3.674,0.105,4.556c0.063,0.608,0.189,1.071,0.819,1.155c0.294,0.041,0.756,0.084,0.945,0.084
		c0.126,0,0.168,0.063,0.168,0.125c0,0.105-0.105,0.168-0.336,0.168c-1.155,0-2.478-0.063-2.583-0.063
		c-0.063,0-1.386,0.063-2.016,0.063c-0.231,0-0.336-0.041-0.336-0.168c0-0.063,0.042-0.125,0.168-0.125
		c0.189,0,0.441-0.043,0.63-0.084c0.42-0.084,0.525-0.547,0.609-1.155c0.105-0.882,0.105-2.54,0.105-4.556V169.612z"/>
	<path fill="#636263" d="M24.4,171.061c0-2.771,0-3.275-0.042-3.843c-0.042-0.608-0.147-0.902-0.756-0.986
		c-0.147-0.021-0.462-0.042-0.63-0.042c-0.063,0-0.147-0.084-0.147-0.147c0-0.104,0.084-0.146,0.294-0.146
		c0.84,0,2.079,0.042,2.184,0.042c0.189,0,1.743-0.042,2.31-0.042c1.176,0,2.478,0.105,3.443,0.777
		c0.462,0.336,1.281,1.196,1.281,2.436c0,1.322-0.546,2.604-2.268,4.072c1.512,1.891,2.792,3.507,3.863,4.619
		c0.987,1.008,1.596,1.176,2.058,1.239c0.357,0.063,0.546,0.063,0.651,0.063s0.168,0.084,0.168,0.146
		c0,0.105-0.105,0.146-0.441,0.146h-1.155c-1.05,0-1.512-0.104-1.974-0.356c-0.798-0.42-1.47-1.28-2.52-2.624
		c-0.777-0.967-1.596-2.121-1.995-2.604c-0.084-0.084-0.126-0.105-0.252-0.105l-2.352-0.042c-0.084,0-0.126,0.042-0.126,0.147v0.42
		c0,1.721,0,3.107,0.084,3.842c0.063,0.525,0.168,0.861,0.735,0.945c0.252,0.041,0.651,0.084,0.819,0.084
		c0.126,0,0.147,0.084,0.147,0.146c0,0.084-0.084,0.146-0.294,0.146c-1.008,0-2.184-0.063-2.268-0.063
		c-0.021,0-1.26,0.063-1.827,0.063c-0.189,0-0.294-0.041-0.294-0.146c0-0.063,0.042-0.146,0.147-0.146
		c0.168,0,0.399-0.043,0.567-0.084c0.357-0.084,0.399-0.42,0.483-0.945c0.105-0.734,0.105-2.142,0.105-3.863V171.061z
		 M25.996,172.572c0,0.104,0.042,0.168,0.126,0.231c0.273,0.146,1.218,0.272,2.037,0.272c0.441,0,0.945-0.021,1.386-0.315
		c0.63-0.42,1.113-1.364,1.113-2.729c0-2.227-1.218-3.507-3.191-3.507c-0.546,0-1.134,0.063-1.323,0.104
		c-0.084,0.043-0.147,0.105-0.147,0.211V172.572z"/>
	<path fill="#636263" d="M38.512,171.061c0-2.771,0-3.275-0.042-3.843c-0.042-0.608-0.147-0.902-0.756-0.986
		c-0.147-0.021-0.462-0.042-0.63-0.042c-0.063,0-0.147-0.084-0.147-0.147c0-0.104,0.084-0.146,0.294-0.146
		c0.84,0,2.037,0.042,2.142,0.042c0.126,0,3.989,0.021,4.409,0c0.357-0.021,0.693-0.084,0.84-0.104
		c0.084-0.021,0.168-0.084,0.252-0.084c0.063,0,0.084,0.084,0.084,0.168c0,0.125-0.105,0.336-0.147,0.84
		c-0.021,0.168-0.063,0.965-0.105,1.176c-0.021,0.084-0.084,0.188-0.168,0.188c-0.105,0-0.147-0.084-0.147-0.231
		c0-0.125-0.021-0.42-0.105-0.629c-0.126-0.295-0.315-0.42-1.323-0.547c-0.315-0.041-2.457-0.063-2.667-0.063
		c-0.084,0-0.105,0.063-0.105,0.189v4.85c0,0.126,0,0.189,0.105,0.189c0.231,0,2.667,0,3.086-0.043
		c0.441-0.041,0.714-0.063,0.903-0.252c0.126-0.125,0.21-0.23,0.273-0.23s0.105,0.042,0.105,0.146c0,0.105-0.105,0.399-0.147,0.987
		c-0.042,0.356-0.084,1.028-0.084,1.155c0,0.146-0.042,0.336-0.168,0.336c-0.084,0-0.126-0.063-0.126-0.168
		c0-0.168,0-0.357-0.084-0.588c-0.063-0.252-0.231-0.463-0.945-0.547c-0.504-0.063-2.478-0.084-2.792-0.084
		c-0.105,0-0.126,0.063-0.126,0.127v1.49c0,0.609-0.021,2.688,0,3.045c0.042,1.196,0.378,1.428,2.205,1.428
		c0.483,0,1.365,0,1.848-0.189c0.483-0.21,0.735-0.525,0.84-1.238c0.042-0.211,0.084-0.273,0.189-0.273s0.126,0.146,0.126,0.273
		c0,0.125-0.147,1.344-0.252,1.721c-0.126,0.463-0.315,0.463-1.029,0.463c-1.386,0-2.457-0.043-3.212-0.063
		c-0.777-0.042-1.26-0.042-1.533-0.042c-0.042,0-0.399,0-0.798,0.021c-0.357,0.021-0.777,0.041-1.071,0.041
		c-0.189,0-0.294-0.041-0.294-0.146c0-0.063,0.042-0.146,0.147-0.146c0.168,0,0.399-0.063,0.567-0.084
		c0.357-0.063,0.399-0.42,0.483-0.945c0.105-0.734,0.105-2.142,0.105-3.863V171.061z"/>
	<path fill="#636263" d="M63.919,177.087c0.063,0.629,0.189,1.596,0.945,1.848c0.525,0.168,1.008,0.168,1.197,0.168
		c0.084,0,0.147,0.041,0.147,0.125c0,0.105-0.168,0.168-0.378,0.168c-0.42,0-2.478-0.041-3.149-0.104
		c-0.441-0.042-0.525-0.104-0.525-0.188c0-0.063,0.042-0.127,0.126-0.147c0.105-0.021,0.126-0.294,0.084-0.63l-0.882-9.028h-0.042
		l-4.451,9.112c-0.378,0.777-0.483,0.945-0.651,0.945s-0.273-0.168-0.63-0.819c-0.483-0.882-1.701-3.171-2.163-4.136
		c-0.546-1.135-2.037-4.137-2.352-4.871h-0.084l-0.714,8.063c-0.021,0.272-0.021,0.608-0.021,0.902c0,0.273,0.168,0.441,0.441,0.504
		c0.315,0.084,0.588,0.105,0.714,0.105c0.063,0,0.147,0.063,0.147,0.125c0,0.127-0.126,0.168-0.336,0.168
		c-0.693,0-1.575-0.063-1.722-0.063c-0.168,0-1.05,0.063-1.554,0.063c-0.189,0-0.315-0.041-0.315-0.168
		c0-0.063,0.084-0.125,0.189-0.125c0.147,0,0.273-0.021,0.546-0.063c0.609-0.104,0.63-0.756,0.714-1.428l1.344-11.653
		c0.021-0.188,0.105-0.314,0.21-0.314c0.126,0,0.273,0.063,0.378,0.273l5.585,11.086l5.375-11.065
		c0.084-0.168,0.168-0.294,0.294-0.294s0.231,0.146,0.273,0.482L63.919,177.087z"/>
	<path fill="#636263" d="M72.678,166.253c0.231-0.588,0.315-0.693,0.441-0.693c0.189,0,0.252,0.252,0.441,0.65
		c0.336,0.756,3.296,8.126,4.43,10.834c0.672,1.596,1.176,1.827,1.575,1.953c0.273,0.084,0.546,0.105,0.735,0.105
		c0.105,0,0.231,0.041,0.231,0.146s-0.21,0.146-0.42,0.146c-0.273,0-1.638,0-2.918-0.041c-0.357-0.021-0.651-0.021-0.651-0.127
		c0-0.084,0.042-0.084,0.126-0.125c0.105-0.043,0.294-0.189,0.168-0.483l-1.659-4.095c-0.042-0.084-0.063-0.104-0.168-0.104h-4.262
		c-0.084,0-0.147,0.042-0.189,0.147l-1.05,2.855c-0.168,0.44-0.273,0.881-0.273,1.196c0,0.356,0.315,0.483,0.63,0.483h0.168
		c0.147,0,0.189,0.063,0.189,0.146c0,0.105-0.105,0.146-0.273,0.146c-0.441,0-1.449-0.063-1.659-0.063
		c-0.189,0-1.113,0.063-1.869,0.063c-0.231,0-0.357-0.041-0.357-0.146c0-0.084,0.084-0.146,0.168-0.146
		c0.126,0,0.399-0.021,0.546-0.043c0.84-0.104,1.197-0.734,1.554-1.637L72.678,166.253z M74.735,173.685
		c0.084,0,0.084-0.041,0.063-0.125l-1.827-4.893c-0.105-0.273-0.21-0.273-0.315,0l-1.722,4.893c-0.021,0.084,0,0.125,0.063,0.125
		H74.735z"/>
	<path fill="#636263" d="M90.276,169.612c0-3.275,0-3.863-0.042-4.535c-0.042-0.715-0.21-1.051-0.903-1.197
		c-0.168-0.042-0.525-0.063-0.714-0.063c-0.084,0-0.168-0.043-0.168-0.127c0-0.125,0.105-0.168,0.336-0.168
		c0.483,0,1.05,0,1.512,0.021l0.861,0.042c0.42,0.021,4.682,0,5.165-0.021c0.399-0.021,0.735-0.021,0.924-0.084
		c0.126-0.043,0.21-0.127,0.294-0.127s0.126,0.084,0.126,0.189c0,0.146-0.105,0.398-0.168,0.986
		c-0.021,0.211-0.063,1.135-0.105,1.387c-0.021,0.104-0.063,0.23-0.168,0.23s-0.147-0.105-0.147-0.252
		c0-0.168-0.063-0.525-0.189-0.798s-0.609-0.651-1.428-0.672l-3.233-0.063c-0.126,0-0.189,0.063-0.189,0.231v5.795
		c0,0.126,0.021,0.188,0.147,0.188l2.688-0.021c0.357,0,0.651,0,0.945-0.021c0.504-0.043,0.777-0.105,0.966-0.379
		c0.084-0.104,0.147-0.209,0.231-0.209s0.105,0.063,0.105,0.168c0,0.125-0.105,0.482-0.168,1.176
		c-0.042,0.42-0.084,1.26-0.084,1.406c0,0.189,0,0.398-0.147,0.398c-0.105,0-0.147-0.084-0.147-0.188
		c-0.021-0.21-0.042-0.504-0.126-0.756c-0.105-0.294-0.441-0.672-1.092-0.756c-0.525-0.063-2.813-0.063-3.17-0.063
		c-0.105,0-0.147,0.043-0.147,0.189v1.785c0,2.016,0,3.674,0.105,4.556c0.063,0.608,0.189,1.071,0.819,1.155
		c0.294,0.041,0.756,0.084,0.945,0.084c0.126,0,0.168,0.063,0.168,0.125c0,0.105-0.105,0.168-0.336,0.168
		c-1.155,0-2.478-0.063-2.583-0.063s-1.428,0.063-2.058,0.063c-0.231,0-0.336-0.041-0.336-0.168c0-0.063,0.042-0.125,0.168-0.125
		c0.189,0,0.441-0.043,0.63-0.084c0.42-0.084,0.525-0.547,0.609-1.155c0.105-0.882,0.105-2.54,0.105-4.556V169.612z"/>
	<path fill="#636263" d="M103.905,174.252c0,2.624,0.042,3.695,0.378,4.011c0.294,0.293,1.008,0.42,2.457,0.42
		c0.966,0,1.785-0.021,2.226-0.547c0.231-0.272,0.378-0.65,0.441-1.008c0.021-0.125,0.084-0.23,0.189-0.23
		c0.084,0,0.126,0.084,0.126,0.273c0,0.188-0.126,1.26-0.273,1.784c-0.126,0.42-0.189,0.483-1.176,0.483
		c-1.323,0-2.352-0.021-3.212-0.063c-0.84-0.021-1.47-0.042-2.016-0.042c-0.084,0-0.399,0-0.756,0.021
		c-0.378,0.021-0.777,0.041-1.071,0.041c-0.189,0-0.294-0.041-0.294-0.146c0-0.063,0.042-0.146,0.147-0.146
		c0.168,0,0.399-0.043,0.567-0.084c0.357-0.084,0.399-0.42,0.483-0.945c0.105-0.734,0.105-2.142,0.105-3.863v-3.149
		c0-2.771,0-3.275-0.042-3.843c-0.042-0.608-0.147-0.902-0.756-0.986c-0.147-0.021-0.462-0.042-0.63-0.042
		c-0.063,0-0.147-0.084-0.147-0.147c0-0.104,0.084-0.146,0.294-0.146c0.84,0,1.995,0.042,2.1,0.042c0.084,0,1.47-0.042,2.037-0.042
		c0.189,0,0.294,0.042,0.294,0.146c0,0.063-0.084,0.127-0.147,0.127c-0.126,0-0.399,0.021-0.609,0.041
		c-0.546,0.105-0.651,0.379-0.693,1.008c-0.021,0.567-0.021,1.071-0.021,3.843V174.252z"/>
	<path fill="#636263" d="M118.226,165.644c4.157,0,7.307,2.541,7.307,6.697c0,3.99-2.96,7.286-7.412,7.286
		c-5.06,0-7.223-3.8-7.223-7.013C110.898,169.737,113.124,165.644,118.226,165.644z M118.646,178.892
		c1.659,0,4.997-0.881,4.997-6.047c0-4.283-2.604-6.529-5.522-6.529c-3.086,0-5.312,1.932-5.312,5.816
		C112.809,176.288,115.308,178.892,118.646,178.892z"/>
	<path fill="#636263" d="M129.399,171.061c0-2.771,0-3.275-0.042-3.843c-0.042-0.608-0.147-0.902-0.756-0.986
		c-0.147-0.021-0.462-0.042-0.63-0.042c-0.063,0-0.147-0.084-0.147-0.147c0-0.104,0.084-0.146,0.294-0.146
		c0.84,0,2.079,0.042,2.184,0.042c0.189,0,1.743-0.042,2.31-0.042c1.176,0,2.478,0.105,3.443,0.777
		c0.462,0.336,1.281,1.196,1.281,2.436c0,1.322-0.546,2.604-2.268,4.072c1.512,1.891,2.792,3.507,3.863,4.619
		c0.987,1.008,1.596,1.176,2.058,1.239c0.357,0.063,0.546,0.063,0.651,0.063s0.168,0.084,0.168,0.146
		c0,0.105-0.105,0.146-0.441,0.146h-1.155c-1.05,0-1.512-0.104-1.974-0.356c-0.798-0.42-1.47-1.28-2.52-2.624
		c-0.777-0.967-1.596-2.121-1.995-2.604c-0.084-0.084-0.126-0.105-0.252-0.105l-2.352-0.042c-0.084,0-0.126,0.042-0.126,0.147v0.42
		c0,1.721,0,3.107,0.084,3.842c0.063,0.525,0.168,0.861,0.735,0.945c0.252,0.041,0.651,0.084,0.819,0.084
		c0.126,0,0.147,0.084,0.147,0.146c0,0.084-0.084,0.146-0.294,0.146c-1.008,0-2.184-0.063-2.268-0.063
		c-0.021,0-1.26,0.063-1.827,0.063c-0.189,0-0.294-0.041-0.294-0.146c0-0.063,0.042-0.146,0.147-0.146
		c0.168,0,0.399-0.043,0.567-0.084c0.357-0.084,0.399-0.42,0.483-0.945c0.105-0.734,0.105-2.142,0.105-3.863V171.061z
		 M130.995,172.572c0,0.104,0.042,0.168,0.126,0.231c0.273,0.146,1.218,0.272,2.037,0.272c0.441,0,0.945-0.021,1.386-0.315
		c0.63-0.42,1.113-1.364,1.113-2.729c0-2.227-1.218-3.507-3.191-3.507c-0.546,0-1.134,0.063-1.323,0.104
		c-0.084,0.043-0.147,0.105-0.147,0.211V172.572z"/>
	<path fill="#636263" d="M143.511,171.061c0-2.771,0-3.275-0.042-3.843c-0.042-0.608-0.147-0.902-0.756-0.986
		c-0.147-0.021-0.462-0.042-0.63-0.042c-0.063,0-0.147-0.084-0.147-0.147c0-0.104,0.084-0.146,0.294-0.146
		c0.84,0,2.037,0.042,2.142,0.042c0.126,0,3.989,0.021,4.409,0c0.357-0.021,0.693-0.084,0.84-0.104
		c0.084-0.021,0.168-0.084,0.252-0.084c0.063,0,0.084,0.084,0.084,0.168c0,0.125-0.105,0.336-0.147,0.84
		c-0.021,0.168-0.063,0.965-0.105,1.176c-0.021,0.084-0.084,0.188-0.168,0.188c-0.105,0-0.147-0.084-0.147-0.231
		c0-0.125-0.021-0.42-0.105-0.629c-0.126-0.295-0.315-0.42-1.323-0.547c-0.315-0.041-2.457-0.063-2.667-0.063
		c-0.084,0-0.105,0.063-0.105,0.189v4.85c0,0.126,0,0.189,0.105,0.189c0.231,0,2.667,0,3.086-0.043
		c0.441-0.041,0.714-0.063,0.903-0.252c0.126-0.125,0.21-0.23,0.273-0.23s0.105,0.042,0.105,0.146c0,0.105-0.105,0.399-0.147,0.987
		c-0.042,0.356-0.084,1.028-0.084,1.155c0,0.146-0.042,0.336-0.168,0.336c-0.084,0-0.126-0.063-0.126-0.168
		c0-0.168,0-0.357-0.084-0.588c-0.063-0.252-0.231-0.463-0.945-0.547c-0.504-0.063-2.478-0.084-2.792-0.084
		c-0.105,0-0.126,0.063-0.126,0.127v1.49c0,0.609-0.021,2.688,0,3.045c0.042,1.196,0.378,1.428,2.205,1.428
		c0.483,0,1.365,0,1.848-0.189c0.483-0.21,0.735-0.525,0.84-1.238c0.042-0.211,0.084-0.273,0.189-0.273s0.126,0.146,0.126,0.273
		c0,0.125-0.147,1.344-0.252,1.721c-0.126,0.463-0.315,0.463-1.029,0.463c-1.386,0-2.457-0.043-3.212-0.063
		c-0.777-0.042-1.26-0.042-1.533-0.042c-0.042,0-0.399,0-0.798,0.021c-0.357,0.021-0.777,0.041-1.071,0.041
		c-0.189,0-0.294-0.041-0.294-0.146c0-0.063,0.042-0.146,0.147-0.146c0.168,0,0.399-0.063,0.567-0.084
		c0.357-0.063,0.399-0.42,0.483-0.945c0.105-0.734,0.105-2.142,0.105-3.863V171.061z"/>
	<path fill="#636263" d="M155.858,176.96c0.042,1.471,0.21,1.911,0.714,2.037c0.336,0.084,0.756,0.105,0.924,0.105
		c0.084,0,0.147,0.063,0.147,0.146c0,0.105-0.126,0.146-0.336,0.146c-1.05,0-1.785-0.063-1.953-0.063s-0.945,0.063-1.785,0.063
		c-0.189,0-0.294-0.021-0.294-0.146c0-0.084,0.063-0.146,0.147-0.146c0.147,0,0.483-0.021,0.756-0.105
		c0.462-0.126,0.525-0.609,0.525-2.226v-10.226c0-0.713,0.105-0.902,0.252-0.902c0.21,0,0.525,0.357,0.714,0.546
		c0.294,0.294,2.981,3.149,5.837,6.089c1.827,1.89,3.8,4.01,4.367,4.598l-0.189-8.943c-0.021-1.155-0.126-1.555-0.693-1.659
		c-0.336-0.063-0.756-0.084-0.903-0.084c-0.126,0-0.147-0.104-0.147-0.168c0-0.104,0.147-0.126,0.357-0.126
		c0.84,0,1.722,0.042,1.932,0.042s0.819-0.042,1.575-0.042c0.189,0,0.336,0.021,0.336,0.126c0,0.063-0.084,0.168-0.21,0.168
		c-0.084,0-0.231,0-0.441,0.042c-0.609,0.126-0.651,0.482-0.651,1.554l-0.042,10.456c0,1.176-0.021,1.281-0.147,1.281
		c-0.189,0-0.378-0.147-1.407-1.092c-0.189-0.168-2.855-2.793-4.808-4.83c-2.142-2.246-4.22-4.43-4.787-5.06L155.858,176.96z"/>
	<path fill="#636263" d="M172.428,177.716c-1.806-1.553-2.247-3.59-2.247-5.291c0-1.196,0.441-3.275,2.079-4.871
		c1.113-1.07,2.792-1.91,5.627-1.91c0.735,0,1.785,0.063,2.688,0.21c0.693,0.126,1.281,0.252,1.89,0.272
		c0.189,0,0.231,0.084,0.231,0.189c0,0.146-0.042,0.357-0.084,1.008c-0.021,0.588-0.021,1.574-0.042,1.826
		c-0.021,0.273-0.105,0.379-0.21,0.379c-0.126,0-0.147-0.127-0.147-0.379c0-0.692-0.294-1.406-0.777-1.784
		c-0.651-0.546-1.995-0.987-3.632-0.987c-2.373,0-3.506,0.631-4.157,1.239c-1.365,1.26-1.659,2.855-1.659,4.661
		c0,3.422,2.708,6.467,6.656,6.467c1.386,0,2.31-0.105,3.044-0.84c0.399-0.398,0.651-1.154,0.714-1.49
		c0.042-0.189,0.063-0.252,0.189-0.252c0.084,0,0.168,0.125,0.168,0.252c0,0.125-0.252,1.68-0.441,2.288
		c-0.105,0.336-0.147,0.399-0.462,0.524c-0.756,0.295-2.142,0.399-3.338,0.399C175.745,179.627,173.876,178.976,172.428,177.716z"/>
	<path fill="#636263" d="M187.148,171.061c0-2.771,0-3.275-0.042-3.843c-0.042-0.608-0.147-0.902-0.756-0.986
		c-0.147-0.021-0.462-0.042-0.63-0.042c-0.063,0-0.147-0.084-0.147-0.147c0-0.104,0.084-0.146,0.294-0.146
		c0.84,0,2.037,0.042,2.142,0.042c0.126,0,3.989,0.021,4.409,0c0.357-0.021,0.693-0.084,0.84-0.104
		c0.084-0.021,0.168-0.084,0.252-0.084c0.063,0,0.084,0.084,0.084,0.168c0,0.125-0.105,0.336-0.147,0.84
		c-0.021,0.168-0.063,0.965-0.105,1.176c-0.021,0.084-0.084,0.188-0.168,0.188c-0.105,0-0.147-0.084-0.147-0.231
		c0-0.125-0.021-0.42-0.105-0.629c-0.126-0.295-0.315-0.42-1.323-0.547c-0.315-0.041-2.457-0.063-2.667-0.063
		c-0.084,0-0.105,0.063-0.105,0.189v4.85c0,0.126,0,0.189,0.105,0.189c0.231,0,2.667,0,3.086-0.043
		c0.441-0.041,0.714-0.063,0.903-0.252c0.126-0.125,0.21-0.23,0.273-0.23s0.105,0.042,0.105,0.146c0,0.105-0.105,0.399-0.147,0.987
		c-0.042,0.356-0.084,1.028-0.084,1.155c0,0.146-0.042,0.336-0.168,0.336c-0.084,0-0.126-0.063-0.126-0.168
		c0-0.168,0-0.357-0.084-0.588c-0.063-0.252-0.231-0.463-0.945-0.547c-0.504-0.063-2.478-0.084-2.792-0.084
		c-0.105,0-0.126,0.063-0.126,0.127v1.49c0,0.609-0.021,2.688,0,3.045c0.042,1.196,0.378,1.428,2.205,1.428
		c0.483,0,1.365,0,1.848-0.189c0.483-0.21,0.735-0.525,0.84-1.238c0.042-0.211,0.084-0.273,0.189-0.273s0.126,0.146,0.126,0.273
		c0,0.125-0.147,1.344-0.252,1.721c-0.126,0.463-0.315,0.463-1.029,0.463c-1.386,0-2.457-0.043-3.212-0.063
		c-0.777-0.042-1.26-0.042-1.533-0.042c-0.042,0-0.399,0-0.798,0.021c-0.357,0.021-0.777,0.041-1.071,0.041
		c-0.189,0-0.294-0.041-0.294-0.146c0-0.063,0.042-0.146,0.147-0.146c0.168,0,0.399-0.063,0.567-0.084
		c0.357-0.063,0.399-0.42,0.483-0.945c0.105-0.734,0.105-2.142,0.105-3.863V171.061z"/>
	<path fill="#636263" d="M207.791,173.308c0,2.016,0,3.674,0.105,4.556c0.063,0.608,0.189,1.071,0.819,1.155
		c0.294,0.041,0.756,0.084,0.945,0.084c0.126,0,0.168,0.063,0.168,0.125c0,0.105-0.105,0.168-0.336,0.168
		c-1.155,0-2.478-0.063-2.583-0.063s-1.428,0.063-2.058,0.063c-0.231,0-0.336-0.041-0.336-0.168c0-0.063,0.042-0.125,0.168-0.125
		c0.189,0,0.441-0.043,0.63-0.084c0.42-0.084,0.525-0.547,0.609-1.155c0.105-0.882,0.105-2.54,0.105-4.556v-3.695
		c0-3.275,0-3.863-0.042-4.535c-0.042-0.715-0.252-1.071-0.714-1.176c-0.231-0.063-0.504-0.084-0.651-0.084
		c-0.084,0-0.168-0.043-0.168-0.127c0-0.125,0.105-0.168,0.336-0.168c0.693,0,2.016,0.063,2.121,0.063s1.428-0.063,2.058-0.063
		c0.231,0,0.336,0.043,0.336,0.168c0,0.084-0.084,0.127-0.168,0.127c-0.147,0-0.273,0.021-0.525,0.063
		c-0.567,0.105-0.735,0.462-0.777,1.197c-0.042,0.672-0.042,1.26-0.042,4.535V173.308z"/>
	<path fill="#636263" d="M213.23,179.144c-0.252-0.125-0.273-0.188-0.273-0.672c0-0.881,0.084-1.596,0.105-1.889
		c0-0.189,0.042-0.295,0.147-0.295s0.168,0.063,0.168,0.211c0,0.146,0,0.398,0.063,0.65c0.294,1.302,1.68,1.764,2.918,1.764
		c1.827,0,2.771-1.029,2.771-2.373c0-1.28-0.693-1.889-2.331-3.107l-0.84-0.629c-1.995-1.491-2.646-2.583-2.646-3.822
		c0-2.1,1.659-3.359,4.094-3.359c0.735,0,1.47,0.105,1.911,0.211c0.357,0.084,0.504,0.084,0.651,0.084s0.189,0.021,0.189,0.125
		c0,0.084-0.084,0.672-0.084,1.891c0,0.272-0.021,0.398-0.147,0.398s-0.147-0.084-0.168-0.23c-0.021-0.211-0.168-0.693-0.273-0.883
		c-0.126-0.209-0.735-0.881-2.394-0.881c-1.344,0-2.457,0.672-2.457,1.932c0,1.133,0.567,1.784,2.394,3.023l0.525,0.356
		c2.247,1.532,3.023,2.771,3.023,4.304c0,1.051-0.399,2.184-1.722,3.045c-0.777,0.504-1.932,0.63-2.939,0.63
		C215.057,179.627,213.986,179.501,213.23,179.144z"/>
	<path fill="#636263" d="M228.601,166.253c0.231-0.588,0.315-0.693,0.441-0.693c0.189,0,0.252,0.252,0.441,0.65
		c0.336,0.756,3.296,8.126,4.43,10.834c0.672,1.596,1.176,1.827,1.575,1.953c0.273,0.084,0.546,0.105,0.735,0.105
		c0.105,0,0.231,0.041,0.231,0.146s-0.21,0.146-0.42,0.146c-0.273,0-1.638,0-2.918-0.041c-0.357-0.021-0.651-0.021-0.651-0.127
		c0-0.084,0.042-0.084,0.126-0.125c0.105-0.043,0.294-0.189,0.168-0.483l-1.659-4.095c-0.042-0.084-0.063-0.104-0.168-0.104h-4.262
		c-0.084,0-0.147,0.042-0.189,0.147l-1.05,2.855c-0.168,0.44-0.273,0.881-0.273,1.196c0,0.356,0.315,0.483,0.63,0.483h0.168
		c0.147,0,0.189,0.063,0.189,0.146c0,0.105-0.105,0.146-0.273,0.146c-0.441,0-1.449-0.063-1.659-0.063
		c-0.189,0-1.113,0.063-1.869,0.063c-0.231,0-0.357-0.041-0.357-0.146c0-0.084,0.084-0.146,0.168-0.146
		c0.126,0,0.399-0.021,0.546-0.043c0.84-0.104,1.197-0.734,1.554-1.637L228.601,166.253z M230.659,173.685
		c0.084,0,0.084-0.041,0.063-0.125l-1.827-4.893c-0.105-0.273-0.21-0.273-0.315,0l-1.722,4.893c-0.021,0.084,0,0.125,0.063,0.125
		H230.659z"/>
	<path fill="#636263" d="M241.705,166.253c0.231-0.588,0.315-0.693,0.441-0.693c0.189,0,0.252,0.252,0.441,0.65
		c0.336,0.756,3.296,8.126,4.43,10.834c0.672,1.596,1.176,1.827,1.575,1.953c0.273,0.084,0.546,0.105,0.735,0.105
		c0.105,0,0.231,0.041,0.231,0.146s-0.21,0.146-0.42,0.146c-0.273,0-1.638,0-2.918-0.041c-0.357-0.021-0.651-0.021-0.651-0.127
		c0-0.084,0.042-0.084,0.126-0.125c0.105-0.043,0.294-0.189,0.168-0.483l-1.659-4.095c-0.042-0.084-0.063-0.104-0.168-0.104h-4.262
		c-0.084,0-0.147,0.042-0.189,0.147l-1.05,2.855c-0.168,0.44-0.273,0.881-0.273,1.196c0,0.356,0.315,0.483,0.63,0.483h0.168
		c0.147,0,0.189,0.063,0.189,0.146c0,0.105-0.105,0.146-0.273,0.146c-0.441,0-1.449-0.063-1.659-0.063
		c-0.189,0-1.113,0.063-1.869,0.063c-0.231,0-0.357-0.041-0.357-0.146c0-0.084,0.084-0.146,0.168-0.146
		c0.126,0,0.399-0.021,0.546-0.043c0.84-0.104,1.197-0.734,1.554-1.637L241.705,166.253z M243.763,173.685
		c0.084,0,0.084-0.041,0.063-0.125l-1.827-4.893c-0.105-0.273-0.21-0.273-0.315,0l-1.722,4.893c-0.021,0.084,0,0.125,0.063,0.125
		H243.763z"/>
	<path fill="#636263" d="M252.143,177.716c-1.806-1.553-2.247-3.59-2.247-5.291c0-1.196,0.441-3.275,2.079-4.871
		c1.113-1.07,2.792-1.91,5.627-1.91c0.735,0,1.785,0.063,2.688,0.21c0.693,0.126,1.28,0.252,1.89,0.272
		c0.189,0,0.23,0.084,0.23,0.189c0,0.146-0.041,0.357-0.084,1.008c-0.021,0.588-0.021,1.574-0.041,1.826
		c-0.021,0.273-0.105,0.379-0.211,0.379c-0.125,0-0.146-0.127-0.146-0.379c0-0.692-0.294-1.406-0.777-1.784
		c-0.651-0.546-1.995-0.987-3.632-0.987c-2.373,0-3.506,0.631-4.157,1.239c-1.365,1.26-1.659,2.855-1.659,4.661
		c0,3.422,2.708,6.467,6.656,6.467c1.386,0,2.31-0.105,3.044-0.84c0.399-0.398,0.651-1.154,0.715-1.49
		c0.041-0.189,0.063-0.252,0.188-0.252c0.084,0,0.168,0.125,0.168,0.252c0,0.125-0.252,1.68-0.44,2.288
		c-0.105,0.336-0.147,0.399-0.463,0.524c-0.755,0.295-2.141,0.399-3.338,0.399C255.46,179.627,253.591,178.976,252.143,177.716z"/>
</g>
</svg>
