<?xml version="1.0" encoding="UTF-8" standalone="no"?>
<!DOCTYPE svg PUBLIC "-//W3C//DTD SVG 1.1//EN" "http://www.w3.org/Graphics/SVG/1.1/DTD/svg11.dtd">
<svg width="100%" height="100%" viewBox="0 0 690 90" version="1.1" xmlns="http://www.w3.org/2000/svg" xmlns:xlink="http://www.w3.org/1999/xlink" xml:space="preserve" style="fill-rule:evenodd;clip-rule:evenodd;stroke-linejoin:round;stroke-miterlimit:1.41421;">
    <g transform="matrix(1,0,0,1,-16.0175,-13.5075)">
        <path d="M35.06,63.265C35.06,68.545 35.06,72.89 34.785,75.2C34.565,76.795 34.29,78.005 33.19,78.225C32.695,78.335 32.035,78.445 31.54,78.445C31.21,78.445 31.1,78.61 31.1,78.775C31.1,79.105 31.375,79.215 31.98,79.215C33.63,79.215 37.095,79.05 37.26,79.05C37.535,79.05 41,79.215 44.025,79.215C44.63,79.215 44.905,79.05 44.905,78.775C44.905,78.61 44.795,78.445 44.465,78.445C43.97,78.445 42.76,78.335 41.99,78.225C40.34,78.005 40.01,76.795 39.845,75.2C39.57,72.89 39.57,68.545 39.57,63.265L39.57,40.66C39.57,40.11 39.68,39.725 40.01,39.615C40.505,39.395 41.44,39.285 42.375,39.285C43.64,39.285 46.995,39.065 49.91,42.035C52.825,45.005 52.99,48.69 52.99,50.505C52.99,55.565 48.81,59.47 43.475,59.47C42.32,59.47 41.99,59.525 41.99,59.965C41.99,60.24 42.32,60.35 42.595,60.35C42.87,60.405 43.475,60.405 43.75,60.405C51.56,60.405 57.28,55.125 57.28,47.315C57.28,44.4 55.74,41.925 54.53,40.77C53.65,39.945 51.175,37.635 44.3,37.635C41.77,37.635 38.58,37.8 37.37,37.8C36.93,37.8 33.63,37.635 31.155,37.635C30.55,37.635 30.275,37.745 30.275,38.075C30.275,38.295 30.495,38.405 30.715,38.405C31.21,38.405 32.145,38.46 32.585,38.57C34.4,38.955 34.84,39.835 34.95,41.705C35.06,43.465 35.06,45.005 35.06,53.585L35.06,63.265Z" style="fill:rgb(51,51,51);fill-rule:nonzero;"/>
    </g>
    <g transform="matrix(1,0,0,1,-16.0175,-13.5075)">
        <path d="M68.225,65.63C68.225,70.14 68.225,73.825 67.95,75.75C67.73,77.125 67.62,78.005 66.685,78.225C66.245,78.335 65.64,78.445 65.2,78.445C64.925,78.445 64.815,78.665 64.815,78.83C64.815,79.105 65.09,79.215 65.585,79.215C67.07,79.215 70.315,79.05 70.37,79.05C70.59,79.05 73.67,79.215 76.31,79.215C76.86,79.215 77.08,79.05 77.08,78.83C77.08,78.665 77.025,78.445 76.695,78.445C76.255,78.445 75.21,78.335 74.55,78.225C73.065,78.005 72.79,77.125 72.625,75.75C72.405,73.825 72.405,70.195 72.405,65.685L72.405,64.585C72.405,64.31 72.515,64.2 72.735,64.2L78.895,64.31C79.225,64.31 79.335,64.365 79.555,64.585C80.6,65.85 82.745,68.875 84.78,71.405C87.53,74.925 89.29,77.18 91.38,78.28C92.59,78.94 93.8,79.215 96.55,79.215L99.575,79.215C100.455,79.215 100.73,79.105 100.73,78.83C100.73,78.665 100.565,78.445 100.29,78.445C100.015,78.445 99.52,78.445 98.585,78.28C97.375,78.115 95.78,77.675 93.195,75.035C90.39,72.12 87.035,67.885 83.075,62.935C87.585,59.085 89.015,55.73 89.015,52.265C89.015,49.02 86.87,46.765 85.66,45.885C83.13,44.125 79.72,43.85 76.64,43.85C75.155,43.85 71.085,43.96 70.59,43.96C70.315,43.96 67.07,43.85 64.87,43.85C64.32,43.85 64.1,43.96 64.1,44.235C64.1,44.4 64.32,44.62 64.485,44.62C64.925,44.62 65.75,44.675 66.135,44.73C67.73,44.95 68.005,45.72 68.115,47.315C68.225,48.8 68.225,50.12 68.225,57.38L68.225,65.63ZM72.405,46.325C72.405,46.05 72.57,45.885 72.79,45.775C73.285,45.665 74.825,45.5 76.255,45.5C81.425,45.5 84.615,48.855 84.615,54.685C84.615,58.26 83.35,60.735 81.7,61.835C80.545,62.605 79.225,62.66 78.07,62.66C75.925,62.66 73.45,62.33 72.735,61.945C72.515,61.78 72.405,61.615 72.405,61.34L72.405,46.325Z" style="fill:rgb(51,51,51);fill-rule:nonzero;"/>
    </g>
    <g transform="matrix(1,0,0,1,-16.0175,-13.5075)">
        <path d="M105.185,65.63C105.185,70.14 105.185,73.825 104.91,75.75C104.69,77.125 104.58,78.06 103.645,78.225C103.205,78.28 102.6,78.445 102.16,78.445C101.885,78.445 101.775,78.665 101.775,78.83C101.775,79.105 102.05,79.215 102.545,79.215C103.315,79.215 104.415,79.16 105.35,79.105C106.395,79.05 107.33,79.05 107.44,79.05C108.155,79.05 109.42,79.05 111.455,79.16C113.435,79.215 116.24,79.325 119.87,79.325C121.74,79.325 122.235,79.325 122.565,78.115C122.84,77.125 123.225,73.935 123.225,73.605C123.225,73.275 123.17,72.89 122.895,72.89C122.62,72.89 122.51,73.055 122.4,73.605C122.125,75.475 121.465,76.3 120.2,76.85C118.935,77.345 116.625,77.345 115.36,77.345C110.575,77.345 109.695,76.74 109.585,73.605C109.53,72.67 109.585,67.225 109.585,65.63L109.585,61.725C109.585,61.56 109.64,61.395 109.915,61.395C110.74,61.395 115.91,61.45 117.23,61.615C119.1,61.835 119.54,62.385 119.705,63.045C119.925,63.65 119.925,64.145 119.925,64.585C119.925,64.86 120.035,65.025 120.255,65.025C120.585,65.025 120.695,64.53 120.695,64.145C120.695,63.815 120.805,62.055 120.915,61.12C121.025,59.58 121.3,58.81 121.3,58.535C121.3,58.26 121.19,58.15 121.025,58.15C120.86,58.15 120.64,58.425 120.31,58.755C119.815,59.25 119.1,59.305 117.945,59.415C116.845,59.525 110.465,59.525 109.86,59.525C109.585,59.525 109.585,59.36 109.585,59.03L109.585,46.325C109.585,45.995 109.64,45.83 109.86,45.83C110.41,45.83 116.02,45.885 116.845,45.995C119.485,46.325 119.98,46.655 120.31,47.425C120.53,47.975 120.585,48.745 120.585,49.075C120.585,49.46 120.695,49.68 120.97,49.68C121.19,49.68 121.355,49.405 121.41,49.185C121.52,48.635 121.63,46.545 121.685,46.105C121.795,44.785 122.07,44.235 122.07,43.905C122.07,43.685 122.015,43.465 121.85,43.465C121.63,43.465 121.41,43.63 121.19,43.685C120.805,43.74 119.925,43.905 118.99,43.96C117.89,44.015 107.77,43.96 107.44,43.96C107.165,43.96 104.03,43.85 101.83,43.85C101.28,43.85 101.06,43.96 101.06,44.235C101.06,44.4 101.28,44.62 101.445,44.62C101.885,44.62 102.71,44.675 103.095,44.73C104.69,44.95 104.965,45.72 105.075,47.315C105.185,48.8 105.185,50.12 105.185,57.38L105.185,65.63Z" style="fill:rgb(51,51,51);fill-rule:nonzero;"/>
    </g>
    <g transform="matrix(1,0,0,1,-16.0175,-13.5075)">
        <path d="M168.435,44.455C168.325,43.575 168.05,43.19 167.72,43.19C167.39,43.19 167.17,43.52 166.95,43.96L152.87,72.945L138.24,43.905C137.965,43.355 137.58,43.19 137.25,43.19C136.975,43.19 136.755,43.52 136.7,44.015L133.18,74.54C132.96,76.3 132.905,78.005 131.31,78.28C130.595,78.39 130.265,78.445 129.88,78.445C129.605,78.445 129.385,78.61 129.385,78.775C129.385,79.105 129.715,79.215 130.21,79.215C131.53,79.215 133.84,79.05 134.28,79.05C134.665,79.05 136.975,79.215 138.79,79.215C139.34,79.215 139.67,79.105 139.67,78.775C139.67,78.61 139.45,78.445 139.285,78.445C138.955,78.445 138.24,78.39 137.415,78.17C136.7,78.005 136.26,77.565 136.26,76.85C136.26,76.08 136.26,75.2 136.315,74.485L138.185,53.365L138.405,53.365C139.23,55.29 143.135,63.155 144.565,66.125C145.775,68.655 148.965,74.65 150.23,76.96C151.165,78.665 151.44,79.105 151.88,79.105C152.32,79.105 152.595,78.665 153.585,76.63L165.245,52.76L165.355,52.76L167.665,76.41C167.775,77.29 167.72,78.005 167.445,78.06C167.225,78.115 167.115,78.28 167.115,78.445C167.115,78.665 167.335,78.83 168.49,78.94C170.25,79.105 175.64,79.215 176.74,79.215C177.29,79.215 177.73,79.05 177.73,78.775C177.73,78.555 177.565,78.445 177.345,78.445C176.85,78.445 175.585,78.445 174.21,78.005C172.23,77.345 171.9,74.815 171.735,73.165L168.435,44.455Z" style="fill:rgb(51,51,51);fill-rule:nonzero;"/>
    </g>
    <g transform="matrix(1,0,0,1,-16.0175,-13.5075)">
        <path d="M183.285,74.045C182.35,76.41 181.415,78.06 179.215,78.335C178.83,78.39 178.115,78.445 177.785,78.445C177.565,78.445 177.345,78.61 177.345,78.83C177.345,79.105 177.675,79.215 178.28,79.215C180.26,79.215 182.68,79.05 183.175,79.05C183.725,79.05 186.365,79.215 187.52,79.215C187.96,79.215 188.235,79.105 188.235,78.83C188.235,78.61 188.125,78.445 187.74,78.445L187.3,78.445C186.475,78.445 185.65,78.115 185.65,77.18C185.65,76.355 185.925,75.2 186.365,74.045L189.115,66.565C189.225,66.29 189.39,66.18 189.61,66.18L200.775,66.18C201.05,66.18 201.105,66.235 201.215,66.455L205.56,77.18C205.89,77.95 205.395,78.335 205.12,78.445C204.9,78.555 204.79,78.555 204.79,78.775C204.79,79.05 205.56,79.05 206.495,79.105C209.85,79.215 213.425,79.215 214.14,79.215C214.69,79.215 215.24,79.105 215.24,78.83C215.24,78.555 214.91,78.445 214.635,78.445C214.14,78.445 213.425,78.39 212.71,78.17C211.665,77.84 210.345,77.235 208.585,73.055C205.615,65.96 197.86,46.655 196.98,44.675C196.485,43.63 196.32,42.97 195.825,42.97C195.495,42.97 195.275,43.245 194.67,44.785L183.285,74.045ZM190.27,64.255C190.105,64.255 190.05,64.145 190.105,63.925L194.615,51.11C194.89,50.395 195.165,50.395 195.44,51.11L200.225,63.925C200.28,64.145 200.28,64.255 200.06,64.255L190.27,64.255Z" style="fill:rgb(51,51,51);fill-rule:nonzero;"/>
    </g>
    <g transform="matrix(1,0,0,1,-16.0175,-13.5075)">
        <path d="M240.76,63.265C240.76,68.545 240.76,72.89 240.485,75.2C240.265,76.795 239.99,78.005 238.89,78.225C238.395,78.335 237.735,78.445 237.24,78.445C236.91,78.445 236.8,78.61 236.8,78.775C236.8,79.105 237.075,79.215 237.68,79.215C239.33,79.215 242.795,79.05 243.07,79.05C243.345,79.05 246.81,79.215 249.835,79.215C250.44,79.215 250.715,79.05 250.715,78.775C250.715,78.61 250.605,78.445 250.275,78.445C249.78,78.445 248.57,78.335 247.8,78.225C246.15,78.005 245.82,76.795 245.655,75.2C245.38,72.89 245.38,68.545 245.38,63.265L245.38,58.59C245.38,58.205 245.49,58.095 245.765,58.095C246.7,58.095 252.695,58.095 254.07,58.26C255.775,58.48 256.655,59.47 256.93,60.24C257.15,60.9 257.205,61.67 257.26,62.22C257.26,62.495 257.37,62.715 257.645,62.715C258.03,62.715 258.03,62.165 258.03,61.67C258.03,61.285 258.14,59.085 258.25,57.985C258.415,56.17 258.69,55.235 258.69,54.905C258.69,54.63 258.635,54.465 258.415,54.465C258.195,54.465 258.03,54.74 257.81,55.015C257.315,55.73 256.6,55.895 255.28,56.005C254.51,56.06 253.74,56.06 252.805,56.06L245.765,56.115C245.435,56.115 245.38,55.95 245.38,55.62L245.38,40.44C245.38,40 245.545,39.835 245.875,39.835L254.345,40C256.49,40.055 257.755,41.045 258.085,41.76C258.415,42.475 258.58,43.41 258.58,43.85C258.58,44.235 258.69,44.51 258.965,44.51C259.24,44.51 259.35,44.18 259.405,43.905C259.515,43.245 259.625,40.825 259.68,40.275C259.845,38.735 260.12,38.075 260.12,37.69C260.12,37.415 260.01,37.195 259.79,37.195C259.57,37.195 259.35,37.415 259.02,37.525C258.525,37.69 257.645,37.69 256.6,37.745C255.335,37.8 244.17,37.855 243.07,37.8L240.815,37.69C239.605,37.635 238.12,37.635 236.855,37.635C236.25,37.635 235.975,37.745 235.975,38.075C235.975,38.295 236.195,38.405 236.415,38.405C236.91,38.405 237.845,38.46 238.285,38.57C240.1,38.955 240.54,39.835 240.65,41.705C240.76,43.465 240.76,45.005 240.76,53.585L240.76,63.265Z" style="fill:rgb(51,51,51);fill-rule:nonzero;"/>
    </g>
    <g transform="matrix(1,0,0,1,-16.0175,-13.5075)">
        <path d="M276.455,57.38C276.455,50.12 276.455,48.8 276.51,47.315C276.62,45.665 276.895,44.95 278.325,44.675C278.875,44.62 279.59,44.565 279.92,44.565C280.085,44.565 280.305,44.4 280.305,44.235C280.305,43.96 280.03,43.85 279.535,43.85C278.05,43.85 274.42,43.96 274.2,43.96C273.925,43.96 270.9,43.85 268.7,43.85C268.15,43.85 267.93,43.96 267.93,44.235C267.93,44.4 268.15,44.62 268.315,44.62C268.755,44.62 269.58,44.675 269.965,44.73C271.56,44.95 271.835,45.72 271.945,47.315C272.055,48.8 272.055,50.12 272.055,57.38L272.055,65.63C272.055,70.14 272.055,73.825 271.78,75.75C271.56,77.125 271.45,78.005 270.515,78.225C270.075,78.335 269.47,78.445 269.03,78.445C268.755,78.445 268.645,78.665 268.645,78.83C268.645,79.105 268.92,79.215 269.415,79.215C270.185,79.215 271.23,79.16 272.22,79.105C273.155,79.05 273.98,79.05 274.2,79.05C275.63,79.05 277.28,79.105 279.48,79.16C281.735,79.27 284.43,79.325 287.895,79.325C290.48,79.325 290.645,79.16 290.975,78.06C291.36,76.685 291.69,73.88 291.69,73.385C291.69,72.89 291.58,72.67 291.36,72.67C291.085,72.67 290.92,72.945 290.865,73.275C290.7,74.21 290.315,75.2 289.71,75.915C288.555,77.29 286.41,77.345 283.88,77.345C280.085,77.345 278.215,77.015 277.445,76.245C276.565,75.42 276.455,72.615 276.455,65.74L276.455,57.38Z" style="fill:rgb(51,51,51);fill-rule:nonzero;"/>
    </g>
    <g transform="matrix(1,0,0,1,-16.0175,-13.5075)">
        <path d="M294.77,61.45C294.77,69.865 300.435,79.82 313.69,79.82C325.35,79.82 333.105,71.185 333.105,60.735C333.105,49.845 324.855,43.19 313.965,43.19C300.6,43.19 294.77,53.915 294.77,61.45ZM299.775,60.185C299.775,50.01 305.605,44.95 313.69,44.95C321.335,44.95 328.155,50.835 328.155,62.055C328.155,75.585 319.41,77.895 315.065,77.895C306.32,77.895 299.775,71.075 299.775,60.185Z" style="fill:rgb(51,51,51);fill-rule:nonzero;"/>
    </g>
    <g transform="matrix(1,0,0,1,-16.0175,-13.5075)">
        <path d="M343.225,65.63C343.225,70.14 343.225,73.825 342.95,75.75C342.73,77.125 342.62,78.005 341.685,78.225C341.245,78.335 340.64,78.445 340.2,78.445C339.925,78.445 339.815,78.665 339.815,78.83C339.815,79.105 340.09,79.215 340.585,79.215C342.07,79.215 345.315,79.05 345.37,79.05C345.59,79.05 348.67,79.215 351.31,79.215C351.86,79.215 352.08,79.05 352.08,78.83C352.08,78.665 352.025,78.445 351.695,78.445C351.255,78.445 350.21,78.335 349.55,78.225C348.065,78.005 347.79,77.125 347.625,75.75C347.405,73.825 347.405,70.195 347.405,65.685L347.405,64.585C347.405,64.31 347.515,64.2 347.735,64.2L353.895,64.31C354.225,64.31 354.335,64.365 354.555,64.585C355.6,65.85 357.745,68.875 359.78,71.405C362.53,74.925 364.29,77.18 366.38,78.28C367.59,78.94 368.8,79.215 371.55,79.215L374.575,79.215C375.455,79.215 375.73,79.105 375.73,78.83C375.73,78.665 375.565,78.445 375.29,78.445C375.015,78.445 374.52,78.445 373.585,78.28C372.375,78.115 370.78,77.675 368.195,75.035C365.39,72.12 362.035,67.885 358.075,62.935C362.585,59.085 364.015,55.73 364.015,52.265C364.015,49.02 361.87,46.765 360.66,45.885C358.13,44.125 354.72,43.85 351.64,43.85C350.155,43.85 346.085,43.96 345.59,43.96C345.315,43.96 342.07,43.85 339.87,43.85C339.32,43.85 339.1,43.96 339.1,44.235C339.1,44.4 339.32,44.62 339.485,44.62C339.925,44.62 340.75,44.675 341.135,44.73C342.73,44.95 343.005,45.72 343.115,47.315C343.225,48.8 343.225,50.12 343.225,57.38L343.225,65.63ZM347.405,46.325C347.405,46.05 347.57,45.885 347.79,45.775C348.285,45.665 349.825,45.5 351.255,45.5C356.425,45.5 359.615,48.855 359.615,54.685C359.615,58.26 358.35,60.735 356.7,61.835C355.545,62.605 354.225,62.66 353.07,62.66C350.925,62.66 348.45,62.33 347.735,61.945C347.515,61.78 347.405,61.615 347.405,61.34L347.405,46.325Z" style="fill:rgb(51,51,51);fill-rule:nonzero;"/>
    </g>
    <g transform="matrix(1,0,0,1,-16.0175,-13.5075)">
        <path d="M380.185,65.63C380.185,70.14 380.185,73.825 379.91,75.75C379.69,77.125 379.58,78.06 378.645,78.225C378.205,78.28 377.6,78.445 377.16,78.445C376.885,78.445 376.775,78.665 376.775,78.83C376.775,79.105 377.05,79.215 377.545,79.215C378.315,79.215 379.415,79.16 380.35,79.105C381.395,79.05 382.33,79.05 382.44,79.05C383.155,79.05 384.42,79.05 386.455,79.16C388.435,79.215 391.24,79.325 394.87,79.325C396.74,79.325 397.235,79.325 397.565,78.115C397.84,77.125 398.225,73.935 398.225,73.605C398.225,73.275 398.17,72.89 397.895,72.89C397.62,72.89 397.51,73.055 397.4,73.605C397.125,75.475 396.465,76.3 395.2,76.85C393.935,77.345 391.625,77.345 390.36,77.345C385.575,77.345 384.695,76.74 384.585,73.605C384.53,72.67 384.585,67.225 384.585,65.63L384.585,61.725C384.585,61.56 384.64,61.395 384.915,61.395C385.74,61.395 390.91,61.45 392.23,61.615C394.1,61.835 394.54,62.385 394.705,63.045C394.925,63.65 394.925,64.145 394.925,64.585C394.925,64.86 395.035,65.025 395.255,65.025C395.585,65.025 395.695,64.53 395.695,64.145C395.695,63.815 395.805,62.055 395.915,61.12C396.025,59.58 396.3,58.81 396.3,58.535C396.3,58.26 396.19,58.15 396.025,58.15C395.86,58.15 395.64,58.425 395.31,58.755C394.815,59.25 394.1,59.305 392.945,59.415C391.845,59.525 385.465,59.525 384.86,59.525C384.585,59.525 384.585,59.36 384.585,59.03L384.585,46.325C384.585,45.995 384.64,45.83 384.86,45.83C385.41,45.83 391.02,45.885 391.845,45.995C394.485,46.325 394.98,46.655 395.31,47.425C395.53,47.975 395.585,48.745 395.585,49.075C395.585,49.46 395.695,49.68 395.97,49.68C396.19,49.68 396.355,49.405 396.41,49.185C396.52,48.635 396.63,46.545 396.685,46.105C396.795,44.785 397.07,44.235 397.07,43.905C397.07,43.685 397.015,43.465 396.85,43.465C396.63,43.465 396.41,43.63 396.19,43.685C395.805,43.74 394.925,43.905 393.99,43.96C392.89,44.015 382.77,43.96 382.44,43.96C382.165,43.96 379.03,43.85 376.83,43.85C376.28,43.85 376.06,43.96 376.06,44.235C376.06,44.4 376.28,44.62 376.445,44.62C376.885,44.62 377.71,44.675 378.095,44.73C379.69,44.95 379.965,45.72 380.075,47.315C380.185,48.8 380.185,50.12 380.185,57.38L380.185,65.63Z" style="fill:rgb(51,51,51);fill-rule:nonzero;"/>
    </g>
    <g transform="matrix(1,0,0,1,-16.0175,-13.5075)">
        <path d="M411.975,50.78C413.46,52.43 418.905,58.15 424.515,64.035C429.63,69.37 436.615,76.245 437.11,76.685C439.805,79.16 440.3,79.545 440.795,79.545C441.125,79.545 441.18,79.27 441.18,76.19L441.29,48.8C441.29,45.995 441.4,45.06 442.995,44.73C443.545,44.62 443.93,44.62 444.15,44.62C444.48,44.62 444.7,44.345 444.7,44.18C444.7,43.905 444.315,43.85 443.82,43.85C441.84,43.85 440.245,43.96 439.695,43.96C439.145,43.96 436.835,43.85 434.635,43.85C434.085,43.85 433.7,43.905 433.7,44.18C433.7,44.345 433.755,44.62 434.085,44.62C434.47,44.62 435.57,44.675 436.45,44.84C437.935,45.115 438.21,46.16 438.265,49.185L438.76,72.615C437.275,71.075 432.105,65.52 427.32,60.57C419.84,52.87 412.8,45.39 412.03,44.62C411.535,44.125 410.71,43.19 410.16,43.19C409.775,43.19 409.5,43.685 409.5,45.555L409.5,72.34C409.5,76.575 409.335,77.84 408.125,78.17C407.41,78.39 406.53,78.445 406.145,78.445C405.925,78.445 405.76,78.61 405.76,78.83C405.76,79.16 406.035,79.215 406.53,79.215C408.73,79.215 410.765,79.05 411.205,79.05C411.645,79.05 413.57,79.215 416.32,79.215C416.87,79.215 417.2,79.105 417.2,78.83C417.2,78.61 417.035,78.445 416.815,78.445C416.375,78.445 415.275,78.39 414.395,78.17C413.075,77.84 412.635,76.685 412.525,72.835L411.975,50.78Z" style="fill:rgb(51,51,51);fill-rule:nonzero;"/>
    </g>
    <g transform="matrix(1,0,0,1,-16.0175,-13.5075)">
        <path d="M471.87,79.82C475.005,79.82 478.635,79.545 480.615,78.775C481.44,78.445 481.55,78.28 481.825,77.4C482.32,75.805 482.98,71.735 482.98,71.405C482.98,71.075 482.76,70.745 482.54,70.745C482.21,70.745 482.155,70.91 482.045,71.405C481.88,72.285 481.22,74.265 480.175,75.31C478.25,77.235 475.83,77.51 472.2,77.51C461.86,77.51 454.765,69.535 454.765,60.57C454.765,55.84 455.535,51.66 459.11,48.36C460.815,46.765 463.785,45.115 470,45.115C474.29,45.115 477.81,46.27 479.515,47.7C480.78,48.69 481.55,50.56 481.55,52.375C481.55,53.035 481.605,53.365 481.935,53.365C482.21,53.365 482.43,53.09 482.485,52.375C482.54,51.715 482.54,49.13 482.595,47.59C482.705,45.885 482.815,45.335 482.815,44.95C482.815,44.675 482.705,44.455 482.21,44.455C480.615,44.4 479.075,44.07 477.26,43.74C474.895,43.355 472.145,43.19 470.22,43.19C462.795,43.19 458.395,45.39 455.48,48.195C451.19,52.375 450.035,57.82 450.035,60.955C450.035,65.41 451.19,70.745 455.92,74.815C459.715,78.115 464.61,79.82 471.87,79.82Z" style="fill:rgb(51,51,51);fill-rule:nonzero;"/>
    </g>
    <g transform="matrix(1,0,0,1,-16.0175,-13.5075)">
        <path d="M494.475,65.63C494.475,70.14 494.475,73.825 494.2,75.75C493.98,77.125 493.87,78.06 492.935,78.225C492.495,78.28 491.89,78.445 491.45,78.445C491.175,78.445 491.065,78.665 491.065,78.83C491.065,79.105 491.34,79.215 491.835,79.215C492.605,79.215 493.705,79.16 494.64,79.105C495.685,79.05 496.62,79.05 496.73,79.05C497.445,79.05 498.71,79.05 500.745,79.16C502.725,79.215 505.53,79.325 509.16,79.325C511.03,79.325 511.525,79.325 511.855,78.115C512.13,77.125 512.515,73.935 512.515,73.605C512.515,73.275 512.46,72.89 512.185,72.89C511.91,72.89 511.8,73.055 511.69,73.605C511.415,75.475 510.755,76.3 509.49,76.85C508.225,77.345 505.915,77.345 504.65,77.345C499.865,77.345 498.985,76.74 498.875,73.605C498.82,72.67 498.875,67.225 498.875,65.63L498.875,61.725C498.875,61.56 498.93,61.395 499.205,61.395C500.03,61.395 505.2,61.45 506.52,61.615C508.39,61.835 508.83,62.385 508.995,63.045C509.215,63.65 509.215,64.145 509.215,64.585C509.215,64.86 509.325,65.025 509.545,65.025C509.875,65.025 509.985,64.53 509.985,64.145C509.985,63.815 510.095,62.055 510.205,61.12C510.315,59.58 510.59,58.81 510.59,58.535C510.59,58.26 510.48,58.15 510.315,58.15C510.15,58.15 509.93,58.425 509.6,58.755C509.105,59.25 508.39,59.305 507.235,59.415C506.135,59.525 499.755,59.525 499.15,59.525C498.875,59.525 498.875,59.36 498.875,59.03L498.875,46.325C498.875,45.995 498.93,45.83 499.15,45.83C499.7,45.83 505.31,45.885 506.135,45.995C508.775,46.325 509.27,46.655 509.6,47.425C509.82,47.975 509.875,48.745 509.875,49.075C509.875,49.46 509.985,49.68 510.26,49.68C510.48,49.68 510.645,49.405 510.7,49.185C510.81,48.635 510.92,46.545 510.975,46.105C511.085,44.785 511.36,44.235 511.36,43.905C511.36,43.685 511.305,43.465 511.14,43.465C510.92,43.465 510.7,43.63 510.48,43.685C510.095,43.74 509.215,43.905 508.28,43.96C507.18,44.015 497.06,43.96 496.73,43.96C496.455,43.96 493.32,43.85 491.12,43.85C490.57,43.85 490.35,43.96 490.35,44.235C490.35,44.4 490.57,44.62 490.735,44.62C491.175,44.62 492,44.675 492.385,44.73C493.98,44.95 494.255,45.72 494.365,47.315C494.475,48.8 494.475,50.12 494.475,57.38L494.475,65.63Z" style="fill:rgb(51,51,51);fill-rule:nonzero;"/>
    </g>
    <g transform="matrix(1,0,0,1,-16.0175,-13.5075)">
        <path d="M548.54,53.585C548.54,45.005 548.54,43.465 548.65,41.705C548.76,39.78 549.2,38.845 550.685,38.57C551.345,38.46 551.675,38.405 552.06,38.405C552.28,38.405 552.5,38.295 552.5,38.075C552.5,37.745 552.225,37.635 551.62,37.635C549.97,37.635 546.505,37.8 546.23,37.8C545.955,37.8 542.49,37.635 540.675,37.635C540.07,37.635 539.795,37.745 539.795,38.075C539.795,38.295 540.015,38.405 540.235,38.405C540.62,38.405 541.335,38.46 541.94,38.625C543.15,38.9 543.7,39.835 543.81,41.705C543.92,43.465 543.92,45.005 543.92,53.585L543.92,63.265C543.92,68.545 543.92,72.89 543.645,75.2C543.425,76.795 543.15,78.005 542.05,78.225C541.555,78.335 540.895,78.445 540.4,78.445C540.07,78.445 539.96,78.61 539.96,78.775C539.96,79.105 540.235,79.215 540.84,79.215C542.49,79.215 545.955,79.05 546.23,79.05C546.505,79.05 549.97,79.215 552.995,79.215C553.6,79.215 553.875,79.05 553.875,78.775C553.875,78.61 553.765,78.445 553.435,78.445C552.94,78.445 551.73,78.335 550.96,78.225C549.31,78.005 548.98,76.795 548.815,75.2C548.54,72.89 548.54,68.545 548.54,63.265L548.54,53.585Z" style="fill:rgb(51,51,51);fill-rule:nonzero;"/>
    </g>
    <g transform="matrix(1,0,0,1,-16.0175,-13.5075)">
        <path d="M569.825,79.82C572.465,79.82 575.49,79.49 577.525,78.17C580.99,75.915 582.035,72.945 582.035,70.195C582.035,66.18 580,62.935 574.115,58.92L572.74,57.985C567.955,54.74 566.47,53.035 566.47,50.065C566.47,46.765 569.385,45.005 572.905,45.005C577.25,45.005 578.845,46.765 579.175,47.315C579.45,47.81 579.835,49.075 579.89,49.625C579.945,50.01 580,50.23 580.33,50.23C580.66,50.23 580.715,49.9 580.715,49.185C580.715,45.995 580.935,44.455 580.935,44.235C580.935,43.96 580.825,43.905 580.44,43.905C580.055,43.905 579.67,43.905 578.735,43.685C577.58,43.41 575.655,43.135 573.73,43.135C567.35,43.135 563.005,46.435 563.005,51.935C563.005,55.18 564.71,58.04 569.935,61.945L572.135,63.595C576.425,66.785 578.24,68.38 578.24,71.735C578.24,75.255 575.765,77.95 570.98,77.95C567.735,77.95 564.105,76.74 563.335,73.33C563.17,72.67 563.17,72.01 563.17,71.625C563.17,71.24 563.005,71.075 562.73,71.075C562.455,71.075 562.345,71.35 562.345,71.845C562.29,72.615 562.07,74.485 562.07,76.795C562.07,78.06 562.125,78.225 562.785,78.555C564.765,79.49 567.57,79.82 569.825,79.82Z" style="fill:rgb(51,51,51);fill-rule:nonzero;"/>
    </g>
    <g transform="matrix(1,0,0,1,-16.0175,-13.5075)">
        <path d="M591.66,74.045C590.725,76.41 589.79,78.06 587.59,78.335C587.205,78.39 586.49,78.445 586.16,78.445C585.94,78.445 585.72,78.61 585.72,78.83C585.72,79.105 586.05,79.215 586.655,79.215C588.635,79.215 591.055,79.05 591.55,79.05C592.1,79.05 594.74,79.215 595.895,79.215C596.335,79.215 596.61,79.105 596.61,78.83C596.61,78.61 596.5,78.445 596.115,78.445L595.675,78.445C594.85,78.445 594.025,78.115 594.025,77.18C594.025,76.355 594.3,75.2 594.74,74.045L597.49,66.565C597.6,66.29 597.765,66.18 597.985,66.18L609.15,66.18C609.425,66.18 609.48,66.235 609.59,66.455L613.935,77.18C614.265,77.95 613.77,78.335 613.495,78.445C613.275,78.555 613.165,78.555 613.165,78.775C613.165,79.05 613.935,79.05 614.87,79.105C618.225,79.215 621.8,79.215 622.515,79.215C623.065,79.215 623.615,79.105 623.615,78.83C623.615,78.555 623.285,78.445 623.01,78.445C622.515,78.445 621.8,78.39 621.085,78.17C620.04,77.84 618.72,77.235 616.96,73.055C613.99,65.96 606.235,46.655 605.355,44.675C604.86,43.63 604.695,42.97 604.2,42.97C603.87,42.97 603.65,43.245 603.045,44.785L591.66,74.045ZM598.645,64.255C598.48,64.255 598.425,64.145 598.48,63.925L602.99,51.11C603.265,50.395 603.54,50.395 603.815,51.11L608.6,63.925C608.655,64.145 608.655,64.255 608.435,64.255L598.645,64.255Z" style="fill:rgb(51,51,51);fill-rule:nonzero;"/>
    </g>
    <g transform="matrix(1,0,0,1,-16.0175,-13.5075)">
        <path d="M625.98,74.045C625.045,76.41 624.11,78.06 621.91,78.335C621.525,78.39 620.81,78.445 620.48,78.445C620.26,78.445 620.04,78.61 620.04,78.83C620.04,79.105 620.37,79.215 620.975,79.215C622.955,79.215 625.375,79.05 625.87,79.05C626.42,79.05 629.06,79.215 630.215,79.215C630.655,79.215 630.93,79.105 630.93,78.83C630.93,78.61 630.82,78.445 630.435,78.445L629.995,78.445C629.17,78.445 628.345,78.115 628.345,77.18C628.345,76.355 628.62,75.2 629.06,74.045L631.81,66.565C631.92,66.29 632.085,66.18 632.305,66.18L643.47,66.18C643.745,66.18 643.8,66.235 643.91,66.455L648.255,77.18C648.585,77.95 648.09,78.335 647.815,78.445C647.595,78.555 647.485,78.555 647.485,78.775C647.485,79.05 648.255,79.05 649.19,79.105C652.545,79.215 656.12,79.215 656.835,79.215C657.385,79.215 657.935,79.105 657.935,78.83C657.935,78.555 657.605,78.445 657.33,78.445C656.835,78.445 656.12,78.39 655.405,78.17C654.36,77.84 653.04,77.235 651.28,73.055C648.31,65.96 640.555,46.655 639.675,44.675C639.18,43.63 639.015,42.97 638.52,42.97C638.19,42.97 637.97,43.245 637.365,44.785L625.98,74.045ZM632.965,64.255C632.8,64.255 632.745,64.145 632.8,63.925L637.31,51.11C637.585,50.395 637.86,50.395 638.135,51.11L642.92,63.925C642.975,64.145 642.975,64.255 642.755,64.255L632.965,64.255Z" style="fill:rgb(51,51,51);fill-rule:nonzero;"/>
    </g>
    <g transform="matrix(1,0,0,1,-16.0175,-13.5075)">
        <path d="M680.65,79.82C683.785,79.82 687.415,79.545 689.395,78.775C690.22,78.445 690.33,78.28 690.605,77.4C691.1,75.805 691.76,71.735 691.76,71.405C691.76,71.075 691.54,70.745 691.32,70.745C690.99,70.745 690.935,70.91 690.825,71.405C690.66,72.285 690,74.265 688.955,75.31C687.03,77.235 684.61,77.51 680.98,77.51C670.64,77.51 663.545,69.535 663.545,60.57C663.545,55.84 664.315,51.66 667.89,48.36C669.595,46.765 672.565,45.115 678.78,45.115C683.07,45.115 686.59,46.27 688.295,47.7C689.56,48.69 690.33,50.56 690.33,52.375C690.33,53.035 690.385,53.365 690.715,53.365C690.99,53.365 691.21,53.09 691.265,52.375C691.32,51.715 691.32,49.13 691.375,47.59C691.485,45.885 691.595,45.335 691.595,44.95C691.595,44.675 691.485,44.455 690.99,44.455C689.395,44.4 687.855,44.07 686.04,43.74C683.675,43.355 680.925,43.19 679,43.19C671.575,43.19 667.175,45.39 664.26,48.195C659.97,52.375 658.815,57.82 658.815,60.955C658.815,65.41 659.97,70.745 664.7,74.815C668.495,78.115 673.39,79.82 680.65,79.82Z" style="fill:rgb(51,51,51);fill-rule:nonzero;"/>
    </g>
</svg>
