<?xml version="1.0" encoding="UTF-8" standalone="no"?>
<!DOCTYPE svg PUBLIC "-//W3C//DTD SVG 1.1//EN" "http://www.w3.org/Graphics/SVG/1.1/DTD/svg11.dtd">
<svg width="100%" height="100%" viewBox="0 0 1790 128" version="1.1" xmlns="http://www.w3.org/2000/svg" xmlns:xlink="http://www.w3.org/1999/xlink" xml:space="preserve" xmlns:serif="http://www.serif.com/" style="fill-rule:evenodd;clip-rule:evenodd;stroke-linejoin:round;stroke-miterlimit:2;">
    <g transform="matrix(1.00084,0,0,1.00084,-553.995,-357.197)">
        <g transform="matrix(143.879,0,0,143.879,571.704,471.659)">
            <path d="M0.178,-0.287C0.178,-0.191 0.178,-0.112 0.173,-0.07C0.169,-0.041 0.164,-0.019 0.144,-0.015C0.135,-0.013 0.123,-0.011 0.114,-0.011C0.108,-0.011 0.106,-0.008 0.106,-0.005C0.106,0.001 0.111,0.003 0.122,0.003C0.152,0.003 0.215,0 0.218,0C0.223,0 0.286,0.003 0.341,0.003C0.352,0.003 0.357,0 0.357,-0.005C0.357,-0.008 0.355,-0.011 0.349,-0.011C0.34,-0.011 0.318,-0.013 0.304,-0.015C0.274,-0.019 0.268,-0.041 0.265,-0.07C0.26,-0.112 0.26,-0.191 0.26,-0.287L0.26,-0.698C0.26,-0.708 0.262,-0.715 0.268,-0.717C0.277,-0.721 0.294,-0.723 0.311,-0.723C0.334,-0.723 0.395,-0.727 0.448,-0.673C0.501,-0.619 0.504,-0.552 0.504,-0.519C0.504,-0.427 0.428,-0.356 0.331,-0.356C0.31,-0.356 0.304,-0.355 0.304,-0.347C0.304,-0.342 0.31,-0.34 0.315,-0.34C0.32,-0.339 0.331,-0.339 0.336,-0.339C0.478,-0.339 0.582,-0.435 0.582,-0.577C0.582,-0.63 0.554,-0.675 0.532,-0.696C0.516,-0.711 0.471,-0.753 0.346,-0.753C0.3,-0.753 0.242,-0.75 0.22,-0.75C0.212,-0.75 0.152,-0.753 0.107,-0.753C0.096,-0.753 0.091,-0.751 0.091,-0.745C0.091,-0.741 0.095,-0.739 0.099,-0.739C0.108,-0.739 0.125,-0.738 0.133,-0.736C0.166,-0.729 0.174,-0.713 0.176,-0.679C0.178,-0.647 0.178,-0.619 0.178,-0.463L0.178,-0.287Z" style="fill-rule:nonzero;"/>
        </g>
        <g transform="matrix(143.879,0,0,143.879,661.773,471.659)">
            <path d="M0.155,-0.244C0.155,-0.162 0.155,-0.095 0.15,-0.06C0.146,-0.035 0.144,-0.019 0.127,-0.015C0.119,-0.013 0.108,-0.011 0.1,-0.011C0.095,-0.011 0.093,-0.007 0.093,-0.004C0.093,0.001 0.098,0.003 0.107,0.003C0.134,0.003 0.193,0 0.194,0C0.198,0 0.254,0.003 0.302,0.003C0.312,0.003 0.316,0 0.316,-0.004C0.316,-0.007 0.315,-0.011 0.309,-0.011C0.301,-0.011 0.282,-0.013 0.27,-0.015C0.243,-0.019 0.238,-0.035 0.235,-0.06C0.231,-0.095 0.231,-0.161 0.231,-0.243L0.231,-0.263C0.231,-0.268 0.233,-0.27 0.237,-0.27L0.349,-0.268C0.355,-0.268 0.357,-0.267 0.361,-0.263C0.38,-0.24 0.419,-0.185 0.456,-0.139C0.506,-0.075 0.538,-0.034 0.576,-0.014C0.598,-0.002 0.62,0.003 0.67,0.003L0.725,0.003C0.741,0.003 0.746,0.001 0.746,-0.004C0.746,-0.007 0.743,-0.011 0.738,-0.011C0.733,-0.011 0.724,-0.011 0.707,-0.014C0.685,-0.017 0.656,-0.025 0.609,-0.073C0.558,-0.126 0.497,-0.203 0.425,-0.293C0.507,-0.363 0.533,-0.424 0.533,-0.487C0.533,-0.546 0.494,-0.587 0.472,-0.603C0.426,-0.635 0.364,-0.64 0.308,-0.64C0.281,-0.64 0.207,-0.638 0.198,-0.638C0.193,-0.638 0.134,-0.64 0.094,-0.64C0.084,-0.64 0.08,-0.638 0.08,-0.633C0.08,-0.63 0.084,-0.626 0.087,-0.626C0.095,-0.626 0.11,-0.625 0.117,-0.624C0.146,-0.62 0.151,-0.606 0.153,-0.577C0.155,-0.55 0.155,-0.526 0.155,-0.394L0.155,-0.244ZM0.231,-0.595C0.231,-0.6 0.234,-0.603 0.238,-0.605C0.247,-0.607 0.275,-0.61 0.301,-0.61C0.395,-0.61 0.453,-0.549 0.453,-0.443C0.453,-0.378 0.43,-0.333 0.4,-0.313C0.379,-0.299 0.355,-0.298 0.334,-0.298C0.295,-0.298 0.25,-0.304 0.237,-0.311C0.233,-0.314 0.231,-0.317 0.231,-0.322L0.231,-0.595Z" style="fill-rule:nonzero;"/>
        </g>
        <g transform="matrix(143.879,0,0,143.879,758.459,471.659)">
            <path d="M0.155,-0.244C0.155,-0.162 0.155,-0.095 0.15,-0.06C0.146,-0.035 0.144,-0.018 0.127,-0.015C0.119,-0.014 0.108,-0.011 0.1,-0.011C0.095,-0.011 0.093,-0.007 0.093,-0.004C0.093,0.001 0.098,0.003 0.107,0.003C0.121,0.003 0.141,0.002 0.158,0.001C0.177,0 0.194,0 0.196,0C0.209,0 0.232,0 0.269,0.002C0.305,0.003 0.356,0.005 0.422,0.005C0.456,0.005 0.465,0.005 0.471,-0.017C0.476,-0.035 0.483,-0.093 0.483,-0.099C0.483,-0.105 0.482,-0.112 0.477,-0.112C0.472,-0.112 0.47,-0.109 0.468,-0.099C0.463,-0.065 0.451,-0.05 0.428,-0.04C0.405,-0.031 0.363,-0.031 0.34,-0.031C0.253,-0.031 0.237,-0.042 0.235,-0.099C0.234,-0.116 0.235,-0.215 0.235,-0.244L0.235,-0.315C0.235,-0.318 0.236,-0.321 0.241,-0.321C0.256,-0.321 0.35,-0.32 0.374,-0.317C0.408,-0.313 0.416,-0.303 0.419,-0.291C0.423,-0.28 0.423,-0.271 0.423,-0.263C0.423,-0.258 0.425,-0.255 0.429,-0.255C0.435,-0.255 0.437,-0.264 0.437,-0.271C0.437,-0.277 0.439,-0.309 0.441,-0.326C0.443,-0.354 0.448,-0.368 0.448,-0.373C0.448,-0.378 0.446,-0.38 0.443,-0.38C0.44,-0.38 0.436,-0.375 0.43,-0.369C0.421,-0.36 0.408,-0.359 0.387,-0.357C0.367,-0.355 0.251,-0.355 0.24,-0.355C0.235,-0.355 0.235,-0.358 0.235,-0.364L0.235,-0.595C0.235,-0.601 0.236,-0.604 0.24,-0.604C0.25,-0.604 0.352,-0.603 0.367,-0.601C0.415,-0.595 0.424,-0.589 0.43,-0.575C0.434,-0.565 0.435,-0.551 0.435,-0.545C0.435,-0.538 0.437,-0.534 0.442,-0.534C0.446,-0.534 0.449,-0.539 0.45,-0.543C0.452,-0.553 0.454,-0.591 0.455,-0.599C0.457,-0.623 0.462,-0.633 0.462,-0.639C0.462,-0.643 0.461,-0.647 0.458,-0.647C0.454,-0.647 0.45,-0.644 0.446,-0.643C0.439,-0.642 0.423,-0.639 0.406,-0.638C0.386,-0.637 0.202,-0.638 0.196,-0.638C0.191,-0.638 0.134,-0.64 0.094,-0.64C0.084,-0.64 0.08,-0.638 0.08,-0.633C0.08,-0.63 0.084,-0.626 0.087,-0.626C0.095,-0.626 0.11,-0.625 0.117,-0.624C0.146,-0.62 0.151,-0.606 0.153,-0.577C0.155,-0.55 0.155,-0.526 0.155,-0.394L0.155,-0.244Z" style="fill-rule:nonzero;"/>
        </g>
        <g transform="matrix(143.879,0,0,143.879,837.736,471.659)">
            <path d="M0.754,-0.629C0.752,-0.645 0.747,-0.652 0.741,-0.652C0.735,-0.652 0.731,-0.646 0.727,-0.638L0.471,-0.111L0.205,-0.639C0.2,-0.649 0.193,-0.652 0.187,-0.652C0.182,-0.652 0.178,-0.646 0.177,-0.637L0.113,-0.082C0.109,-0.05 0.108,-0.019 0.079,-0.014C0.066,-0.012 0.06,-0.011 0.053,-0.011C0.048,-0.011 0.044,-0.008 0.044,-0.005C0.044,0.001 0.05,0.003 0.059,0.003C0.083,0.003 0.125,0 0.133,0C0.14,0 0.182,0.003 0.215,0.003C0.225,0.003 0.231,0.001 0.231,-0.005C0.231,-0.008 0.227,-0.011 0.224,-0.011C0.218,-0.011 0.205,-0.012 0.19,-0.016C0.177,-0.019 0.169,-0.027 0.169,-0.04C0.169,-0.054 0.169,-0.07 0.17,-0.083L0.204,-0.467L0.208,-0.467C0.223,-0.432 0.294,-0.289 0.32,-0.235C0.342,-0.189 0.4,-0.08 0.423,-0.038C0.44,-0.007 0.445,0.001 0.453,0.001C0.461,0.001 0.466,-0.007 0.484,-0.044L0.696,-0.478L0.698,-0.478L0.74,-0.048C0.742,-0.032 0.741,-0.019 0.736,-0.018C0.732,-0.017 0.73,-0.014 0.73,-0.011C0.73,-0.007 0.734,-0.004 0.755,-0.002C0.787,0.001 0.885,0.003 0.905,0.003C0.915,0.003 0.923,0 0.923,-0.005C0.923,-0.009 0.92,-0.011 0.916,-0.011C0.907,-0.011 0.884,-0.011 0.859,-0.019C0.823,-0.031 0.817,-0.077 0.814,-0.107L0.754,-0.629Z" style="fill-rule:nonzero;"/>
        </g>
        <g transform="matrix(143.879,0,0,143.879,973.27,471.659)">
            <path d="M0.082,-0.091C0.065,-0.048 0.048,-0.018 0.008,-0.013C0.001,-0.012 -0.012,-0.011 -0.018,-0.011C-0.022,-0.011 -0.026,-0.008 -0.026,-0.004C-0.026,0.001 -0.02,0.003 -0.009,0.003C0.027,0.003 0.071,0 0.08,0C0.09,0 0.138,0.003 0.159,0.003C0.167,0.003 0.172,0.001 0.172,-0.004C0.172,-0.008 0.17,-0.011 0.163,-0.011L0.155,-0.011C0.14,-0.011 0.125,-0.017 0.125,-0.034C0.125,-0.049 0.13,-0.07 0.138,-0.091L0.188,-0.227C0.19,-0.232 0.193,-0.234 0.197,-0.234L0.4,-0.234C0.405,-0.234 0.406,-0.233 0.408,-0.229L0.487,-0.034C0.493,-0.02 0.484,-0.013 0.479,-0.011C0.475,-0.009 0.473,-0.009 0.473,-0.005C0.473,0 0.487,0 0.504,0.001C0.565,0.003 0.63,0.003 0.643,0.003C0.653,0.003 0.663,0.001 0.663,-0.004C0.663,-0.009 0.657,-0.011 0.652,-0.011C0.643,-0.011 0.63,-0.012 0.617,-0.016C0.598,-0.022 0.574,-0.033 0.542,-0.109C0.488,-0.238 0.347,-0.589 0.331,-0.625C0.322,-0.644 0.319,-0.656 0.31,-0.656C0.304,-0.656 0.3,-0.651 0.289,-0.623L0.082,-0.091ZM0.209,-0.269C0.206,-0.269 0.205,-0.271 0.206,-0.275L0.288,-0.508C0.293,-0.521 0.298,-0.521 0.303,-0.508L0.39,-0.275C0.391,-0.271 0.391,-0.269 0.387,-0.269L0.209,-0.269Z" style="fill-rule:nonzero;"/>
        </g>
        <g transform="matrix(143.879,0,0,143.879,1109.81,471.659)">
            <path d="M0.178,-0.287C0.178,-0.191 0.178,-0.112 0.173,-0.07C0.169,-0.041 0.164,-0.019 0.144,-0.015C0.135,-0.013 0.123,-0.011 0.114,-0.011C0.108,-0.011 0.106,-0.008 0.106,-0.005C0.106,0.001 0.111,0.003 0.122,0.003C0.152,0.003 0.215,0 0.22,0C0.225,0 0.288,0.003 0.343,0.003C0.354,0.003 0.359,0 0.359,-0.005C0.359,-0.008 0.357,-0.011 0.351,-0.011C0.342,-0.011 0.32,-0.013 0.306,-0.015C0.276,-0.019 0.27,-0.041 0.267,-0.07C0.262,-0.112 0.262,-0.191 0.262,-0.287L0.262,-0.372C0.262,-0.379 0.264,-0.381 0.269,-0.381C0.286,-0.381 0.395,-0.381 0.42,-0.378C0.451,-0.374 0.467,-0.356 0.472,-0.342C0.476,-0.33 0.477,-0.316 0.478,-0.306C0.478,-0.301 0.48,-0.297 0.485,-0.297C0.492,-0.297 0.492,-0.307 0.492,-0.316C0.492,-0.323 0.494,-0.363 0.496,-0.383C0.499,-0.416 0.504,-0.433 0.504,-0.439C0.504,-0.444 0.503,-0.447 0.499,-0.447C0.495,-0.447 0.492,-0.442 0.488,-0.437C0.479,-0.424 0.466,-0.421 0.442,-0.419C0.428,-0.418 0.414,-0.418 0.397,-0.418L0.269,-0.417C0.263,-0.417 0.262,-0.42 0.262,-0.426L0.262,-0.702C0.262,-0.71 0.265,-0.713 0.271,-0.713L0.425,-0.71C0.464,-0.709 0.487,-0.691 0.493,-0.678C0.499,-0.665 0.502,-0.648 0.502,-0.64C0.502,-0.633 0.504,-0.628 0.509,-0.628C0.514,-0.628 0.516,-0.634 0.517,-0.639C0.519,-0.651 0.521,-0.695 0.522,-0.705C0.525,-0.733 0.53,-0.745 0.53,-0.752C0.53,-0.757 0.528,-0.761 0.524,-0.761C0.52,-0.761 0.516,-0.757 0.51,-0.755C0.501,-0.752 0.485,-0.752 0.466,-0.751C0.443,-0.75 0.24,-0.749 0.22,-0.75L0.179,-0.752C0.157,-0.753 0.13,-0.753 0.107,-0.753C0.096,-0.753 0.091,-0.751 0.091,-0.745C0.091,-0.741 0.095,-0.739 0.099,-0.739C0.108,-0.739 0.125,-0.738 0.133,-0.736C0.166,-0.729 0.174,-0.713 0.176,-0.679C0.178,-0.647 0.178,-0.619 0.178,-0.463L0.178,-0.287Z" style="fill-rule:nonzero;"/>
        </g>
        <g transform="matrix(143.879,0,0,143.879,1194.99,471.659)">
            <path d="M0.235,-0.394C0.235,-0.526 0.235,-0.55 0.236,-0.577C0.238,-0.607 0.243,-0.62 0.269,-0.625C0.279,-0.626 0.292,-0.627 0.298,-0.627C0.301,-0.627 0.305,-0.63 0.305,-0.633C0.305,-0.638 0.3,-0.64 0.291,-0.64C0.264,-0.64 0.198,-0.638 0.194,-0.638C0.189,-0.638 0.134,-0.64 0.094,-0.64C0.084,-0.64 0.08,-0.638 0.08,-0.633C0.08,-0.63 0.084,-0.626 0.087,-0.626C0.095,-0.626 0.11,-0.625 0.117,-0.624C0.146,-0.62 0.151,-0.606 0.153,-0.577C0.155,-0.55 0.155,-0.526 0.155,-0.394L0.155,-0.244C0.155,-0.162 0.155,-0.095 0.15,-0.06C0.146,-0.035 0.144,-0.019 0.127,-0.015C0.119,-0.013 0.108,-0.011 0.1,-0.011C0.095,-0.011 0.093,-0.007 0.093,-0.004C0.093,0.001 0.098,0.003 0.107,0.003C0.121,0.003 0.14,0.002 0.158,0.001C0.175,0 0.19,0 0.194,0C0.22,0 0.25,0.001 0.29,0.002C0.331,0.004 0.38,0.005 0.443,0.005C0.49,0.005 0.493,0.002 0.499,-0.018C0.506,-0.043 0.512,-0.094 0.512,-0.103C0.512,-0.112 0.51,-0.116 0.506,-0.116C0.501,-0.116 0.498,-0.111 0.497,-0.105C0.494,-0.088 0.487,-0.07 0.476,-0.057C0.455,-0.032 0.416,-0.031 0.37,-0.031C0.301,-0.031 0.267,-0.037 0.253,-0.051C0.237,-0.066 0.235,-0.117 0.235,-0.242L0.235,-0.394Z" style="fill-rule:nonzero;"/>
        </g>
        <g transform="matrix(143.879,0,0,143.879,1268.8,471.659)">
            <path d="M0.055,-0.32C0.055,-0.167 0.158,0.014 0.399,0.014C0.611,0.014 0.752,-0.143 0.752,-0.333C0.752,-0.531 0.602,-0.652 0.404,-0.652C0.161,-0.652 0.055,-0.457 0.055,-0.32ZM0.146,-0.343C0.146,-0.528 0.252,-0.62 0.399,-0.62C0.538,-0.62 0.662,-0.513 0.662,-0.309C0.662,-0.063 0.503,-0.021 0.424,-0.021C0.265,-0.021 0.146,-0.145 0.146,-0.343Z" style="fill-rule:nonzero;"/>
        </g>
        <g transform="matrix(143.879,0,0,143.879,1381.17,471.659)">
            <path d="M0.155,-0.244C0.155,-0.162 0.155,-0.095 0.15,-0.06C0.146,-0.035 0.144,-0.019 0.127,-0.015C0.119,-0.013 0.108,-0.011 0.1,-0.011C0.095,-0.011 0.093,-0.007 0.093,-0.004C0.093,0.001 0.098,0.003 0.107,0.003C0.134,0.003 0.193,0 0.194,0C0.198,0 0.254,0.003 0.302,0.003C0.312,0.003 0.316,0 0.316,-0.004C0.316,-0.007 0.315,-0.011 0.309,-0.011C0.301,-0.011 0.282,-0.013 0.27,-0.015C0.243,-0.019 0.238,-0.035 0.235,-0.06C0.231,-0.095 0.231,-0.161 0.231,-0.243L0.231,-0.263C0.231,-0.268 0.233,-0.27 0.237,-0.27L0.349,-0.268C0.355,-0.268 0.357,-0.267 0.361,-0.263C0.38,-0.24 0.419,-0.185 0.456,-0.139C0.506,-0.075 0.538,-0.034 0.576,-0.014C0.598,-0.002 0.62,0.003 0.67,0.003L0.725,0.003C0.741,0.003 0.746,0.001 0.746,-0.004C0.746,-0.007 0.743,-0.011 0.738,-0.011C0.733,-0.011 0.724,-0.011 0.707,-0.014C0.685,-0.017 0.656,-0.025 0.609,-0.073C0.558,-0.126 0.497,-0.203 0.425,-0.293C0.507,-0.363 0.533,-0.424 0.533,-0.487C0.533,-0.546 0.494,-0.587 0.472,-0.603C0.426,-0.635 0.364,-0.64 0.308,-0.64C0.281,-0.64 0.207,-0.638 0.198,-0.638C0.193,-0.638 0.134,-0.64 0.094,-0.64C0.084,-0.64 0.08,-0.638 0.08,-0.633C0.08,-0.63 0.084,-0.626 0.087,-0.626C0.095,-0.626 0.11,-0.625 0.117,-0.624C0.146,-0.62 0.151,-0.606 0.153,-0.577C0.155,-0.55 0.155,-0.526 0.155,-0.394L0.155,-0.244ZM0.231,-0.595C0.231,-0.6 0.234,-0.603 0.238,-0.605C0.247,-0.607 0.275,-0.61 0.301,-0.61C0.395,-0.61 0.453,-0.549 0.453,-0.443C0.453,-0.378 0.43,-0.333 0.4,-0.313C0.379,-0.299 0.355,-0.298 0.334,-0.298C0.295,-0.298 0.25,-0.304 0.237,-0.311C0.233,-0.314 0.231,-0.317 0.231,-0.322L0.231,-0.595Z" style="fill-rule:nonzero;"/>
        </g>
        <g transform="matrix(143.879,0,0,143.879,1477.85,471.659)">
            <path d="M0.155,-0.244C0.155,-0.162 0.155,-0.095 0.15,-0.06C0.146,-0.035 0.144,-0.018 0.127,-0.015C0.119,-0.014 0.108,-0.011 0.1,-0.011C0.095,-0.011 0.093,-0.007 0.093,-0.004C0.093,0.001 0.098,0.003 0.107,0.003C0.121,0.003 0.141,0.002 0.158,0.001C0.177,0 0.194,0 0.196,0C0.209,0 0.232,0 0.269,0.002C0.305,0.003 0.356,0.005 0.422,0.005C0.456,0.005 0.465,0.005 0.471,-0.017C0.476,-0.035 0.483,-0.093 0.483,-0.099C0.483,-0.105 0.482,-0.112 0.477,-0.112C0.472,-0.112 0.47,-0.109 0.468,-0.099C0.463,-0.065 0.451,-0.05 0.428,-0.04C0.405,-0.031 0.363,-0.031 0.34,-0.031C0.253,-0.031 0.237,-0.042 0.235,-0.099C0.234,-0.116 0.235,-0.215 0.235,-0.244L0.235,-0.315C0.235,-0.318 0.236,-0.321 0.241,-0.321C0.256,-0.321 0.35,-0.32 0.374,-0.317C0.408,-0.313 0.416,-0.303 0.419,-0.291C0.423,-0.28 0.423,-0.271 0.423,-0.263C0.423,-0.258 0.425,-0.255 0.429,-0.255C0.435,-0.255 0.437,-0.264 0.437,-0.271C0.437,-0.277 0.439,-0.309 0.441,-0.326C0.443,-0.354 0.448,-0.368 0.448,-0.373C0.448,-0.378 0.446,-0.38 0.443,-0.38C0.44,-0.38 0.436,-0.375 0.43,-0.369C0.421,-0.36 0.408,-0.359 0.387,-0.357C0.367,-0.355 0.251,-0.355 0.24,-0.355C0.235,-0.355 0.235,-0.358 0.235,-0.364L0.235,-0.595C0.235,-0.601 0.236,-0.604 0.24,-0.604C0.25,-0.604 0.352,-0.603 0.367,-0.601C0.415,-0.595 0.424,-0.589 0.43,-0.575C0.434,-0.565 0.435,-0.551 0.435,-0.545C0.435,-0.538 0.437,-0.534 0.442,-0.534C0.446,-0.534 0.449,-0.539 0.45,-0.543C0.452,-0.553 0.454,-0.591 0.455,-0.599C0.457,-0.623 0.462,-0.633 0.462,-0.639C0.462,-0.643 0.461,-0.647 0.458,-0.647C0.454,-0.647 0.45,-0.644 0.446,-0.643C0.439,-0.642 0.423,-0.639 0.406,-0.638C0.386,-0.637 0.202,-0.638 0.196,-0.638C0.191,-0.638 0.134,-0.64 0.094,-0.64C0.084,-0.64 0.08,-0.638 0.08,-0.633C0.08,-0.63 0.084,-0.626 0.087,-0.626C0.095,-0.626 0.11,-0.625 0.117,-0.624C0.146,-0.62 0.151,-0.606 0.153,-0.577C0.155,-0.55 0.155,-0.526 0.155,-0.394L0.155,-0.244Z" style="fill-rule:nonzero;"/>
        </g>
        <g transform="matrix(143.879,0,0,143.879,1557.13,471.659)">
            <path d="M0.182,-0.514C0.209,-0.484 0.308,-0.38 0.41,-0.273C0.503,-0.176 0.63,-0.051 0.639,-0.043C0.688,0.002 0.697,0.009 0.706,0.009C0.712,0.009 0.713,0.004 0.713,-0.052L0.715,-0.55C0.715,-0.601 0.717,-0.618 0.746,-0.624C0.756,-0.626 0.763,-0.626 0.767,-0.626C0.773,-0.626 0.777,-0.631 0.777,-0.634C0.777,-0.639 0.77,-0.64 0.761,-0.64C0.725,-0.64 0.696,-0.638 0.686,-0.638C0.676,-0.638 0.634,-0.64 0.594,-0.64C0.584,-0.64 0.577,-0.639 0.577,-0.634C0.577,-0.631 0.578,-0.626 0.584,-0.626C0.591,-0.626 0.611,-0.625 0.627,-0.622C0.654,-0.617 0.659,-0.598 0.66,-0.543L0.669,-0.117C0.642,-0.145 0.548,-0.246 0.461,-0.336C0.325,-0.476 0.197,-0.612 0.183,-0.626C0.174,-0.635 0.159,-0.652 0.149,-0.652C0.142,-0.652 0.137,-0.643 0.137,-0.609L0.137,-0.122C0.137,-0.045 0.134,-0.022 0.112,-0.016C0.099,-0.012 0.083,-0.011 0.076,-0.011C0.072,-0.011 0.069,-0.008 0.069,-0.004C0.069,0.002 0.074,0.003 0.083,0.003C0.123,0.003 0.16,0 0.168,0C0.176,0 0.211,0.003 0.261,0.003C0.271,0.003 0.277,0.001 0.277,-0.004C0.277,-0.008 0.274,-0.011 0.27,-0.011C0.262,-0.011 0.242,-0.012 0.226,-0.016C0.202,-0.022 0.194,-0.043 0.192,-0.113L0.182,-0.514Z" style="fill-rule:nonzero;"/>
        </g>
        <g transform="matrix(143.879,0,0,143.879,1674.97,471.659)">
            <path d="M0.452,0.014C0.509,0.014 0.575,0.009 0.611,-0.005C0.626,-0.011 0.628,-0.014 0.633,-0.03C0.642,-0.059 0.654,-0.133 0.654,-0.139C0.654,-0.145 0.65,-0.151 0.646,-0.151C0.64,-0.151 0.639,-0.148 0.637,-0.139C0.634,-0.123 0.622,-0.087 0.603,-0.068C0.568,-0.033 0.524,-0.028 0.458,-0.028C0.27,-0.028 0.141,-0.173 0.141,-0.336C0.141,-0.422 0.155,-0.498 0.22,-0.558C0.251,-0.587 0.305,-0.617 0.418,-0.617C0.496,-0.617 0.56,-0.596 0.591,-0.57C0.614,-0.552 0.628,-0.518 0.628,-0.485C0.628,-0.473 0.629,-0.467 0.635,-0.467C0.64,-0.467 0.644,-0.472 0.645,-0.485C0.646,-0.497 0.646,-0.544 0.647,-0.572C0.649,-0.603 0.651,-0.613 0.651,-0.62C0.651,-0.625 0.649,-0.629 0.64,-0.629C0.611,-0.63 0.583,-0.636 0.55,-0.642C0.507,-0.649 0.457,-0.652 0.422,-0.652C0.287,-0.652 0.207,-0.612 0.154,-0.561C0.076,-0.485 0.055,-0.386 0.055,-0.329C0.055,-0.248 0.076,-0.151 0.162,-0.077C0.231,-0.017 0.32,0.014 0.452,0.014Z" style="fill-rule:nonzero;"/>
        </g>
        <g transform="matrix(143.879,0,0,143.879,1776.83,471.659)">
            <path d="M0.155,-0.244C0.155,-0.162 0.155,-0.095 0.15,-0.06C0.146,-0.035 0.144,-0.018 0.127,-0.015C0.119,-0.014 0.108,-0.011 0.1,-0.011C0.095,-0.011 0.093,-0.007 0.093,-0.004C0.093,0.001 0.098,0.003 0.107,0.003C0.121,0.003 0.141,0.002 0.158,0.001C0.177,0 0.194,0 0.196,0C0.209,0 0.232,0 0.269,0.002C0.305,0.003 0.356,0.005 0.422,0.005C0.456,0.005 0.465,0.005 0.471,-0.017C0.476,-0.035 0.483,-0.093 0.483,-0.099C0.483,-0.105 0.482,-0.112 0.477,-0.112C0.472,-0.112 0.47,-0.109 0.468,-0.099C0.463,-0.065 0.451,-0.05 0.428,-0.04C0.405,-0.031 0.363,-0.031 0.34,-0.031C0.253,-0.031 0.237,-0.042 0.235,-0.099C0.234,-0.116 0.235,-0.215 0.235,-0.244L0.235,-0.315C0.235,-0.318 0.236,-0.321 0.241,-0.321C0.256,-0.321 0.35,-0.32 0.374,-0.317C0.408,-0.313 0.416,-0.303 0.419,-0.291C0.423,-0.28 0.423,-0.271 0.423,-0.263C0.423,-0.258 0.425,-0.255 0.429,-0.255C0.435,-0.255 0.437,-0.264 0.437,-0.271C0.437,-0.277 0.439,-0.309 0.441,-0.326C0.443,-0.354 0.448,-0.368 0.448,-0.373C0.448,-0.378 0.446,-0.38 0.443,-0.38C0.44,-0.38 0.436,-0.375 0.43,-0.369C0.421,-0.36 0.408,-0.359 0.387,-0.357C0.367,-0.355 0.251,-0.355 0.24,-0.355C0.235,-0.355 0.235,-0.358 0.235,-0.364L0.235,-0.595C0.235,-0.601 0.236,-0.604 0.24,-0.604C0.25,-0.604 0.352,-0.603 0.367,-0.601C0.415,-0.595 0.424,-0.589 0.43,-0.575C0.434,-0.565 0.435,-0.551 0.435,-0.545C0.435,-0.538 0.437,-0.534 0.442,-0.534C0.446,-0.534 0.449,-0.539 0.45,-0.543C0.452,-0.553 0.454,-0.591 0.455,-0.599C0.457,-0.623 0.462,-0.633 0.462,-0.639C0.462,-0.643 0.461,-0.647 0.458,-0.647C0.454,-0.647 0.45,-0.644 0.446,-0.643C0.439,-0.642 0.423,-0.639 0.406,-0.638C0.386,-0.637 0.202,-0.638 0.196,-0.638C0.191,-0.638 0.134,-0.64 0.094,-0.64C0.084,-0.64 0.08,-0.638 0.08,-0.633C0.08,-0.63 0.084,-0.626 0.087,-0.626C0.095,-0.626 0.11,-0.625 0.117,-0.624C0.146,-0.62 0.151,-0.606 0.153,-0.577C0.155,-0.55 0.155,-0.526 0.155,-0.394L0.155,-0.244Z" style="fill-rule:nonzero;"/>
        </g>
        <g transform="matrix(143.879,0,0,143.879,1902.87,471.659)">
            <path d="M0.262,-0.463C0.262,-0.619 0.262,-0.647 0.264,-0.679C0.266,-0.714 0.274,-0.731 0.301,-0.736C0.313,-0.738 0.319,-0.739 0.326,-0.739C0.33,-0.739 0.334,-0.741 0.334,-0.745C0.334,-0.751 0.329,-0.753 0.318,-0.753C0.288,-0.753 0.225,-0.75 0.22,-0.75C0.215,-0.75 0.152,-0.753 0.119,-0.753C0.108,-0.753 0.103,-0.751 0.103,-0.745C0.103,-0.741 0.107,-0.739 0.111,-0.739C0.118,-0.739 0.131,-0.738 0.142,-0.735C0.164,-0.73 0.174,-0.713 0.176,-0.679C0.178,-0.647 0.178,-0.619 0.178,-0.463L0.178,-0.287C0.178,-0.191 0.178,-0.112 0.173,-0.07C0.169,-0.041 0.164,-0.019 0.144,-0.015C0.135,-0.013 0.123,-0.011 0.114,-0.011C0.108,-0.011 0.106,-0.008 0.106,-0.005C0.106,0.001 0.111,0.003 0.122,0.003C0.152,0.003 0.215,0 0.22,0C0.225,0 0.288,0.003 0.343,0.003C0.354,0.003 0.359,0 0.359,-0.005C0.359,-0.008 0.357,-0.011 0.351,-0.011C0.342,-0.011 0.32,-0.013 0.306,-0.015C0.276,-0.019 0.27,-0.041 0.267,-0.07C0.262,-0.112 0.262,-0.191 0.262,-0.287L0.262,-0.463Z" style="fill-rule:nonzero;"/>
        </g>
        <g transform="matrix(143.879,0,0,143.879,1966.18,471.659)">
            <path d="M0.209,0.014C0.257,0.014 0.312,0.008 0.349,-0.016C0.412,-0.057 0.431,-0.111 0.431,-0.161C0.431,-0.234 0.394,-0.293 0.287,-0.366L0.262,-0.383C0.175,-0.442 0.148,-0.473 0.148,-0.527C0.148,-0.587 0.201,-0.619 0.265,-0.619C0.344,-0.619 0.373,-0.587 0.379,-0.577C0.384,-0.568 0.391,-0.545 0.392,-0.535C0.393,-0.528 0.394,-0.524 0.4,-0.524C0.406,-0.524 0.407,-0.53 0.407,-0.543C0.407,-0.601 0.411,-0.629 0.411,-0.633C0.411,-0.638 0.409,-0.639 0.402,-0.639C0.395,-0.639 0.388,-0.639 0.371,-0.643C0.35,-0.648 0.315,-0.653 0.28,-0.653C0.164,-0.653 0.085,-0.593 0.085,-0.493C0.085,-0.434 0.116,-0.382 0.211,-0.311L0.251,-0.281C0.329,-0.223 0.362,-0.194 0.362,-0.133C0.362,-0.069 0.317,-0.02 0.23,-0.02C0.171,-0.02 0.105,-0.042 0.091,-0.104C0.088,-0.116 0.088,-0.128 0.088,-0.135C0.088,-0.142 0.085,-0.145 0.08,-0.145C0.075,-0.145 0.073,-0.14 0.073,-0.131C0.072,-0.117 0.068,-0.083 0.068,-0.041C0.068,-0.018 0.069,-0.015 0.081,-0.009C0.117,0.008 0.168,0.014 0.209,0.014Z" style="fill-rule:nonzero;"/>
        </g>
        <g transform="matrix(143.879,0,0,143.879,2041.57,471.659)">
            <path d="M0.082,-0.091C0.065,-0.048 0.048,-0.018 0.008,-0.013C0.001,-0.012 -0.012,-0.011 -0.018,-0.011C-0.022,-0.011 -0.026,-0.008 -0.026,-0.004C-0.026,0.001 -0.02,0.003 -0.009,0.003C0.027,0.003 0.071,0 0.08,0C0.09,0 0.138,0.003 0.159,0.003C0.167,0.003 0.172,0.001 0.172,-0.004C0.172,-0.008 0.17,-0.011 0.163,-0.011L0.155,-0.011C0.14,-0.011 0.125,-0.017 0.125,-0.034C0.125,-0.049 0.13,-0.07 0.138,-0.091L0.188,-0.227C0.19,-0.232 0.193,-0.234 0.197,-0.234L0.4,-0.234C0.405,-0.234 0.406,-0.233 0.408,-0.229L0.487,-0.034C0.493,-0.02 0.484,-0.013 0.479,-0.011C0.475,-0.009 0.473,-0.009 0.473,-0.005C0.473,0 0.487,0 0.504,0.001C0.565,0.003 0.63,0.003 0.643,0.003C0.653,0.003 0.663,0.001 0.663,-0.004C0.663,-0.009 0.657,-0.011 0.652,-0.011C0.643,-0.011 0.63,-0.012 0.617,-0.016C0.598,-0.022 0.574,-0.033 0.542,-0.109C0.488,-0.238 0.347,-0.589 0.331,-0.625C0.322,-0.644 0.319,-0.656 0.31,-0.656C0.304,-0.656 0.3,-0.651 0.289,-0.623L0.082,-0.091ZM0.209,-0.269C0.206,-0.269 0.205,-0.271 0.206,-0.275L0.288,-0.508C0.293,-0.521 0.298,-0.521 0.303,-0.508L0.39,-0.275C0.391,-0.271 0.391,-0.269 0.387,-0.269L0.209,-0.269Z" style="fill-rule:nonzero;"/>
        </g>
        <g transform="matrix(143.879,0,0,143.879,2131.35,471.659)">
            <path d="M0.082,-0.091C0.065,-0.048 0.048,-0.018 0.008,-0.013C0.001,-0.012 -0.012,-0.011 -0.018,-0.011C-0.022,-0.011 -0.026,-0.008 -0.026,-0.004C-0.026,0.001 -0.02,0.003 -0.009,0.003C0.027,0.003 0.071,0 0.08,0C0.09,0 0.138,0.003 0.159,0.003C0.167,0.003 0.172,0.001 0.172,-0.004C0.172,-0.008 0.17,-0.011 0.163,-0.011L0.155,-0.011C0.14,-0.011 0.125,-0.017 0.125,-0.034C0.125,-0.049 0.13,-0.07 0.138,-0.091L0.188,-0.227C0.19,-0.232 0.193,-0.234 0.197,-0.234L0.4,-0.234C0.405,-0.234 0.406,-0.233 0.408,-0.229L0.487,-0.034C0.493,-0.02 0.484,-0.013 0.479,-0.011C0.475,-0.009 0.473,-0.009 0.473,-0.005C0.473,0 0.487,0 0.504,0.001C0.565,0.003 0.63,0.003 0.643,0.003C0.653,0.003 0.663,0.001 0.663,-0.004C0.663,-0.009 0.657,-0.011 0.652,-0.011C0.643,-0.011 0.63,-0.012 0.617,-0.016C0.598,-0.022 0.574,-0.033 0.542,-0.109C0.488,-0.238 0.347,-0.589 0.331,-0.625C0.322,-0.644 0.319,-0.656 0.31,-0.656C0.304,-0.656 0.3,-0.651 0.289,-0.623L0.082,-0.091ZM0.209,-0.269C0.206,-0.269 0.205,-0.271 0.206,-0.275L0.288,-0.508C0.293,-0.521 0.298,-0.521 0.303,-0.508L0.39,-0.275C0.391,-0.271 0.391,-0.269 0.387,-0.269L0.209,-0.269Z" style="fill-rule:nonzero;"/>
        </g>
        <g transform="matrix(143.879,0,0,143.879,2221.13,471.659)">
            <path d="M0.452,0.014C0.509,0.014 0.575,0.009 0.611,-0.005C0.626,-0.011 0.628,-0.014 0.633,-0.03C0.642,-0.059 0.654,-0.133 0.654,-0.139C0.654,-0.145 0.65,-0.151 0.646,-0.151C0.64,-0.151 0.639,-0.148 0.637,-0.139C0.634,-0.123 0.622,-0.087 0.603,-0.068C0.568,-0.033 0.524,-0.028 0.458,-0.028C0.27,-0.028 0.141,-0.173 0.141,-0.336C0.141,-0.422 0.155,-0.498 0.22,-0.558C0.251,-0.587 0.305,-0.617 0.418,-0.617C0.496,-0.617 0.56,-0.596 0.591,-0.57C0.614,-0.552 0.628,-0.518 0.628,-0.485C0.628,-0.473 0.629,-0.467 0.635,-0.467C0.64,-0.467 0.644,-0.472 0.645,-0.485C0.646,-0.497 0.646,-0.544 0.647,-0.572C0.649,-0.603 0.651,-0.613 0.651,-0.62C0.651,-0.625 0.649,-0.629 0.64,-0.629C0.611,-0.63 0.583,-0.636 0.55,-0.642C0.507,-0.649 0.457,-0.652 0.422,-0.652C0.287,-0.652 0.207,-0.612 0.154,-0.561C0.076,-0.485 0.055,-0.386 0.055,-0.329C0.055,-0.248 0.076,-0.151 0.162,-0.077C0.231,-0.017 0.32,0.014 0.452,0.014Z" style="fill-rule:nonzero;"/>
        </g>
    </g>
</svg>
