<?xml version="1.0" encoding="UTF-8" standalone="no"?>
<!DOCTYPE svg PUBLIC "-//W3C//DTD SVG 1.1//EN" "http://www.w3.org/Graphics/SVG/1.1/DTD/svg11.dtd">
<svg width="100%" height="100%" viewBox="0 0 3000 3000" version="1.1" xmlns="http://www.w3.org/2000/svg" xmlns:xlink="http://www.w3.org/1999/xlink" xml:space="preserve" xmlns:serif="http://www.serif.com/" style="fill-rule:evenodd;clip-rule:evenodd;stroke-miterlimit:10;">
    <g id="Layer-1" serif:id="Layer 1">
        <g>
            <text x="104.539px" y="2600.64px" style="font-family:'Lato-Medium', 'Lato', sans-serif;font-weight:500;font-size:572.714px;fill:rgb(43,43,43);">S</text>
            <text x="413.804px" y="2600.64px" style="font-family:'Lato-Medium', 'Lato', sans-serif;font-weight:500;font-size:572.714px;fill:rgb(43,43,43);">i<tspan x="552.96px " y="2600.64px ">n</tspan></text>
            <text x="873.093px" y="2600.64px" style="font-family:'Lato-Medium', 'Lato', sans-serif;font-weight:500;font-size:572.714px;fill:rgb(43,43,43);">c</text>
            <text x="1141.98px" y="2600.64px" style="font-family:'Lato-Medium', 'Lato', sans-serif;font-weight:500;font-size:572.714px;fill:rgb(43,43,43);">e</text>
            <text x="1589.3px" y="2600.64px" style="font-family:'Lato-Medium', 'Lato', sans-serif;font-weight:500;font-size:572.714px;fill:rgb(43,43,43);">1999</text>
        </g>
        <g transform="matrix(1,0,0,1,2812.39,932.35)">
            <path d="M0,397.332C-39.691,454.632 -95.019,502.833 -159.999,536.726C-200.854,558.035 -245.051,573.522 -291.189,582.92C-301.385,468.862 -353.07,343.173 -449.129,198.869C-353.09,54.556 -301.414,-71.151 -291.222,-185.239C-245.1,-175.843 -200.917,-160.363 -160.074,-139.065C-95.079,-105.174 -39.738,-56.969 -0.033,0.339C38.989,56.662 70.477,126.168 70.059,195.854C69.635,266.314 39.609,340.151 0,397.332M-351.336,833.913C-368.362,864.858 -390.888,891.388 -418.287,912.767C-445.747,934.193 -478.941,951.106 -516.946,963.038C-572.672,977.119 -631.442,978.255 -691.63,966.415C-752.274,954.484 -816.122,929.046 -881.398,890.808C-928.412,863.268 -977.097,828.542 -1026.75,787.172C-939.867,716.74 -860.465,648.088 -789.161,581.717C-767.226,561.299 -745.98,541.022 -725.426,520.897C-676.98,549.101 -626.721,571.231 -575.912,586.687C-525.292,602.085 -473.813,610.987 -422.905,613.144C-414.77,613.488 -406.652,613.66 -398.558,613.66C-368.52,613.66 -338.809,611.291 -309.733,606.629C-305.318,699.263 -319.281,775.652 -351.336,833.913M-1312.91,981.271C-1403.59,915.257 -1488.68,850.311 -1567.72,786.795C-1553.91,774.896 -1540.05,762.511 -1526.14,749.637C-1457.49,686.109 -1385.8,609.085 -1312.93,520.579C-1240.05,609.086 -1168.35,686.11 -1099.7,749.637C-1085.79,762.508 -1071.93,774.891 -1058.12,786.788C-1137.02,850.215 -1221.98,915.073 -1312.91,981.271M-1744.43,890.808C-1809.7,929.046 -1873.55,954.484 -1934.19,966.415C-1994.38,978.256 -2053.15,977.121 -2108.87,963.038C-2146.88,951.106 -2180.08,934.193 -2207.54,912.767C-2234.94,891.387 -2257.47,864.857 -2274.5,833.912C-2306.57,775.646 -2320.53,699.257 -2316.12,606.628C-2287.04,611.29 -2257.33,613.66 -2227.28,613.66C-2219.19,613.66 -2211.06,613.488 -2202.92,613.143C-2152.02,610.985 -2100.54,602.083 -2049.93,586.685C-1999.12,571.231 -1948.88,549.103 -1900.44,520.905C-1879.89,541.028 -1858.64,561.302 -1836.71,581.718C-1765.4,648.089 -1685.98,716.743 -1599.09,787.178C-1648.74,828.546 -1697.42,863.27 -1744.43,890.808M-2625.86,397.339C-2665.04,340.787 -2696.77,270.045 -2695.79,200.008C-2694.81,130.047 -2665.26,57.19 -2625.88,0.346C-2586.18,-56.96 -2530.85,-105.165 -2465.86,-139.058C-2425.02,-160.355 -2380.85,-175.836 -2334.73,-185.234C-2324.51,-71.168 -2272.81,54.536 -2176.76,198.868C-2272.79,343.137 -2324.47,468.828 -2334.66,582.924C-2380.79,573.525 -2424.98,558.038 -2465.83,536.735C-2530.82,502.844 -2586.16,454.642 -2625.86,397.339M-2274.56,-436.191C-2257.53,-467.131 -2235,-493.658 -2207.6,-515.034C-2180.14,-536.457 -2146.95,-553.368 -2108.94,-565.3C-2053.22,-579.381 -1994.45,-580.519 -1934.26,-568.682C-1873.61,-556.754 -1809.77,-531.32 -1744.49,-493.087C-1697.48,-465.554 -1648.81,-430.838 -1599.17,-389.48C-1686.04,-319.055 -1765.44,-250.405 -1836.75,-184.027C-1858.69,-163.61 -1879.93,-143.334 -1900.49,-123.209C-1948.92,-151.408 -1999.16,-173.537 -2049.96,-188.994C-2100.57,-204.396 -2152.05,-213.3 -2202.96,-215.46C-2241.3,-217.087 -2279.26,-214.856 -2316.19,-208.933C-2320.59,-301.562 -2306.61,-377.942 -2274.56,-436.191M-1313,-583.556C-1222.06,-517.363 -1137.08,-452.507 -1058.18,-389.08C-1071.98,-377.182 -1085.84,-364.799 -1099.75,-351.928C-1168.4,-288.402 -1240.09,-211.38 -1312.96,-122.875C-1385.84,-211.38 -1457.54,-288.403 -1526.19,-351.928C-1540.11,-364.806 -1553.98,-377.195 -1567.79,-389.097C-1488.89,-452.52 -1403.93,-517.37 -1313,-583.556M-460.548,179.88C-525.34,88.723 -609.21,-7.992 -710.69,-108.633C-665.047,-134.765 -617.828,-155.349 -570.146,-169.858C-521.147,-184.769 -471.347,-193.388 -422.128,-195.478C-384.461,-197.075 -347.197,-194.829 -310.985,-188.884C-311.001,-188.674 -311.013,-188.468 -311.028,-188.259C-320.47,-79.321 -369.413,41.225 -460.548,179.88M-460.542,217.862C-369.386,356.517 -320.434,477.05 -310.994,585.963C-310.979,586.165 -310.968,586.363 -310.953,586.564C-347.152,592.506 -384.403,594.753 -422.059,593.162C-471.28,591.076 -521.086,582.46 -570.092,567.553C-617.778,553.046 -665.003,532.466 -710.652,506.336C-609.187,405.707 -525.328,309.005 -460.542,217.862M-1222.56,402.088C-1172.91,336.81 -1125.87,274.978 -1075.48,214.682C-980.651,319.791 -871.55,416.41 -742.537,509.527C-829.638,594.533 -929.648,682.783 -1042.3,774.018C-1056.84,761.551 -1071.44,748.532 -1086.12,734.957C-1155.12,671.11 -1227.29,593.411 -1300.7,503.956C-1273.91,469.582 -1247.83,435.298 -1222.56,402.088M-1550.41,214.684C-1499.96,275.038 -1452.87,336.932 -1403.16,402.275C-1377.94,435.425 -1351.89,469.647 -1325.16,503.957C-1398.56,593.41 -1470.73,671.109 -1539.72,734.957C-1554.39,748.536 -1569.01,761.558 -1583.55,774.029C-1671.23,703.048 -1751.29,633.892 -1823.08,567.078C-1843.82,547.779 -1863.91,528.614 -1883.4,509.585C-1754.27,416.369 -1645.15,319.733 -1550.41,214.684M-2165.35,217.862C-2100.56,309.006 -2016.69,405.71 -1915.21,506.344C-1960.85,532.469 -2008.07,553.046 -2055.75,567.551C-2104.75,582.458 -2154.55,591.075 -2203.77,593.161C-2241.44,594.76 -2278.7,592.514 -2314.9,586.57C-2314.89,586.367 -2314.88,586.166 -2314.86,585.963C-2305.42,477.014 -2256.48,356.48 -2165.35,217.862M-2165.36,179.854C-2256.5,41.188 -2305.46,-79.346 -2314.93,-188.257C-2314.94,-188.466 -2314.96,-188.671 -2314.97,-188.88C-2278.75,-194.828 -2241.48,-197.076 -2203.8,-195.478C-2154.58,-193.39 -2104.78,-184.771 -2055.78,-169.86C-2008.11,-155.353 -1960.89,-134.773 -1915.26,-108.647C-2016.72,-8.013 -2100.58,88.697 -2165.36,179.854M-1403.34,-4.332C-1452.98,60.939 -1500.02,122.765 -1550.41,183.055C-1645.25,77.931 -1754.37,-18.697 -1883.4,-111.822C-1796.29,-196.839 -1696.27,-285.093 -1583.61,-376.327C-1569.07,-363.855 -1554.45,-350.83 -1539.77,-337.248C-1470.77,-273.399 -1398.59,-195.695 -1325.18,-106.236C-1351.98,-71.85 -1378.07,-37.554 -1403.34,-4.332M-1075.48,183.054C-1125.92,122.702 -1173.02,60.809 -1222.73,-4.532C-1247.95,-37.69 -1274,-71.919 -1300.75,-106.236C-1227.34,-195.695 -1155.17,-273.398 -1086.17,-337.248C-1071.5,-350.823 -1056.89,-363.843 -1042.35,-376.31C-929.687,-285.074 -829.662,-196.82 -742.55,-111.803C-871.65,-18.603 -980.748,78.02 -1075.48,183.054M-2154.28,198.851C-2088.62,105.246 -2002.99,6.271 -1897.88,-97.604C-1767.81,-3.985 -1658.15,93.117 -1563.09,198.87C-1658.06,304.543 -1767.71,401.653 -1897.88,495.364C-2002.78,391.636 -2088.78,292.199 -2154.28,198.851M-1312.93,487.111C-1338.36,454.415 -1363.17,421.801 -1387.24,390.165C-1437.91,323.555 -1485.88,260.519 -1537.57,198.869C-1485.94,137.282 -1438.03,74.314 -1387.42,7.776C-1363.31,-23.926 -1338.44,-56.607 -1312.96,-89.373C-1287.53,-56.675 -1262.71,-24.06 -1238.65,7.577C-1187.97,74.186 -1140,137.22 -1088.32,198.869C-1139.96,260.461 -1187.87,323.436 -1238.48,389.98C-1262.59,421.677 -1287.45,454.352 -1312.93,487.111M-728.052,495.31C-858.109,401.698 -967.747,304.605 -1062.8,198.868C-967.847,93.207 -858.213,-3.889 -728.064,-97.586C-622.938,6.294 -537.298,105.272 -471.629,198.875C-537.291,292.461 -622.928,391.429 -728.052,495.31M-881.463,-493.087C-816.188,-531.32 -752.343,-556.754 -691.698,-568.682C-631.51,-580.52 -572.741,-579.382 -517.013,-565.3C-479.005,-553.367 -445.812,-536.456 -418.349,-515.034C-390.945,-493.657 -368.416,-467.13 -351.387,-436.19C-319.323,-377.937 -305.355,-301.558 -309.767,-208.937C-346.688,-214.857 -384.635,-217.086 -422.977,-215.46C-473.881,-213.299 -525.355,-204.394 -575.969,-188.992C-626.772,-173.533 -677.025,-151.399 -725.464,-123.193C-746.023,-143.323 -767.275,-163.605 -789.217,-184.027C-860.525,-250.399 -939.926,-319.043 -1026.8,-389.464C-977.154,-430.83 -928.474,-465.551 -881.463,-493.087M88.191,198.664C88.2,179.587 86.147,160.156 81.743,139.814C70.069,85.9 47.83,34.302 16.407,-11.051C-25.139,-71.015 -82.967,-121.414 -150.827,-156.799C-194.125,-179.377 -240.996,-195.684 -289.914,-205.392C-284.939,-302.931 -299.696,-383.753 -333.865,-445.834C-370.521,-512.434 -430.219,-559.077 -511.301,-584.469L-511.832,-584.619C-570.53,-599.498 -632.346,-600.739 -695.558,-588.306C-758.408,-575.944 -824.357,-549.714 -891.571,-510.344C-940.487,-481.693 -991.103,-445.469 -1042.65,-402.271C-1124.51,-468.136 -1218.69,-539.752 -1312.98,-608.253C-1407.27,-539.759 -1501.47,-468.149 -1583.31,-402.288C-1634.86,-445.478 -1685.47,-481.696 -1734.38,-510.344C-1801.6,-549.714 -1867.55,-575.944 -1930.4,-588.306C-1993.61,-600.737 -2055.43,-599.498 -2114.12,-584.619L-2114.66,-584.469C-2195.73,-559.079 -2255.43,-512.435 -2292.08,-445.834C-2326.24,-383.758 -2341,-302.934 -2336.04,-205.386C-2384.95,-195.676 -2431.82,-179.368 -2475.11,-156.791C-2542.96,-121.404 -2600.78,-71.006 -2642.32,-11.043C-2665.05,21.771 -2682.97,57.878 -2695.55,95.757C-2713.62,150.136 -2720.01,198.827 -2708.17,255.22C-2696.65,310.078 -2674.23,362.64 -2642.3,408.729C-2600.76,468.687 -2542.93,519.083 -2475.08,554.469C-2431.78,577.051 -2384.9,593.347 -2335.97,603.058C-2340.95,700.617 -2326.2,781.457 -2292.02,843.554C-2255.37,910.166 -2195.67,956.816 -2114.59,982.207L-2114.06,982.357C-2082.06,990.466 -2049.15,994.524 -2015.58,994.524C-1987.56,994.523 -1959.09,991.696 -1930.33,986.039C-1867.48,973.673 -1801.53,947.44 -1734.32,908.065C-1685.4,879.411 -1634.79,843.185 -1583.24,799.985C-1501.4,865.841 -1406.68,937.082 -1312.39,1005.59C-1218.11,937.082 -1124.44,865.838 -1042.6,799.98C-991.045,843.182 -940.426,879.41 -891.508,908.065C-824.291,947.44 -758.341,973.674 -695.491,986.039C-666.728,991.697 -638.263,994.524 -610.24,994.524C-576.678,994.523 -543.754,990.465 -511.765,982.357L-511.233,982.207C-430.156,956.817 -370.464,910.167 -333.813,843.553C-299.65,781.461 -284.9,700.622 -289.883,603.06C-240.948,593.348 -194.059,577.047 -150.75,554.459C-82.904,519.072 -25.091,468.677 16.44,408.72C39.001,376.151 56.802,340.326 69.359,302.756C81.314,266.986 88.175,233.413 88.191,198.664" style="fill:rgb(43,43,43);fill-rule:nonzero;"/>
        </g>
    </g>
    <g id="Layer-2" serif:id="Layer 2">
        <g transform="matrix(1,0,0,1,806.91,550.89)">
            <path d="M0,0C0,7.61 -6.169,13.779 -13.779,13.779C-21.389,13.779 -27.558,7.61 -27.558,0C-27.558,-7.61 -21.389,-13.779 -13.779,-13.779C-6.169,-13.779 0,-7.61 0,0" style="fill:rgb(43,43,43);fill-rule:nonzero;"/>
        </g>
        <g transform="matrix(0,-1,-1,-0,793.131,537.111)">
            <circle cx="-13.779" cy="0" r="13.779" style="fill:none;stroke:rgb(43,43,43);stroke-width:10px;"/>
        </g>
        <g transform="matrix(1,0,0,1,680.482,888.575)">
            <path d="M0,0C0,7.61 -6.169,13.779 -13.779,13.779C-21.389,13.779 -27.558,7.61 -27.558,0C-27.558,-7.61 -21.389,-13.779 -13.779,-13.779C-6.169,-13.779 0,-7.61 0,0" style="fill:rgb(43,43,43);fill-rule:nonzero;"/>
        </g>
        <g transform="matrix(0,-1,-1,-0,666.703,874.796)">
            <circle cx="-13.779" cy="0" r="13.779" style="fill:none;stroke:rgb(43,43,43);stroke-width:10px;"/>
        </g>
        <g transform="matrix(1,0,0,1,680.482,1376.96)">
            <path d="M0,0C0,7.61 -6.169,13.779 -13.779,13.779C-21.389,13.779 -27.558,7.61 -27.558,0C-27.558,-7.61 -21.389,-13.779 -13.779,-13.779C-6.169,-13.779 0,-7.61 0,0" style="fill:rgb(43,43,43);fill-rule:nonzero;"/>
        </g>
        <g transform="matrix(0,-1,-1,-0,666.703,1363.18)">
            <circle cx="-13.779" cy="0" r="13.779" style="fill:none;stroke:rgb(43,43,43);stroke-width:10px;"/>
        </g>
        <g transform="matrix(1,0,0,1,2346.41,1376.96)">
            <path d="M0,0C0,7.61 -6.169,13.779 -13.779,13.779C-21.389,13.779 -27.558,7.61 -27.558,0C-27.558,-7.61 -21.389,-13.779 -13.779,-13.779C-6.169,-13.779 0,-7.61 0,0" style="fill:rgb(43,43,43);fill-rule:nonzero;"/>
        </g>
        <g transform="matrix(0,-1,-1,-0,2332.63,1363.18)">
            <circle cx="-13.779" cy="0" r="13.779" style="fill:none;stroke:rgb(43,43,43);stroke-width:10px;"/>
        </g>
        <g transform="matrix(1,0,0,1,2622.85,1133.24)">
            <path d="M0,0C0,7.61 -6.169,13.779 -13.778,13.779C-21.389,13.779 -27.558,7.61 -27.558,0C-27.558,-7.61 -21.389,-13.779 -13.778,-13.779C-6.169,-13.779 0,-7.61 0,0" style="fill:rgb(43,43,43);fill-rule:nonzero;"/>
        </g>
        <g transform="matrix(0,-1,-1,-0,2609.07,1119.46)">
            <circle cx="-13.779" cy="0" r="13.779" style="fill:none;stroke:rgb(43,43,43);stroke-width:10px;"/>
        </g>
        <g transform="matrix(1,0,0,1,2078.97,1133.24)">
            <path d="M0,0C0,7.61 -6.169,13.779 -13.778,13.779C-21.389,13.779 -27.558,7.61 -27.558,0C-27.558,-7.61 -21.389,-13.779 -13.778,-13.779C-6.169,-13.779 0,-7.61 0,0" style="fill:rgb(43,43,43);fill-rule:nonzero;"/>
        </g>
        <g transform="matrix(0,-1,-1,-0,2065.19,1119.46)">
            <circle cx="-13.779" cy="0" r="13.779" style="fill:none;stroke:rgb(43,43,43);stroke-width:10px;"/>
        </g>
        <g transform="matrix(1,0,0,1,1512.43,1133.24)">
            <path d="M0,0C0,7.61 -6.169,13.779 -13.779,13.779C-21.389,13.779 -27.558,7.61 -27.558,0C-27.558,-7.61 -21.389,-13.779 -13.779,-13.779C-6.169,-13.779 0,-7.61 0,0" style="fill:rgb(43,43,43);fill-rule:nonzero;"/>
        </g>
        <g transform="matrix(0,-1,-1,-0,1498.65,1119.46)">
            <circle cx="-13.779" cy="0" r="13.779" style="fill:none;stroke:rgb(43,43,43);stroke-width:10px;"/>
        </g>
        <g transform="matrix(1,0,0,1,947.884,1133.24)">
            <path d="M0,0C0,7.61 -6.169,13.779 -13.779,13.779C-21.389,13.779 -27.558,7.61 -27.558,0C-27.558,-7.61 -21.389,-13.779 -13.779,-13.779C-6.169,-13.779 0,-7.61 0,0" style="fill:rgb(43,43,43);fill-rule:nonzero;"/>
        </g>
        <g transform="matrix(0,-1,-1,-0,934.105,1119.46)">
            <circle cx="-13.779" cy="0" r="13.779" style="fill:none;stroke:rgb(43,43,43);stroke-width:10px;"/>
        </g>
        <g transform="matrix(1,0,0,1,1248.65,835.013)">
            <path d="M0,0C0,7.61 -6.169,13.779 -13.779,13.779C-21.389,13.779 -27.558,7.61 -27.558,0C-27.558,-7.61 -21.389,-13.779 -13.779,-13.779C-6.169,-13.779 0,-7.61 0,0" style="fill:rgb(43,43,43);fill-rule:nonzero;"/>
        </g>
        <g transform="matrix(0,-1,-1,-0,1234.87,821.234)">
            <circle cx="-13.779" cy="0" r="13.779" style="fill:none;stroke:rgb(43,43,43);stroke-width:10px;"/>
        </g>
        <g transform="matrix(1,0,0,1,1248.65,1430.28)">
            <path d="M0,0C0,7.61 -6.169,13.779 -13.779,13.779C-21.389,13.779 -27.558,7.61 -27.558,0C-27.558,-7.61 -21.389,-13.779 -13.779,-13.779C-6.169,-13.779 0,-7.61 0,0" style="fill:rgb(43,43,43);fill-rule:nonzero;"/>
        </g>
        <g transform="matrix(0,-1,-1,-0,1234.87,1416.5)">
            <circle cx="-13.779" cy="0" r="13.779" style="fill:none;stroke:rgb(43,43,43);stroke-width:10px;"/>
        </g>
        <g transform="matrix(1,0,0,1,1777.18,835.013)">
            <path d="M0,0C0,7.61 -6.169,13.779 -13.778,13.779C-21.389,13.779 -27.558,7.61 -27.558,0C-27.558,-7.61 -21.389,-13.779 -13.778,-13.779C-6.169,-13.779 0,-7.61 0,0" style="fill:rgb(43,43,43);fill-rule:nonzero;"/>
        </g>
        <g transform="matrix(0,-1,-1,-0,1763.4,821.234)">
            <circle cx="-13.779" cy="0" r="13.779" style="fill:none;stroke:rgb(43,43,43);stroke-width:10px;"/>
        </g>
        <g transform="matrix(1,0,0,1,1777.18,1430.28)">
            <path d="M0,0C0,7.61 -6.169,13.779 -13.778,13.779C-21.389,13.779 -27.558,7.61 -27.558,0C-27.558,-7.61 -21.389,-13.779 -13.778,-13.779C-6.169,-13.779 0,-7.61 0,0" style="fill:rgb(43,43,43);fill-rule:nonzero;"/>
        </g>
        <g transform="matrix(0,-1,-1,-0,1763.4,1416.5)">
            <circle cx="-13.779" cy="0" r="13.779" style="fill:none;stroke:rgb(43,43,43);stroke-width:10px;"/>
        </g>
        <g transform="matrix(1,0,0,1,404.005,1133.24)">
            <path d="M0,0C0,7.61 -6.169,13.779 -13.779,13.779C-21.389,13.779 -27.558,7.61 -27.558,0C-27.558,-7.61 -21.389,-13.779 -13.779,-13.779C-6.169,-13.779 0,-7.61 0,0" style="fill:rgb(43,43,43);fill-rule:nonzero;"/>
        </g>
        <g transform="matrix(0,-1,-1,-0,390.226,1119.46)">
            <circle cx="-13.779" cy="0" r="13.779" style="fill:none;stroke:rgb(43,43,43);stroke-width:10px;"/>
        </g>
        <g transform="matrix(1,0,0,1,2346.41,888.389)">
            <path d="M0,0C0,7.61 -6.169,13.779 -13.779,13.779C-21.389,13.779 -27.558,7.61 -27.558,0C-27.558,-7.61 -21.389,-13.779 -13.779,-13.779C-6.169,-13.779 0,-7.61 0,0" style="fill:rgb(43,43,43);fill-rule:nonzero;"/>
        </g>
        <g transform="matrix(0,-1,-1,-0,2332.63,874.61)">
            <circle cx="-13.779" cy="0" r="13.779" style="fill:none;stroke:rgb(43,43,43);stroke-width:10px;"/>
        </g>
        <g transform="matrix(1,0,0,1,1512.39,550.89)">
            <path d="M0,0C0,7.61 -6.169,13.779 -13.779,13.779C-21.389,13.779 -27.558,7.61 -27.558,0C-27.558,-7.61 -21.389,-13.779 -13.779,-13.779C-6.169,-13.779 0,-7.61 0,0" style="fill:rgb(43,43,43);fill-rule:nonzero;"/>
        </g>
        <g transform="matrix(0,-1,-1,-0,1498.61,537.111)">
            <circle cx="-13.779" cy="0" r="13.779" style="fill:none;stroke:rgb(43,43,43);stroke-width:10px;"/>
        </g>
        <g transform="matrix(1,0,0,1,2217.88,550.89)">
            <path d="M0,0C0,7.61 -6.17,13.779 -13.779,13.779C-21.39,13.779 -27.559,7.61 -27.559,0C-27.559,-7.61 -21.39,-13.779 -13.779,-13.779C-6.17,-13.779 0,-7.61 0,0" style="fill:rgb(43,43,43);fill-rule:nonzero;"/>
        </g>
        <g transform="matrix(0,-1,-1,-0,2204.1,537.111)">
            <ellipse cx="-13.78" cy="0" rx="13.779" ry="13.78" style="fill:none;stroke:rgb(43,43,43);stroke-width:10px;"/>
        </g>
        <g transform="matrix(1,0,0,1,806.91,1715.59)">
            <path d="M0,0.001C0,7.61 -6.169,13.779 -13.779,13.779C-21.389,13.779 -27.558,7.61 -27.558,0.001C-27.558,-7.609 -21.389,-13.778 -13.779,-13.778C-6.169,-13.778 0,-7.609 0,0.001" style="fill:rgb(43,43,43);fill-rule:nonzero;"/>
        </g>
        <g transform="matrix(0,-1,-1,-0,793.131,1701.81)">
            <ellipse cx="-13.779" cy="0.001" rx="13.778" ry="13.779" style="fill:none;stroke:rgb(43,43,43);stroke-width:10px;"/>
        </g>
        <g transform="matrix(1,0,0,1,1512.39,1715.59)">
            <path d="M0,0.001C0,7.61 -6.169,13.779 -13.779,13.779C-21.389,13.779 -27.558,7.61 -27.558,0.001C-27.558,-7.609 -21.389,-13.778 -13.779,-13.778C-6.169,-13.778 0,-7.609 0,0.001" style="fill:rgb(43,43,43);fill-rule:nonzero;"/>
        </g>
        <g transform="matrix(0,-1,-1,-0,1498.61,1701.81)">
            <ellipse cx="-13.779" cy="0.001" rx="13.778" ry="13.779" style="fill:none;stroke:rgb(43,43,43);stroke-width:10px;"/>
        </g>
        <g transform="matrix(1,0,0,1,2217.88,1715.59)">
            <path d="M0,0.001C0,7.61 -6.17,13.779 -13.779,13.779C-21.39,13.779 -27.559,7.61 -27.559,0.001C-27.559,-7.609 -21.39,-13.778 -13.779,-13.778C-6.17,-13.778 0,-7.609 0,0.001" style="fill:rgb(43,43,43);fill-rule:nonzero;"/>
        </g>
        <g transform="matrix(0,-1,-1,-0,2204.1,1701.81)">
            <ellipse cx="-13.78" cy="0.001" rx="13.778" ry="13.78" style="fill:none;stroke:rgb(43,43,43);stroke-width:10px;"/>
        </g>
    </g>
</svg>
