<?xml version="1.0" encoding="utf-8"?>
<!-- Generator: Adobe Illustrator 22.0.0, SVG Export Plug-In . SVG Version: 6.00 Build 0)  -->
<svg version="1.1" xmlns="http://www.w3.org/2000/svg" xmlns:xlink="http://www.w3.org/1999/xlink" x="0px" y="0px"
	 viewBox="0 0 3000 3000" style="enable-background:new 0 0 3000 3000;" xml:space="preserve">
<style type="text/css">
	.st0{fill:#2B2B2B;}
	.st1{fill:#2B2B2B;stroke:#2B2B2B;stroke-width:10;stroke-miterlimit:10;}
</style>
<g id="Layer_1">
	<path class="st0" d="M2900.6,1131c0-19.1-2-38.5-6.4-58.8c-11.7-53.9-33.9-105.5-65.3-150.9c-41.5-60-99.4-110.4-167.2-145.7
		c-43.3-22.6-90.2-38.9-139.1-48.6c5-97.5-9.8-178.4-44-240.4c-36.7-66.6-96.4-113.2-177.4-138.6l-0.5-0.2
		c-58.7-14.9-120.5-16.1-183.7-3.7c-62.9,12.4-128.8,38.6-196,78c-48.9,28.7-99.5,64.9-151.1,108.1c-81.9-65.9-176-137.5-270.3-206
		c-94.3,68.5-188.5,140.1-270.3,206c-51.5-43.2-102.2-79.4-151.1-108.1c-67.2-39.4-133.2-65.6-196-78c-63.2-12.4-125-11.2-183.7,3.7
		l-0.5,0.2c-81.1,25.4-140.8,72-177.4,138.6c-34.2,62.1-48.9,142.9-44,240.4c-48.9,9.7-95.8,26-139.1,48.6
		c-67.9,35.4-125.7,85.8-167.2,145.7c-22.7,32.8-40.7,68.9-53.2,106.8c-18.1,54.4-24.5,103.1-12.6,159.5
		c11.5,54.9,33.9,107.4,65.9,153.5c41.5,60,99.4,110.4,167.2,145.7c43.3,22.6,90.2,38.9,139.1,48.6c-5,97.6,9.8,178.4,43.9,240.5
		c36.7,66.6,96.4,113.3,177.4,138.7l0.5,0.2c32,8.1,64.9,12.2,98.5,12.2c28,0,56.5-2.8,85.2-8.5c62.9-12.4,128.8-38.6,196-78
		c48.9-28.7,99.5-64.9,151.1-108.1c81.8,65.9,176.6,137.1,270.8,205.6c94.3-68.5,188-139.7,269.8-205.6
		c51.6,43.2,102.2,79.4,151.1,108.1c67.2,39.4,133.2,65.6,196,78c28.8,5.7,57.2,8.5,85.3,8.5c33.6,0,66.5-4.1,98.5-12.2l0.5-0.2
		c81.1-25.4,140.8-72,177.4-138.7c34.2-62.1,48.9-142.9,43.9-240.5c48.9-9.7,95.8-26,139.1-48.6c67.8-35.4,125.7-85.8,167.2-145.7
		c22.6-32.6,40.4-68.4,52.9-106C2893.7,1199.3,2900.6,1165.8,2900.6,1131z M1930.9,439.3c65.3-38.2,129.1-63.7,189.8-75.6
		c60.2-11.8,119-10.7,174.7,3.4c38,11.9,71.2,28.8,98.7,50.3c27.4,21.4,49.9,47.9,67,78.8c32.1,58.3,46,134.6,41.6,227.3
		c-36.9-5.9-74.9-8.1-113.2-6.5c-50.9,2.2-102.4,11.1-153,26.5c-50.8,15.5-101.1,37.6-149.5,65.8c-20.6-20.1-41.8-40.4-63.8-60.8
		c-71.3-66.4-150.7-135-237.6-205.4C1835.2,501.5,1883.9,466.8,1930.9,439.3z M2084.3,1427.7c-130.1-93.6-239.7-190.7-334.7-296.4
		c95-105.7,204.6-202.8,334.7-296.5c105.1,103.9,190.8,202.9,256.4,296.5C2275.1,1224.8,2189.5,1323.8,2084.3,1427.7z
		 M1499.5,1419.5c-25.4-32.7-50.2-65.3-74.3-96.9c-50.7-66.6-98.6-129.6-150.3-191.3c51.6-61.6,99.5-124.6,150.2-191.1
		c24.1-31.7,49-64.4,74.5-97.1c25.4,32.7,50.2,65.3,74.3,96.9c50.7,66.6,98.6,129.6,150.3,191.3c-51.6,61.6-99.6,124.6-150.2,191.1
		C1549.8,1354,1524.9,1386.7,1499.5,1419.5z M658.1,1131.2c65.7-93.6,151.3-192.6,256.4-296.5c130.1,93.6,239.7,190.7,334.8,296.5
		c-95,105.7-204.6,202.8-334.8,296.5C809.6,1324,723.6,1224.5,658.1,1131.2z M1736.9,1115.4c-50.4-60.4-97.5-122.2-147.3-187.6
		c-25.2-33.2-51.3-67.4-78-101.7c73.4-89.5,145.6-167.2,214.6-231c14.7-13.6,29.3-26.6,43.8-39.1
		c112.7,91.2,212.7,179.5,299.8,264.5C1940.7,913.7,1831.6,1010.4,1736.9,1115.4z M1409.1,928c-49.6,65.3-96.7,127.1-147.1,187.4
		c-94.8-105.1-204-201.8-333-294.9c87.1-85,187.1-173.3,299.8-264.5c14.5,12.5,29.2,25.5,43.8,39.1c69,63.8,141.2,141.6,214.6,231
		C1460.4,860.5,1434.3,894.8,1409.1,928z M647,1112.2C555.9,973.5,506.9,853,497.5,744.1c0-0.2,0-0.4,0-0.6
		c36.2-5.9,73.5-8.2,111.2-6.6c49.2,2.1,99,10.7,148,25.6c47.7,14.5,94.9,35.1,140.5,61.2C795.7,924.3,711.8,1021,647,1112.2z
		 M647,1150.2c64.8,91.1,148.7,187.8,250.1,288.5c-45.6,26.1-92.9,46.7-140.5,61.2c-49,14.9-98.8,23.5-148,25.6
		c-37.7,1.6-74.9-0.6-111.1-6.6c0-0.2,0-0.4,0-0.6C507,1409.4,555.9,1288.8,647,1150.2z M1262,1147
		c50.4,60.4,97.5,122.2,147.3,187.6c25.2,33.1,51.3,67.4,78,101.7c-73.4,89.5-145.6,167.2-214.6,231c-14.7,13.6-29.3,26.6-43.8,39.1
		c-87.7-71-167.7-140.1-239.5-207c-20.7-19.3-40.8-38.5-60.3-57.5C1058.1,1348.7,1167.2,1252.1,1262,1147z M1589.8,1334.4
		c49.7-65.3,96.7-127.1,147.1-187.4c94.8,105.1,203.9,201.7,332.9,294.8c-87.1,85-187.1,173.3-299.8,264.5
		c-14.5-12.5-29.1-25.5-43.8-39.1c-69-63.8-141.2-141.5-214.6-231C1538.5,1401.9,1564.6,1367.6,1589.8,1334.4z M2351.8,1150.2
		c91.2,138.7,140.1,259.2,149.5,368.1c0,0.2,0,0.4,0,0.6c-36.2,5.9-73.5,8.2-111.1,6.6c-49.2-2.1-99-10.7-148-25.6
		c-47.7-14.5-94.9-35.1-140.6-61.2C2203.2,1338.1,2287.1,1241.4,2351.8,1150.2z M2351.8,1112.2c-64.8-91.2-148.7-187.9-250.1-288.5
		c45.6-26.1,92.9-46.7,140.5-61.2c49-14.9,98.8-23.5,148-25.6c37.7-1.6,74.9,0.6,111.1,6.6c0,0.2,0,0.4,0,0.6
		C2491.9,853,2443,973.6,2351.8,1112.2z M1499.4,348.8c90.9,66.2,175.9,131,254.8,194.5c-13.8,11.9-27.7,24.3-41.6,37.2
		c-68.7,63.5-140.3,140.5-213.2,229.1c-72.9-88.5-144.6-165.5-213.2-229.1c-13.9-12.9-27.8-25.3-41.6-37.2
		C1323.5,479.8,1408.5,415,1499.4,348.8z M537.8,496.2c17-30.9,39.6-57.5,67-78.8c27.5-21.4,60.7-38.3,98.7-50.3
		c55.7-14.1,114.5-15.2,174.7-3.4c60.6,11.9,124.5,37.4,189.8,75.6c47,27.5,95.7,62.2,145.3,103.6
		c-86.9,70.4-166.3,139.1-237.6,205.5c-21.9,20.4-43.2,40.7-63.7,60.8c-48.4-28.2-98.7-50.3-149.5-65.8
		c-50.6-15.4-102.1-24.3-153-26.5c-38.3-1.6-76.3,0.6-113.2,6.5C491.8,630.8,505.8,554.4,537.8,496.2z M186.5,1329.7
		c-39.2-56.6-70.9-127.3-69.9-197.3c1-70,30.5-142.8,69.9-199.7c39.7-57.3,95-105.5,160-139.4c40.8-21.3,85-36.8,131.1-46.2
		c10.2,114.1,61.9,239.8,158,384.1c-96,144.3-147.7,270-157.9,384.1c-46.1-9.4-90.3-24.9-131.2-46.2
		C281.6,1435.2,226.2,1387,186.5,1329.7z M1068,1823.2c-65.3,38.2-129.1,63.7-189.8,75.6c-60.2,11.8-119,10.7-174.7-3.4
		c-38-11.9-71.2-28.8-98.7-50.3c-27.4-21.4-49.9-47.9-67-78.9c-32.1-58.3-46-134.7-41.6-227.3c29.1,4.7,58.8,7,88.8,7
		c8.1,0,16.2-0.2,24.4-0.5c50.9-2.2,102.4-11.1,153-26.5c50.8-15.5,101.1-37.6,149.5-65.8c20.6,20.1,41.8,40.4,63.7,60.8
		c71.3,66.4,150.7,135,237.6,205.5C1163.7,1760.9,1115,1795.6,1068,1823.2z M1499.5,1913.6c-90.7-66-175.8-131-254.8-194.5
		c13.8-11.9,27.7-24.3,41.6-37.2c68.6-63.5,140.3-140.6,213.2-229.1c72.9,88.5,144.6,165.5,213.2,229.1
		c13.9,12.9,27.8,25.3,41.6,37.2C1675.4,1782.6,1590.4,1847.4,1499.5,1913.6z M2461.1,1766.3c-17,30.9-39.6,57.5-67,78.9
		c-27.5,21.4-60.7,38.3-98.7,50.3c-55.7,14.1-114.5,15.2-174.7,3.4c-60.6-11.9-124.5-37.4-189.8-75.6
		c-47-27.5-95.7-62.3-145.3-103.6c86.9-70.4,166.3-139.1,237.6-205.5c21.9-20.4,43.2-40.7,63.7-60.8c48.4,28.2,98.7,50.3,149.5,65.8
		c50.6,15.4,102.1,24.3,153,26.5c8.1,0.3,16.3,0.5,24.3,0.5c30,0,59.7-2.4,88.8-7C2507.1,1631.6,2493.1,1708,2461.1,1766.3z
		 M2812.4,1329.7c-39.7,57.3-95,105.5-160,139.4c-40.9,21.3-85.1,36.8-131.2,46.2c-10.2-114.1-61.9-239.7-157.9-384.1
		c96-144.3,147.7-270,157.9-384.1c46.1,9.4,90.3,24.9,131.1,46.2c65,33.9,120.3,82.1,160,139.4c39,56.3,70.5,125.8,70.1,195.5
		C2882,1198.7,2852,1272.5,2812.4,1329.7z"/>
	<g>
		<path class="st0" d="M368,2256.4c-1.9,3.2-3.9,5.6-6,7.2c-2.1,1.5-4.8,2.3-8,2.3c-3.4,0-7.4-1.6-11.7-4.7
			c-4.4-3.1-9.9-6.7-16.5-10.6c-6.6-3.9-14.5-7.4-23.6-10.6c-9.2-3.1-20.1-4.7-32.9-4.7c-12,0-22.6,1.6-31.6,4.7
			c-9.1,3.2-16.7,7.4-22.8,12.9c-6.1,5.4-10.7,11.8-13.9,19.2c-3.1,7.4-4.7,15.3-4.7,23.9c0,11.1,2.8,20.2,8.4,27.5
			c5.6,7.3,13,13.5,22.2,18.6s19.6,9.6,31.2,13.5c11.6,3.8,23.6,7.8,35.8,11.9c12.2,4.1,24.1,8.8,35.8,14.2
			c11.6,5.3,22,12.1,31.2,20.2c9.2,8.1,16.6,18,22.2,29.8c5.6,11.7,8.4,26.1,8.4,43.1c0,18.1-3.1,35.1-9.3,51
			c-6.2,15.8-15.2,29.7-27.1,41.5c-11.8,11.8-26.4,21.1-43.7,27.9c-17.3,6.8-36.9,10.2-58.8,10.2c-13.2,0-26-1.3-38.4-3.9
			c-12.4-2.6-24.2-6.2-35.2-10.9c-11.1-4.7-21.4-10.3-31.1-16.9c-9.6-6.6-18.3-14-25.9-22.2l17.5-29.2c1.7-2.3,3.8-4.2,6.2-5.7
			c2.4-1.5,5.1-2.3,8.2-2.3c4,0,8.6,2.1,13.9,6.3c5.2,4.2,11.7,8.8,19.5,13.9c7.7,5.1,17,9.7,27.8,13.9c10.8,4.2,23.9,6.3,39.4,6.3
			c12.6,0,23.9-1.7,33.8-5c9.9-3.3,18.3-8.1,25.1-14.3c6.8-6.2,12-13.7,15.6-22.5c3.6-8.8,5.4-18.5,5.4-29.2c0-12-2.8-21.9-8.3-29.5
			c-5.5-7.6-12.9-14-22-19.2c-9.2-5.2-19.6-9.5-31.2-13.2c-11.6-3.6-23.6-7.4-35.8-11.3c-12.2-3.9-24.2-8.4-35.8-13.6
			c-11.6-5.2-22-11.9-31.2-20.2c-9.2-8.3-16.5-18.7-22-31.2c-5.5-12.5-8.3-27.9-8.3-46.2c0-14.7,2.9-28.9,8.6-42.7
			s14.1-25.9,25.1-36.5c11-10.6,24.5-19.1,40.5-25.5c16-6.4,34.4-9.6,55-9.6c23.1,0,44.3,3.7,63.7,11c19.4,7.4,36.2,17.9,50.5,31.6
			L368,2256.4z"/>
		<path class="st0" d="M522,2219.8c0,5.2-1.1,10.1-3.2,14.7c-2.1,4.7-4.9,8.8-8.4,12.3c-3.5,3.5-7.7,6.3-12.5,8.3
			c-4.8,2-9.7,3-14.9,3s-10-1-14.6-3c-4.6-2-8.6-4.8-12.2-8.3c-3.5-3.5-6.3-7.6-8.3-12.3c-2-4.7-3-9.6-3-14.7c0-5.3,1-10.4,3-15
			c2-4.7,4.8-8.8,8.3-12.3c3.5-3.5,7.6-6.3,12.2-8.3c4.6-2,9.4-3,14.6-3s10.1,1,14.9,3c4.8,2,8.9,4.8,12.5,8.3
			c3.5,3.5,6.3,7.6,8.4,12.3C521,2209.4,522,2214.4,522,2219.8z M511.4,2309.7v290.9h-55.8v-290.9H511.4z"/>
		<path class="st0" d="M644.9,2350.1c6.3-6.7,12.9-12.8,19.8-18.3c6.9-5.5,14.2-10.3,21.9-14.2c7.7-3.9,16-7,24.9-9.2
			c8.9-2.2,18.4-3.3,28.5-3.3c16,0,30.1,2.7,42.2,8c12.1,5.3,22.3,12.8,30.5,22.5c8.2,9.6,14.4,21.2,18.6,34.8
			c4.2,13.6,6.3,28.5,6.3,45v185.3h-56.1v-185.3c0-20.8-4.8-37-14.3-48.5c-9.5-11.5-24.2-17.3-43.8-17.3c-14.3,0-27.7,3.4-40.2,10.2
			c-12.5,6.8-24.1,16-34.8,27.6v213.3h-55.8v-290.9H626c7.8,0,12.7,3.7,14.6,11.2L644.9,2350.1z"/>
		<path class="st0" d="M1116.8,2364.1c-1.7,2.1-3.4,3.8-5,5c-1.6,1.2-4,1.9-7,1.9c-3.1,0-6.3-1.2-9.6-3.6c-3.3-2.4-7.5-5-12.6-7.7
			c-5.1-2.8-11.2-5.3-18.3-7.7c-7.2-2.4-16-3.6-26.5-3.6c-13.7,0-25.9,2.5-36.4,7.4c-10.5,5-19.2,12-26.2,21.2
			c-7,9.2-12.3,20.3-15.9,33.5c-3.6,13.2-5.4,28-5.4,44.4c0,17,1.9,32.1,5.7,45.4c3.8,13.3,9.3,24.4,16.3,33.5
			c7.1,9.1,15.7,15.9,25.8,20.6c10.1,4.7,21.4,7,33.8,7c12,0,22-1.5,29.8-4.4c7.8-3,14.3-6.2,19.5-9.6c5.2-3.4,9.4-6.6,12.9-9.6
			c3.4-3,7-4.4,10.6-4.4c4.6,0,8.1,1.7,10.6,5.2l16,20.6c-6.7,8.2-14.2,15.2-22.5,20.9c-8.3,5.7-17.1,10.4-26.5,14
			c-9.4,3.6-19.1,6.3-29.4,8c-10.2,1.7-20.6,2.6-31.1,2.6c-18.1,0-35.1-3.3-50.8-10c-15.7-6.7-29.4-16.4-40.9-29.2
			c-11.6-12.8-20.7-28.5-27.3-47.1c-6.7-18.6-10-39.8-10-63.4c0-21.6,3-41.5,9-59.8c6-18.3,14.9-34.1,26.6-47.4
			c11.7-13.3,26.2-23.7,43.4-31.2c17.2-7.5,36.8-11.3,59-11.3c20.8,0,39.1,3.3,55,10c15.8,6.7,30,16.1,42.4,28.3L1116.8,2364.1z"/>
		<path class="st0" d="M1420.6,2559.1c-6.9,8-14.8,14.9-23.8,20.8c-9,5.8-18.5,10.6-28.6,14.2c-10.1,3.6-20.6,6.3-31.4,8
			c-10.8,1.7-21.4,2.6-31.9,2.6c-20,0-38.6-3.4-55.7-10.2c-17.1-6.8-31.9-16.7-44.4-29.8c-12.5-13.1-22.2-29.3-29.2-48.7
			c-7-19.4-10.5-41.7-10.5-66.9c0-20.2,3.1-39.1,9.4-56.6c6.3-17.5,15.3-32.7,27.1-45.7c11.7-13,26.1-23.2,43.1-30.6
			c17-7.4,36.1-11.2,57.3-11.2c17.8,0,34.1,2.9,49.1,8.7c15,5.8,27.9,14.3,38.8,25.3c10.9,11.1,19.4,24.7,25.6,40.9
			c6.2,16.2,9.3,34.7,9.3,55.6c0,8.6-1,14.4-2.9,17.3c-1.9,3-5.4,4.4-10.6,4.4h-190.7c0.6,17.4,3.1,32.5,7.4,45.4
			c4.4,12.9,10.5,23.6,18.2,32.2c7.7,8.6,16.9,15,27.6,19.2c10.7,4.2,22.6,6.3,35.8,6.3c12.4,0,23.1-1.4,32.2-4.3
			c9.1-2.9,16.9-6,23.5-9.3c6.6-3.3,12.1-6.4,16.6-9.3c4.5-2.9,8.4-4.3,11.9-4.3c4.6,0,8.1,1.7,10.6,5.2L1420.6,2559.1z
			 M1374.5,2422.8c0-11.1-1.6-21.3-4.7-30.6c-3.1-9.4-7.8-17.5-13.9-24.3c-6.1-6.9-13.6-12.2-22.3-16c-8.8-3.8-18.9-5.7-30.4-5.7
			c-23.5,0-42,6.8-55.4,20.3c-13.5,13.6-22,32.4-25.6,56.4H1374.5z"/>
		<path class="st0" d="M1883.1,2558v42.7h-222.2V2558h87.1v-269.5c0-8.6,0.3-17.5,0.9-26.6l-69.9,59.3c-2.7,2.1-5.3,3.4-8,4
			c-2.7,0.6-5.2,0.7-7.6,0.3c-2.4-0.4-4.5-1.2-6.3-2.4c-1.8-1.2-3.3-2.5-4.4-3.9l-17.5-24.3l123.1-106.2h45.5V2558H1883.1z"/>
		<path class="st0" d="M2119.9,2438c7.4-9.7,14.4-19.3,20.9-28.6c-10.3,7.8-21.8,13.7-34.5,17.8c-12.7,4-26.2,6-40.5,6
			c-15.1,0-29.5-2.6-43.4-7.7c-13.8-5.2-26.1-12.7-36.7-22.8c-10.6-10-19-22.4-25.3-37.1c-6.3-14.7-9.4-31.6-9.4-50.7
			c0-17.9,3.3-34.8,10-50.7c6.7-15.8,16.1-29.6,28.2-41.4c12.1-11.7,26.6-21,43.5-27.8c16.9-6.8,35.5-10.2,55.7-10.2
			c20,0,38.2,3.2,54.6,9.7c16.3,6.5,30.2,15.6,41.7,27.3s20.3,25.8,26.6,42.2c6.3,16.4,9.5,34.5,9.5,54.1c0,12-1.1,23.5-3.3,34.4
			c-2.2,10.9-5.3,21.5-9.5,31.8c-4.1,10.3-9.1,20.5-14.9,30.5c-5.8,10-12.5,20.3-19.9,30.8l-98.8,141.7c-2.7,3.8-6.5,7-11.6,9.5
			c-5.1,2.5-10.8,3.7-17.3,3.7h-51.3L2119.9,2438z M2007.1,2310.8c0,25.4,6.9,45,20.6,58.7s32.8,20.6,57.3,20.6
			c13.2,0,24.8-2.1,34.9-6.4c10.1-4.3,18.7-10,25.6-17.2c7-7.2,12.3-15.5,15.9-24.9c3.6-9.5,5.4-19.3,5.4-29.6
			c0-12.4-2-23.6-5.9-33.6c-3.9-10-9.4-18.5-16.5-25.5c-7.1-7-15.4-12.3-25.1-16c-9.6-3.7-20.3-5.6-31.9-5.6c-12,0-23,2-32.9,5.9
			c-9.9,3.9-18.4,9.4-25.5,16.5c-7.1,7.1-12.5,15.5-16.3,25.2C2009,2288.5,2007.1,2299.2,2007.1,2310.8z"/>
		<path class="st0" d="M2452.1,2438c7.4-9.7,14.4-19.3,20.9-28.6c-10.3,7.8-21.8,13.7-34.5,17.8c-12.7,4-26.2,6-40.5,6
			c-15.1,0-29.5-2.6-43.4-7.7c-13.8-5.2-26.1-12.7-36.7-22.8c-10.6-10-19-22.4-25.3-37.1c-6.3-14.7-9.4-31.6-9.4-50.7
			c0-17.9,3.3-34.8,10-50.7c6.7-15.8,16.1-29.6,28.2-41.4c12.1-11.7,26.6-21,43.5-27.8c16.9-6.8,35.5-10.2,55.7-10.2
			c20,0,38.2,3.2,54.6,9.7c16.3,6.5,30.2,15.6,41.7,27.3s20.3,25.8,26.6,42.2c6.3,16.4,9.5,34.5,9.5,54.1c0,12-1.1,23.5-3.3,34.4
			c-2.2,10.9-5.3,21.5-9.5,31.8c-4.1,10.3-9.1,20.5-14.9,30.5c-5.8,10-12.5,20.3-19.9,30.8l-98.8,141.7c-2.7,3.8-6.5,7-11.6,9.5
			c-5.1,2.5-10.8,3.7-17.3,3.7h-51.3L2452.1,2438z M2339.2,2310.8c0,25.4,6.9,45,20.6,58.7s32.8,20.6,57.3,20.6
			c13.2,0,24.8-2.1,34.9-6.4c10.1-4.3,18.7-10,25.6-17.2c7-7.2,12.3-15.5,15.9-24.9c3.6-9.5,5.4-19.3,5.4-29.6
			c0-12.4-2-23.6-5.9-33.6c-3.9-10-9.4-18.5-16.5-25.5c-7.1-7-15.4-12.3-25.1-16c-9.6-3.7-20.3-5.6-31.9-5.6c-12,0-23,2-32.9,5.9
			c-9.9,3.9-18.4,9.4-25.5,16.5c-7.1,7.1-12.5,15.5-16.3,25.2C2341.1,2288.5,2339.2,2299.2,2339.2,2310.8z"/>
		<path class="st0" d="M2784.2,2438c7.4-9.7,14.4-19.3,20.9-28.6c-10.3,7.8-21.8,13.7-34.5,17.8c-12.7,4-26.2,6-40.5,6
			c-15.1,0-29.5-2.6-43.4-7.7c-13.8-5.2-26.1-12.7-36.7-22.8c-10.6-10-19-22.4-25.3-37.1c-6.3-14.7-9.4-31.6-9.4-50.7
			c0-17.9,3.3-34.8,10-50.7c6.7-15.8,16.1-29.6,28.2-41.4c12.1-11.7,26.6-21,43.5-27.8c16.9-6.8,35.5-10.2,55.7-10.2
			c20,0,38.2,3.2,54.6,9.7c16.3,6.5,30.2,15.6,41.7,27.3s20.3,25.8,26.6,42.2c6.3,16.4,9.5,34.5,9.5,54.1c0,12-1.1,23.5-3.3,34.4
			c-2.2,10.9-5.3,21.5-9.5,31.8c-4.1,10.3-9.1,20.5-14.9,30.5c-5.8,10-12.5,20.3-19.9,30.8l-98.8,141.7c-2.7,3.8-6.5,7-11.6,9.5
			c-5.1,2.5-10.8,3.7-17.3,3.7h-51.3L2784.2,2438z M2671.4,2310.8c0,25.4,6.9,45,20.6,58.7s32.8,20.6,57.3,20.6
			c13.2,0,24.8-2.1,34.9-6.4c10.1-4.3,18.7-10,25.6-17.2c7-7.2,12.3-15.5,15.9-24.9c3.6-9.5,5.4-19.3,5.4-29.6
			c0-12.4-2-23.6-5.9-33.6c-3.9-10-9.4-18.5-16.5-25.5c-7.1-7-15.4-12.3-25.1-16c-9.6-3.7-20.3-5.6-31.9-5.6c-12,0-23,2-32.9,5.9
			c-9.9,3.9-18.4,9.4-25.5,16.5c-7.1,7.1-12.5,15.5-16.3,25.2C2673.3,2288.5,2671.4,2299.2,2671.4,2310.8z"/>
	</g>
</g>
<g id="Layer_2">
	<g>
		<circle class="st1" cx="793.1" cy="550.9" r="13.8"/>
		<circle class="st1" cx="666.7" cy="888.6" r="13.8"/>
		<circle class="st1" cx="666.7" cy="1377" r="13.8"/>
		<circle class="st1" cx="2332.6" cy="1377" r="13.8"/>
		<circle class="st1" cx="2609.1" cy="1133.2" r="13.8"/>
		<circle class="st1" cx="2065.2" cy="1133.2" r="13.8"/>
		<circle class="st1" cx="1498.6" cy="1133.2" r="13.8"/>
		<circle class="st1" cx="934.1" cy="1133.2" r="13.8"/>
		<circle class="st1" cx="1234.9" cy="835" r="13.8"/>
		<circle class="st1" cx="1234.9" cy="1430.3" r="13.8"/>
		<circle class="st1" cx="1763.4" cy="835" r="13.8"/>
		<circle class="st1" cx="1763.4" cy="1430.3" r="13.8"/>
		<circle class="st1" cx="390.2" cy="1133.2" r="13.8"/>
		<circle class="st1" cx="2332.6" cy="888.4" r="13.8"/>
		<circle class="st1" cx="1498.6" cy="550.9" r="13.8"/>
		<circle class="st1" cx="2204.1" cy="550.9" r="13.8"/>
		<circle class="st1" cx="793.1" cy="1715.6" r="13.8"/>
		<circle class="st1" cx="1498.6" cy="1715.6" r="13.8"/>
		<circle class="st1" cx="2204.1" cy="1715.6" r="13.8"/>
	</g>
</g>
</svg>
